<?xml version="1.0" encoding="UTF-8" standalone="no"?>
<!-- Created with Inkscape (http://www.inkscape.org/) -->

<svg
   version="1.1"
   id="svg2793"
   width="535.38824"
   height="310.11328"
   viewBox="0 0 535.38825 310.11327"
   sodipodi:docname="epsisim.svg"
   inkscape:version="1.2.1 (9c6d41e410, 2022-07-14)"
   xmlns:inkscape="http://www.inkscape.org/namespaces/inkscape"
   xmlns:sodipodi="http://sodipodi.sourceforge.net/DTD/sodipodi-0.dtd"
   xmlns="http://www.w3.org/2000/svg"
   xmlns:svg="http://www.w3.org/2000/svg">
  <defs
     id="defs2797">
    <clipPath
       clipPathUnits="userSpaceOnUse"
       id="clipPath2811">
      <path
         d="M 0,0 H 529.00001 V 301.99998 H 0 Z"
         id="path2809" />
    </clipPath>
  </defs>
  <sodipodi:namedview
     id="namedview2795"
     pagecolor="#ffffff"
     bordercolor="#000000"
     borderopacity="0.25"
     inkscape:showpageshadow="2"
     inkscape:pageopacity="0.0"
     inkscape:pagecheckerboard="0"
     inkscape:deskcolor="#d1d1d1"
     showgrid="false"
     inkscape:zoom="1.1891486"
     inkscape:cx="292.64636"
     inkscape:cy="152.20975"
     inkscape:window-width="1680"
     inkscape:window-height="979"
     inkscape:window-x="-8"
     inkscape:window-y="-8"
     inkscape:window-maximized="1"
     inkscape:current-layer="g2803">
    <inkscape:page
       x="0"
       y="0"
       id="page2799"
       width="535.38824"
       height="310.11328" />
  </sodipodi:namedview>
  <g
     id="g2801"
     inkscape:groupmode="layer"
     inkscape:label="Page 1"
     transform="matrix(1.3333333,0,0,-1.3333333,-129.50442,715.65279)">
    <g
       id="g2803"
       transform="matrix(0.125,0,0,-0.125,0,842)">
      <g
         id="g2805"
         transform="matrix(6.0015184,0,0,6.0071961,793.70062,2460.4724)">
        <g
           id="g2807"
           clip-path="url(#clipPath2811)">
          <path
             d="M 0,0 H 529 V 302 H 0 Z"
             style="fill:#ffffff;fill-opacity:1;fill-rule:nonzero;stroke:none"
             id="path2813" />
        </g>
      </g>
      <g
         id="g2815"
         transform="matrix(6.0015184,0,0,6.0071961,793.70062,2460.4724)">
        <path
           d="M 0,0 H 529 V 302 H 0 Z"
           style="fill:#ffffff;fill-opacity:1;fill-rule:nonzero;stroke:none"
           id="path2817" />
      </g>
      <g
         id="g2819"
         transform="matrix(6.0015184,0,0,6.0071961,793.70062,2460.4724)">
        <path
           d="M 25,266 H 523 V 7 H 25 Z"
           style="fill:#ffffff;fill-opacity:1;fill-rule:nonzero;stroke:none"
           id="path2821" />
      </g>
      <g
         id="g2823"
         transform="matrix(6.0015184,0,0,6.0071961,793.70062,2460.4724)">
        <path
           d="M 25,266 H 523"
           style="fill:none;stroke:#262626;stroke-width:1.33333;stroke-linecap:square;stroke-linejoin:round;stroke-miterlimit:10;stroke-dasharray:none;stroke-opacity:1"
           id="path2825" />
      </g>
      <g
         id="g2827"
         transform="matrix(6.0015184,0,0,6.0071961,793.70062,2460.4724)">
        <path
           d="m 25,266 v -4.98001"
           style="fill:none;stroke:#262626;stroke-width:1.33333;stroke-linecap:square;stroke-linejoin:round;stroke-miterlimit:10;stroke-dasharray:none;stroke-opacity:1"
           id="path2829" />
      </g>
      <g
         id="g2831"
         transform="matrix(6.0015184,0,0,6.0071961,793.70062,2460.4724)">
        <path
           d="m 80.333336,266 v -4.98001"
           style="fill:none;stroke:#262626;stroke-width:1.33333;stroke-linecap:square;stroke-linejoin:round;stroke-miterlimit:10;stroke-dasharray:none;stroke-opacity:1"
           id="path2833" />
      </g>
      <g
         id="g2835"
         transform="matrix(6.0015184,0,0,6.0071961,793.70062,2460.4724)">
        <path
           d="m 135.66667,266 v -4.98001"
           style="fill:none;stroke:#262626;stroke-width:1.33333;stroke-linecap:square;stroke-linejoin:round;stroke-miterlimit:10;stroke-dasharray:none;stroke-opacity:1"
           id="path2837" />
      </g>
      <g
         id="g2839"
         transform="matrix(6.0015184,0,0,6.0071961,793.70062,2460.4724)">
        <path
           d="m 191,266 v -4.98001"
           style="fill:none;stroke:#262626;stroke-width:1.33333;stroke-linecap:square;stroke-linejoin:round;stroke-miterlimit:10;stroke-dasharray:none;stroke-opacity:1"
           id="path2841" />
      </g>
      <g
         id="g2843"
         transform="matrix(6.0015184,0,0,6.0071961,793.70062,2460.4724)">
        <path
           d="m 246.33333,266 v -4.98001"
           style="fill:none;stroke:#262626;stroke-width:1.33333;stroke-linecap:square;stroke-linejoin:round;stroke-miterlimit:10;stroke-dasharray:none;stroke-opacity:1"
           id="path2845" />
      </g>
      <g
         id="g2847"
         transform="matrix(6.0015184,0,0,6.0071961,793.70062,2460.4724)">
        <path
           d="m 301.66669,266 v -4.98001"
           style="fill:none;stroke:#262626;stroke-width:1.33333;stroke-linecap:square;stroke-linejoin:round;stroke-miterlimit:10;stroke-dasharray:none;stroke-opacity:1"
           id="path2849" />
      </g>
      <g
         id="g2851"
         transform="matrix(6.0015184,0,0,6.0071961,793.70062,2460.4724)">
        <path
           d="m 357,266 v -4.98001"
           style="fill:none;stroke:#262626;stroke-width:1.33333;stroke-linecap:square;stroke-linejoin:round;stroke-miterlimit:10;stroke-dasharray:none;stroke-opacity:1"
           id="path2853" />
      </g>
      <g
         id="g2855"
         transform="matrix(6.0015184,0,0,6.0071961,793.70062,2460.4724)">
        <path
           d="m 412.33334,266 v -4.98001"
           style="fill:none;stroke:#262626;stroke-width:1.33333;stroke-linecap:square;stroke-linejoin:round;stroke-miterlimit:10;stroke-dasharray:none;stroke-opacity:1"
           id="path2857" />
      </g>
      <g
         id="g2859"
         transform="matrix(6.0015184,0,0,6.0071961,793.70062,2460.4724)">
        <path
           d="m 467.66666,266 v -4.98001"
           style="fill:none;stroke:#262626;stroke-width:1.33333;stroke-linecap:square;stroke-linejoin:round;stroke-miterlimit:10;stroke-dasharray:none;stroke-opacity:1"
           id="path2861" />
      </g>
      <g
         id="g2863"
         transform="matrix(6.0015184,0,0,6.0071961,793.70062,2460.4724)">
        <path
           d="m 523,266 v -4.98001"
           style="fill:none;stroke:#262626;stroke-width:1.33333;stroke-linecap:square;stroke-linejoin:round;stroke-miterlimit:10;stroke-dasharray:none;stroke-opacity:1"
           id="path2865" />
      </g>
      <g
         id="g2867">
        <g
           id="g2869"
           transform="matrix(6.0015184,0,0,6.0071961,943.73858,4080.8135)">
          <text
             xml:space="preserve"
             transform="translate(-3,11)"
             style="font-variant:normal;font-weight:normal;font-size:12px;font-family:'Times New Roman';-inkscape-font-specification:Times-Roman;writing-mode:lr-tb;fill:#262626;fill-opacity:1;fill-rule:nonzero;stroke:none"
             id="text2873"><tspan
               x="0"
               y="0"
               id="tspan2871">0</tspan></text>
        </g>
      </g>
      <g
         id="g2875">
        <g
           id="g2877"
           transform="matrix(6.0015184,0,0,6.0071961,1275.8226,4080.8135)">
          <text
             xml:space="preserve"
             transform="translate(-3,11)"
             style="font-variant:normal;font-weight:normal;font-size:12px;font-family:'Times New Roman';-inkscape-font-specification:Times-Roman;writing-mode:lr-tb;fill:#262626;fill-opacity:1;fill-rule:nonzero;stroke:none"
             id="text2881"><tspan
               x="0"
               y="0"
               id="tspan2879">2</tspan></text>
        </g>
      </g>
      <g
         id="g2883">
        <g
           id="g2885"
           transform="matrix(6.0015184,0,0,6.0071961,1607.9066,4080.8135)">
          <text
             xml:space="preserve"
             transform="translate(-3,11)"
             style="font-variant:normal;font-weight:normal;font-size:12px;font-family:'Times New Roman';-inkscape-font-specification:Times-Roman;writing-mode:lr-tb;fill:#262626;fill-opacity:1;fill-rule:nonzero;stroke:none"
             id="text2889"><tspan
               x="0"
               y="0"
               id="tspan2887">4</tspan></text>
        </g>
      </g>
      <g
         id="g2891">
        <g
           id="g2893"
           transform="matrix(6.0015184,0,0,6.0071961,1939.9906,4080.8135)">
          <text
             xml:space="preserve"
             transform="translate(-3,11)"
             style="font-variant:normal;font-weight:normal;font-size:12px;font-family:'Times New Roman';-inkscape-font-specification:Times-Roman;writing-mode:lr-tb;fill:#262626;fill-opacity:1;fill-rule:nonzero;stroke:none"
             id="text2897"><tspan
               x="0"
               y="0"
               id="tspan2895">6</tspan></text>
        </g>
      </g>
      <g
         id="g2899">
        <g
           id="g2901"
           transform="matrix(6.0015184,0,0,6.0071961,2272.0746,4080.8135)">
          <text
             xml:space="preserve"
             transform="translate(-3,11)"
             style="font-variant:normal;font-weight:normal;font-size:12px;font-family:'Times New Roman';-inkscape-font-specification:Times-Roman;writing-mode:lr-tb;fill:#262626;fill-opacity:1;fill-rule:nonzero;stroke:none"
             id="text2905"><tspan
               x="0"
               y="0"
               id="tspan2903">8</tspan></text>
        </g>
      </g>
      <g
         id="g2907">
        <g
           id="g2909"
           transform="matrix(6.0015184,0,0,6.0071961,2604.1588,4080.8135)">
          <text
             xml:space="preserve"
             transform="translate(-6,11)"
             style="font-variant:normal;font-weight:normal;font-size:12px;font-family:'Times New Roman';-inkscape-font-specification:Times-Roman;writing-mode:lr-tb;fill:#262626;fill-opacity:1;fill-rule:nonzero;stroke:none"
             id="text2913"><tspan
               x="0 6"
               y="0"
               sodipodi:role="line"
               id="tspan2911">10</tspan></text>
        </g>
      </g>
      <g
         id="g2915">
        <g
           id="g2917"
           transform="matrix(6.0015184,0,0,6.0071961,2936.2427,4080.8135)">
          <text
             xml:space="preserve"
             transform="translate(-6,11)"
             style="font-variant:normal;font-weight:normal;font-size:12px;font-family:'Times New Roman';-inkscape-font-specification:Times-Roman;writing-mode:lr-tb;fill:#262626;fill-opacity:1;fill-rule:nonzero;stroke:none"
             id="text2921"><tspan
               x="0 6"
               y="0"
               sodipodi:role="line"
               id="tspan2919">12</tspan></text>
        </g>
      </g>
      <g
         id="g2923">
        <g
           id="g2925"
           transform="matrix(6.0015184,0,0,6.0071961,3268.3268,4080.8135)">
          <text
             xml:space="preserve"
             transform="translate(-6,11)"
             style="font-variant:normal;font-weight:normal;font-size:12px;font-family:'Times New Roman';-inkscape-font-specification:Times-Roman;writing-mode:lr-tb;fill:#262626;fill-opacity:1;fill-rule:nonzero;stroke:none"
             id="text2929"><tspan
               x="0 6"
               y="0"
               sodipodi:role="line"
               id="tspan2927">14</tspan></text>
        </g>
      </g>
      <g
         id="g2931">
        <g
           id="g2933"
           transform="matrix(6.0015184,0,0,6.0071961,3600.4107,4080.8135)">
          <text
             xml:space="preserve"
             transform="translate(-6,11)"
             style="font-variant:normal;font-weight:normal;font-size:12px;font-family:'Times New Roman';-inkscape-font-specification:Times-Roman;writing-mode:lr-tb;fill:#262626;fill-opacity:1;fill-rule:nonzero;stroke:none"
             id="text2937"><tspan
               x="0 6"
               y="0"
               sodipodi:role="line"
               id="tspan2935">16</tspan></text>
        </g>
      </g>
      <g
         id="g2939">
        <g
           id="g2941"
           transform="matrix(6.0015184,0,0,6.0071961,3932.4947,4080.8135)">
          <text
             xml:space="preserve"
             transform="translate(-6,11)"
             style="font-variant:normal;font-weight:normal;font-size:12px;font-family:'Times New Roman';-inkscape-font-specification:Times-Roman;writing-mode:lr-tb;fill:#262626;fill-opacity:1;fill-rule:nonzero;stroke:none"
             id="text2945"><tspan
               x="0 6"
               y="0"
               sodipodi:role="line"
               id="tspan2943">18</tspan></text>
        </g>
      </g>
      <g
         id="g2947">
        <g
           id="g2949"
           transform="matrix(6.0015184,0,0,6.0071961,2438.1181,4166.5161)">
          <text
             xml:space="preserve"
             transform="translate(-15.5,11)"
             style="font-variant:normal;font-weight:normal;font-size:12px;font-family:'Times New Roman';-inkscape-font-specification:Times-Roman;writing-mode:lr-tb;fill:#262626;fill-opacity:1;fill-rule:nonzero;stroke:none"
             id="text2953"><tspan
               x="0 3.9960001 12.66 21.323999 26.652"
               y="0"
               sodipodi:role="line"
               id="tspan2951">[GHz]</tspan></text>
        </g>
      </g>
      <g
         id="g2975"
         transform="matrix(6.0015184,0,0,6.0071961,793.70062,2460.4724)">
        <path
           d="M 25,266 V 7"
           style="fill:none;stroke:#262626;stroke-width:1.33333;stroke-linecap:square;stroke-linejoin:round;stroke-miterlimit:10;stroke-dasharray:none;stroke-opacity:1"
           id="path2977" />
      </g>
      <g
         id="g2979"
         transform="matrix(6.0015184,0,0,6.0071961,793.70062,2460.4724)">
        <path
           d="m 25,266 h 4.98"
           style="fill:none;stroke:#262626;stroke-width:1.33333;stroke-linecap:square;stroke-linejoin:round;stroke-miterlimit:10;stroke-dasharray:none;stroke-opacity:1"
           id="path2981" />
      </g>
      <g
         id="g2983"
         transform="matrix(6.0015184,0,0,6.0071961,793.70062,2460.4724)">
        <path
           d="m 25,214.2 h 4.98"
           style="fill:none;stroke:#262626;stroke-width:1.33333;stroke-linecap:square;stroke-linejoin:round;stroke-miterlimit:10;stroke-dasharray:none;stroke-opacity:1"
           id="path2985" />
      </g>
      <g
         id="g2987"
         transform="matrix(6.0015184,0,0,6.0071961,793.70062,2460.4724)">
        <path
           d="m 25,162.39999 h 4.98"
           style="fill:none;stroke:#262626;stroke-width:1.33333;stroke-linecap:square;stroke-linejoin:round;stroke-miterlimit:10;stroke-dasharray:none;stroke-opacity:1"
           id="path2989" />
      </g>
      <g
         id="g2991"
         transform="matrix(6.0015184,0,0,6.0071961,793.70062,2460.4724)">
        <path
           d="m 25,110.59999 h 4.98"
           style="fill:none;stroke:#262626;stroke-width:1.33333;stroke-linecap:square;stroke-linejoin:round;stroke-miterlimit:10;stroke-dasharray:none;stroke-opacity:1"
           id="path2993" />
      </g>
      <g
         id="g2995"
         transform="matrix(6.0015184,0,0,6.0071961,793.70062,2460.4724)">
        <path
           d="m 25,58.799995 h 4.98"
           style="fill:none;stroke:#262626;stroke-width:1.33333;stroke-linecap:square;stroke-linejoin:round;stroke-miterlimit:10;stroke-dasharray:none;stroke-opacity:1"
           id="path2997" />
      </g>
      <g
         id="g2999"
         transform="matrix(6.0015184,0,0,6.0071961,793.70062,2460.4724)">
        <path
           d="m 25,7 h 4.98"
           style="fill:none;stroke:#262626;stroke-width:1.33333;stroke-linecap:square;stroke-linejoin:round;stroke-miterlimit:10;stroke-dasharray:none;stroke-opacity:1"
           id="path3001" />
      </g>
      <g
         id="g3003">
        <g
           id="g3005"
           transform="matrix(6.0015184,0,0,6.0071961,921.33291,4058.3866)">
          <text
             xml:space="preserve"
             transform="translate(-15,4)"
             style="font-variant:normal;font-weight:normal;font-size:12px;font-family:'Times New Roman';-inkscape-font-specification:Times-Roman;writing-mode:lr-tb;fill:#262626;fill-opacity:1;fill-rule:nonzero;stroke:none"
             id="text3009"><tspan
               x="0 6 9"
               y="0"
               sodipodi:role="line"
               id="tspan3007">3.2</tspan></text>
        </g>
      </g>
      <g
         id="g3011">
        <g
           id="g3013"
           transform="matrix(6.0015184,0,0,6.0071961,921.33291,3747.2138)">
          <text
             xml:space="preserve"
             transform="translate(-21,4)"
             style="font-variant:normal;font-weight:normal;font-size:12px;font-family:'Times New Roman';-inkscape-font-specification:Times-Roman;writing-mode:lr-tb;fill:#262626;fill-opacity:1;fill-rule:nonzero;stroke:none"
             id="text3017"><tspan
               x="0 6 9 15"
               y="0"
               sodipodi:role="line"
               id="tspan3015">3.25</tspan></text>
        </g>
      </g>
      <g
         id="g3019">
        <g
           id="g3021"
           transform="matrix(6.0015184,0,0,6.0071961,921.33291,3436.041)">
          <text
             xml:space="preserve"
             transform="translate(-15,4)"
             style="font-variant:normal;font-weight:normal;font-size:12px;font-family:'Times New Roman';-inkscape-font-specification:Times-Roman;writing-mode:lr-tb;fill:#262626;fill-opacity:1;fill-rule:nonzero;stroke:none"
             id="text3025"><tspan
               x="0 6 9"
               y="0"
               sodipodi:role="line"
               id="tspan3023">3.3</tspan></text>
        </g>
      </g>
      <g
         id="g3027">
        <g
           id="g3029"
           transform="matrix(6.0015184,0,0,6.0071961,921.33291,3124.8682)">
          <text
             xml:space="preserve"
             transform="translate(-21,4)"
             style="font-variant:normal;font-weight:normal;font-size:12px;font-family:'Times New Roman';-inkscape-font-specification:Times-Roman;writing-mode:lr-tb;fill:#262626;fill-opacity:1;fill-rule:nonzero;stroke:none"
             id="text3033"><tspan
               x="0 6 9 15"
               y="0"
               sodipodi:role="line"
               id="tspan3031">3.35</tspan></text>
        </g>
      </g>
      <g
         id="g3035">
        <g
           id="g3037"
           transform="matrix(6.0015184,0,0,6.0071961,921.33291,2813.6955)">
          <text
             xml:space="preserve"
             transform="translate(-15,4)"
             style="font-variant:normal;font-weight:normal;font-size:12px;font-family:'Times New Roman';-inkscape-font-specification:Times-Roman;writing-mode:lr-tb;fill:#262626;fill-opacity:1;fill-rule:nonzero;stroke:none"
             id="text3041"><tspan
               x="0 6 9"
               y="0"
               sodipodi:role="line"
               id="tspan3039">3.4</tspan></text>
        </g>
      </g>
      <g
         id="g3043">
        <g
           id="g3045"
           transform="matrix(6.0015184,0,0,6.0071961,921.33291,2502.5228)">
          <text
             xml:space="preserve"
             transform="translate(-21,4)"
             style="font-variant:normal;font-weight:normal;font-size:12px;font-family:'Times New Roman';-inkscape-font-specification:Times-Roman;writing-mode:lr-tb;fill:#262626;fill-opacity:1;fill-rule:nonzero;stroke:none"
             id="text3049"><tspan
               x="0 6 9 15"
               y="0"
               sodipodi:role="line"
               id="tspan3047">3.45</tspan></text>
        </g>
      </g>
      <g
         id="g3051"
         transform="matrix(6.0015184,0,0,6.0071961,793.70062,2460.4724)">
        <path
           d="m 33.846996,266.03088 0.388691,-12.09568 0.497723,-12.87247 0.497723,-10.73074 0.497722,-8.98604 0.497727,-7.56395 0.497722,-6.40531 0.497723,-5.45387 0.497722,-4.67007 0.497723,-4.01357 0.497727,-3.46384 0.497718,-2.99484 0.497727,-2.52951 0.497722,-2.16397 0.497723,-1.99904 0.497723,-1.54458 0.497726,-1.18023 0.497723,-1.16832 0.497722,-1.05311 0.497723,-0.83348 0.497723,-0.67029 0.497726,-0.53174 0.497723,-0.39238 0.497722,-0.23678 0.497723,-0.0631 0.497723,0.12918 0.497726,0.33317 0.497723,0.55982 0.497722,0.76863 0.497723,1.0341 0.497722,1.25765 0.497727,1.43684 0.497723,1.64928 0.497722,1.64572 0.497723,1.65909 0.497722,2.44804 0.497723,2.23386 0.497723,2.12222 0.497726,1.99777 0.497719,1.90926 0.497726,1.84617 0.497723,1.83203 0.497723,1.74451 0.497726,1.65854 0.497723,1.45032 0.497726,1.35565 0.497723,1.07083 0.497722,0.77643 0.497723,0.61346 0.497723,0.54764 0.497722,0.21954 0.497723,-0.084 0.497726,-0.23828 0.497723,-0.4673 0.497723,-0.67746 0.497722,-0.77142 0.497723,-0.83781 0.497722,-0.89635 0.497723,-0.92514 0.497723,-0.90534 0.497726,-0.86288 0.497719,-0.81964 0.497726,-0.68991 0.497727,-0.52883 0.497719,-0.39622 0.497726,-0.18282 0.497727,0.0164 0.497718,0.14495 0.497727,0.27748 0.497719,0.42847 0.497726,0.57655 0.497726,0.70891 0.497719,0.81723 0.497727,0.8936 0.497719,0.93537 0.497726,0.96449 0.497719,0.98952 0.497726,0.99612 0.497727,0.98367 0.497718,0.96502 0.497727,0.94177 0.497726,0.90658 0.497719,0.85836 0.497727,0.79544 0.497718,0.71733 0.497727,0.62541 0.497719,0.52026 0.497726,0.40458 0.497719,0.28122 0.497726,0.15182 0.497727,0.0205 0.497719,-0.11041 0.497726,-0.23772 0.497719,-0.35696 0.497726,-0.46628 0.497719,-0.56366 0.497727,-0.64442 0.497718,-0.71134 0.497727,-0.75808 0.497726,-0.78322 0.497727,-0.78363 0.497718,-0.7769 0.497727,-0.75992 0.497726,-0.70932 0.497719,-0.63376 0.497727,-0.53529 0.497718,-0.42101 0.497727,-0.29658 0.497719,-0.16851 0.497726,-0.0356 0.497719,0.0987 0.497726,0.23512 0.497719,0.36549 0.497727,0.47638 0.497726,0.5614 0.497727,0.64574 0.497718,0.6969 0.497727,0.76932 0.497719,0.85104 0.497726,0.83637 0.497726,0.81451 0.497719,0.77344 0.497727,0.71579 0.497719,0.63962 0.497726,0.55052 0.497719,0.44806 0.497726,0.33276 0.497719,0.20177 0.497726,0.0544 0.497719,-0.10064 0.497727,-0.22037 0.497719,-0.34782 0.497726,-0.47701 0.497726,-0.60016 0.497725,-0.70697 0.49772,-0.78955 0.49773,-0.84427 0.49772,-0.88121 0.49772,-0.89601 0.49773,-0.88946 0.49772,-0.85874 0.49772,-0.80894 0.49772,-0.73986 0.49773,-0.65037 0.49772,-0.59604 0.49772,-0.3708 0.49772,-0.29842 0.49773,-0.15756 0.49772,-0.01 0.49773,0.12456 0.49771,0.25082 0.49773,0.35152 0.49773,0.43429 0.49772,0.5046 0.49773,0.56259 0.49773,0.61142 0.49772,0.64532 0.49772,0.65915 0.49773,0.65337 0.49772,0.62692 0.49772,0.58517 0.49772,0.53087 0.49773,0.46685 0.49772,0.39308 0.49772,0.30993 0.49772,0.16033 0.49773,0.004 0.49772,-0.16523 0.49772,-0.30193 0.49772,-0.40958 0.49773,-0.50923 0.49773,-0.60199 0.49772,-0.68249 0.49773,-0.74974 0.49772,-0.80251 0.49772,-0.83716 0.49772,-0.85369 0.49773,-0.84368 0.49772,-0.78563 0.49772,-0.669 0.49772,-0.60057 0.49773,-0.53785 0.49772,-0.46479 0.49772,-0.37983 0.49772,-0.28813 0.49773,-0.19226 0.49772,-0.0998 0.49773,-0.0196 0.49771,0.0497 0.49773,0.12556 0.49772,0.20259 0.49773,0.2722 0.49772,0.33208 0.49773,0.37752 0.49773,0.4095 0.49771,0.42459 0.49772,0.42447 0.49773,0.40742 0.49773,0.37401 0.49772,0.32497 0.49773,0.2624 0.49771,0.18971 0.49773,0.1193 0.49772,0.0655 0.49773,0.002 0.49771,-0.0949 0.49773,-0.19478 0.49772,-0.29279 0.49773,-0.38493 0.49773,-0.46843 0.49772,-0.54016 0.49773,-0.59975 0.49773,-0.64576 0.49771,-0.6782 0.49772,-0.69371 0.49773,-0.69229 0.49773,-0.67494 0.49771,-0.68106 0.49772,-0.66797 0.49773,-0.61119 0.49773,-0.54355 0.49771,-0.46838 0.49772,-0.38443 0.49773,-0.29672 0.49773,-0.20569 0.49772,-0.11681 0.49771,-0.0305 0.49773,0.0515 0.49773,0.12514 0.49772,0.18866 0.49771,0.23909 0.49773,0.2774 0.49773,0.30007 0.49772,0.30653 0.49772,0.31044 0.49772,0.37587 0.49773,0.35959 0.49772,0.31535 0.49773,0.26105 0.49773,0.19904 0.49772,0.12854 0.49773,0.0517 0.49773,-0.0294 0.49771,-0.113 0.49772,-0.19493 0.49773,-0.27383 0.49773,-0.34766 0.49771,-0.41598 0.49773,-0.47359 0.49772,-0.52374 0.49773,-0.59099 0.49771,-0.63281 0.49773,-0.66158 0.49772,-0.66823 0.49773,-0.65725 0.49771,-0.63274 0.49773,-0.59477 0.49772,-0.5459 0.49773,-0.48785 0.49773,-0.42139 0.49771,-0.35025 0.49772,-0.27413 0.49773,-0.19737 0.49773,-0.12185 0.49771,-0.0492 0.49772,0.0211 0.49773,0.0902 0.49773,0.15586 0.49771,0.21412 0.49772,0.24678 0.49773,0.26908 0.49773,0.28091 0.49771,0.28195 0.49772,0.27321 0.49773,0.25354 0.49773,0.22365 0.49772,0.18446 0.49773,0.13565 0.49773,0.0809 0.49772,0.0194 0.49773,-0.0474 0.49771,-0.11928 0.49773,-0.19438 0.49772,-0.27314 0.49773,-0.34367 0.49771,-0.4059 0.49773,-0.45891 0.49772,-0.50432 0.49773,-0.53958 0.49771,-0.56459 0.49773,-0.57722 0.49772,-0.57852 0.49773,-0.56809 0.49773,-0.54715 0.49771,-0.51671 0.49773,-0.4758 0.49772,-0.42848 0.49773,-0.37471 0.49771,-0.31679 0.49773,-0.25532 0.49772,-0.19277 0.49773,-0.13076 0.49771,-0.0712 0.49773,-0.0142 0.49772,0.0377 0.49773,0.0837 0.49771,0.12184 0.49773,0.15306 0.49772,0.17465 0.49773,0.18727 0.49773,0.18988 0.49771,0.18215 0.49772,0.16569 0.49773,0.13922 0.49773,0.10497 0.49772,0.0625 0.49773,0.0171 0.49773,-0.0287 0.49772,-0.0817 0.49771,-0.14154 0.49773,-0.20163 0.49773,-0.26057 0.49772,-0.31629 0.49771,-0.36873 0.49773,-0.41307 0.49773,-0.45195 0.49772,-0.4823 0.49773,-0.50328 0.49771,-0.51703 0.49773,-0.52017 0.49772,-0.51388 0.49773,-0.49948 0.49771,-0.4766 0.49773,-0.44601 0.49772,-0.40799 0.49773,-0.36327 0.49771,-0.31415 0.49773,-0.26136 0.49772,-0.20676 0.49773,-0.1525 0.49771,-0.10028 0.49773,-0.0496 0.49773,-0.004 0.49772,0.0363 0.49771,0.0689 0.49773,0.0959 0.49773,0.11404 0.49772,0.12381 0.49773,0.12552 0.49771,0.11875 0.49773,0.1049 0.49772,0.0841 0.49773,0.0558 0.49773,0.0203 0.49772,-0.0192 0.49773,-0.0634 0.49772,-0.11052 0.49772,-0.15939 0.49772,-0.20812 0.49773,-0.25627 0.49773,-0.30237 0.49771,-0.34541 0.49772,-0.38329 0.49773,-0.41594 0.49773,-0.44226 0.49772,-0.46122 0.49771,-0.47254 0.49773,-0.47507 0.49773,-0.46925 0.49772,-0.45582 0.49773,-0.43485 0.49771,-0.4064 0.49774,-0.37203 0.49771,-0.33296 0.49773,-0.29088 0.49773,-0.24554 0.49772,-0.19957 0.49773,-0.1544 0.49771,-0.1113 0.49773,-0.0702 0.49772,-0.0333 0.49773,-0.001 0.49773,0.0249 0.49771,0.0448 0.49772,0.0591 0.49773,0.0665 0.49773,0.0668 0.49771,0.0603 0.49772,0.0481 0.49773,0.0294 0.49773,0.005 0.49772,-0.0245 0.49773,-0.0577 0.49773,-0.0947 0.49772,-0.13419 0.49771,-0.17566 0.49773,-0.2166 0.49773,-0.25694 0.49772,-0.29558 0.49773,-0.33107 0.49771,-0.36291 0.49773,-0.38874 0.49772,-0.40921 0.49773,-0.42343 0.49771,-0.43075 0.49773,-0.43128 0.49772,-0.42456 0.49773,-0.41188 0.49771,-0.39329 0.49773,-0.36841 0.49772,-0.34003 0.49773,-0.30769 0.49771,-0.27297 0.49773,-0.23617 0.49773,-0.1991 0.49772,-0.16255 0.49773,-0.12718 0.49771,-0.0947 0.49773,-0.0641 0.49772,-0.0383 0.49773,-0.0166 0.49771,-2.2e-4 0.49773,0.0116 0.49772,0.0174 0.49773,0.0176 0.49771,0.0114 0.49773,0.001 0.49772,-0.0152 0.49773,-0.0367 0.49773,-0.0619 0.49772,-0.0901 0.49773,-0.12144 0.49773,-0.15441 0.49772,-0.18863 0.49773,-0.22195 0.49772,-0.25446 0.4977,-0.28645 0.49773,-0.31319 0.49772,-0.33809 0.49773,-0.35833 0.49773,-0.37339 0.49772,-0.38359 0.49773,-0.38911 0.49773,-0.38873 0.49769,-0.38343 0.49773,-0.37202 0.49772,-0.35591 0.49772,-0.33647 0.49774,-0.31264 0.49771,-0.28546 0.49774,-0.25679 0.49771,-0.22643 0.49774,-0.19566 0.49768,-0.16522 0.49775,-0.13536 0.49771,-0.10828 0.49774,-0.0838 0.49771,-0.0624 0.49774,-0.0455 0.49771,-0.0325 0.49774,-0.0242 0.49772,-0.0214 0.49771,-0.0224 0.49774,-0.0284 0.49771,-0.0385 0.49774,-0.0533 0.49771,-0.0716 0.49774,-0.0926 0.49772,-0.11688 0.49774,-0.14221 0.49771,-0.16998 0.49771,-0.1969 0.49774,-0.22423 0.49771,-0.25049 0.49774,-0.27559 0.49772,-0.29808 0.49774,-0.31799 0.49771,-0.33425 0.49771,-0.34724 0.49771,-0.35463 0.49774,-0.35844 0.49771,-0.35736 0.49775,-0.35184 0.49771,-0.34186 0.49771,-0.3278 0.49774,-0.31032 0.49771,-0.28998 0.49774,-0.26761 0.49771,-0.24231 0.49774,-0.21715 0.49772,-0.19142 0.49774,-0.16665 0.49771,-0.14318 0.49774,-0.12124 0.49771,-0.10236 0.49771,-0.0868 0.49771,-0.0733 0.49775,-0.0639 0.49771,-0.058 0.49774,-0.0563 0.49771,-0.0584 0.49774,-0.0639 0.49771,-0.0729 0.49774,-0.0854 0.49769,-0.10155 0.49774,-0.11876 0.49771,-0.13872 0.49774,-0.16032 0.49771,-0.18315 0.49774,-0.20586 0.49771,-0.22873 0.49775,-0.25038 0.49768,-0.27133 0.49774,-0.28912 0.49771,-0.3042 0.49774,-0.31656 0.49771,-0.32588 0.49774,-0.33082 0.49771,-0.33212 0.49775,-0.32966 0.49771,-0.32335 0.49771,-0.31455 0.49771,-0.30111 0.49774,-0.28571 0.49771,-0.26813 0.49774,-0.24875 0.49772,-0.22841 0.49774,-0.20771 0.49771,-0.1872 0.49771,-0.16743 0.49771,-0.14813 0.49774,-0.13082 0.49771,-0.11584 0.49775,-0.10295 0.49771,-0.0932 0.49774,-0.0861 0.49771,-0.0822 0.49774,-0.0821 0.49768,-0.0852 0.49774,-0.0908 0.49771,-0.0996 0.49775,-0.11122 0.49771,-0.12532 0.49774,-0.1412 0.49771,-0.15882 0.49774,-0.17799 0.49768,-0.19756 0.49774,-0.21611 0.49772,-0.23506 0.49774,-0.25215 0.49771,-0.26897 0.49774,-0.28236 0.49771,-0.29439 0.49774,-0.30339 0.49771,-0.30928 0.49772,-0.31306 0.49771,-0.31258 0.49774,-0.3094 0.49771,-0.30354 0.49774,-0.29433 0.49771,-0.28322 0.49774,-0.26971 0.49772,-0.25487 0.49774,-0.23944 0.49771,-0.22104 0.49774,-0.2041 0.49771,-0.18679 0.49774,-0.17034 0.49771,-0.15558 0.49775,-0.14127 0.49771,-0.13019 0.49774,-0.12036 0.49768,-0.11438 0.49774,-0.1096 0.49771,-0.10771 0.49774,-0.10926 0.49772,-0.11274 0.49774,-0.11959 0.49771,-0.12774 0.49774,-0.1389 0.49768,-0.15183 0.49774,-0.16498 0.49771,-0.17984 0.49775,-0.19558 0.49771,-0.21102 0.49774,-0.22638 0.49771,-0.24115 0.49774,-0.25477 0.49771,-0.26659 0.49771,-0.27876 0.49771,-0.28748 0.49775,-0.29312 0.49771,-0.29634 0.49774,-0.29701 0.49771,-0.29519 0.49774,-0.2904 0.49771,-0.2834 0.49771,-0.27485 0.49772,-0.26334 0.49774,-0.25059 0.49771,-0.23685 0.49774,-0.22224 0.49771,-0.20731 0.49774,-0.19262 0.49771,-0.17833 0.49775,-0.16472 0.49768,-0.15345 0.49774,-0.14218 0.49771,-0.13332 0.49774,-0.12632 0.49771,-0.12203 0.49774,-0.11942 0.49772,-0.11918 0.49774,-0.12114 0.49768,-0.126 0.49774,-0.13166 0.49771,-0.13973 0.49774,-0.14936 0.49771,-0.16051 0.49774,-0.1728 0.49772,-0.18547 0.49774,-0.19868 0.49771,-0.21146 0.49771,-0.22661 0.49771,-0.2396 0.49774,-0.25119 0.49771,-0.26146 0.49775,-0.26918 0.49771,-0.27606 0.49774,-0.27981 0.49771,-0.2794 0.49771,-0.27798 0.49774,-0.27436 0.49771,-0.26938 0.49775,-0.26257 0.49771,-0.25448 0.49774,-0.24445 0.49771,-0.23338 0.49774,-0.22178 0.49771,-0.20948 0.49774,-0.19754 0.49772,-0.18512 0.49774,-0.17363 0.49771,-0.16297 0.49774,-0.15339 0.49771,-0.14521 0.49774,-0.13878 0.49771,-0.13413 0.49772,-0.13175 0.49771,-0.13039 0.49774,-0.1314 0.49771,-0.13457 0.49774,-0.13945 0.49771,-0.1463 0.49774,-0.15461 0.49772,-0.16495 0.49774,-0.17681 0.49768,-0.18923 0.49774,-0.20079 0.49771,-0.2126 0.49774,-0.22409 0.49771,-0.23549 0.49774,-0.24572 0.49772,-0.25466 0.49774,-0.26242 0.49768,-0.26871 0.49774,-0.27226 0.49771,-0.27489 0.49774,-0.27501 0.49771,-0.27345 0.49775,-0.27023 0.49771,-0.26465 0.49774,-0.2577 0.49771,-0.2492 0.49771,-0.24 0.49771,-0.22922 0.49774,-0.22083 0.49772,-0.20941 0.49774,-0.19779 0.49771,-0.1866 0.49774,-0.1764 0.49771,-0.16699 0.49771,-0.15983 0.49771,-0.15242 0.49775,-0.14756 0.49771,-0.14386 0.49774,-0.14229 0.49771,-0.14261 0.49774,-0.14422 0.49771,-0.14784 0.49774,-0.15309 0.49768,-0.16116 0.49775,-0.16945 0.49771,-0.17873 0.49774,-0.18857 0.49771,-0.19929 0.49774,-0.2099 0.49771,-0.22085 0.49774,-0.23117 0.49769,-0.24134 0.49774,-0.24966 0.49771,-0.2573 0.49774,-0.26348 0.49771,-0.26793 0.49774,-0.27096 0.49771,-0.2719 0.49775,-0.27108 0.49771,-0.26861 0.49771,-0.2646 0.49771,-0.25834 0.49774,-0.25097 0.49771,-0.24276 0.49774,-0.23337 0.49772,-0.22369 0.49774,-0.2134 0.49771,-0.2029 0.49774,-0.19281 0.49771,-0.18218 0.49774,-0.17331 0.49771,-0.16549 0.49775,-0.15935 0.49771,-0.15478 0.49774,-0.15126 0.49771,-0.1477 0.49771,-0.14743 0.49771,-0.14967 0.49774,-0.15421 0.49771,-0.1599 0.49775,-0.16644 0.49771,-0.17371 0.49774,-0.18217 0.49771,-0.19125 0.49774,-0.20142 0.49768,-0.21265 0.49774,-0.222984 0.49772,-0.233322 0.49774,-0.243508 0.49771,-0.252838 0.49774,-0.260513 0.49771,-0.27002 0.49774,-0.266281 0.49768,-0.270836 0.49775,-0.273292 0.49771,-0.274407 0.49774,-0.273262 0.49771,-0.270729 0.49774,-0.266189 0.49771,-0.260651 0.49774,-0.253822 0.49772,-0.245827 0.49771,-0.237755 0.49771,-0.228012 0.49774,-0.218613 0.49771,-0.20906 0.49774,-0.200005 0.49771,-0.191536 0.49775,-0.183662 0.49771,-0.177964 0.49771,-0.17369 0.49771,-0.164437 0.49774,-0.163688 0.49771,-0.161263 0.49774,-0.161026 0.49771,-0.162727 0.49775,-0.166756 0.49771,-0.172027 0.49774,-0.180047 0.49768,-0.186592 0.49774,-0.193267 0.49771,-0.204003 0.49774,-0.212395 0.49772,-0.222763 0.49774,-0.231208 0.49771,-0.240105 0.49774,-0.247711 0.49768,-0.253533 0.49774,-0.260719 0.49771,-0.26619 0.49775,-0.269973 0.49771,-0.272477 0.49774,-0.272674 0.49771,-0.271721 0.49774,-0.268753 0.49771,-0.264816 0.49771,-0.259796 0.49771,-0.252594 0.49775,-0.244729 0.49771,-0.235931 0.49774,-0.226578 0.49771,-0.216224 0.49774,-0.206185 0.49771,-0.196129 0.49774,-0.186843 0.49772,-0.177842 0.49774,-0.169952 0.49771,-0.163651 0.49774,-0.157943 0.49771,-0.153656 0.49774,-0.150048 0.49771,-0.148124 0.49775,-0.149117 0.49768,-0.151871 0.49774,-0.156044 0.49771,-0.161849 0.49774,-0.169167 0.49771,-0.177498 0.49774,-0.187042 0.49772,-0.197075 0.49774,-0.207314 0.49771,-0.218193 0.49771,-0.227798 0.49774,-0.237801 0.49771,-0.246757 0.49774,-0.254486 0.49772,-0.261032 0.49774,-0.2659 0.49771,-0.269219 0.49774,-0.270805 0.49768,-0.271057 0.49774,-0.269058 0.49771,-0.265663 0.49775,-0.260636 0.49771,-0.254211 0.49774,-0.246399 0.49771,-0.237694 0.49774,-0.228104 0.49768,-0.218704 0.49774,-0.208206 0.49771,-0.198143 0.49775,-0.188835 0.49771,-0.179741 0.49774,-0.172249 0.49771,-0.165634 0.49774,-0.160721 0.49771,-0.156997 0.49771,-0.155983 0.49772,-0.15609 0.49774,-0.158173 0.49771,-0.162262 0.49774,-0.168182 0.49771,-0.175926 0.49774,-0.185006 0.49771,-0.195053 0.49772,-0.207214 0.49771,-0.218521 0.49774,-0.230965 0.49771,-0.244018 0.49774,-0.256821 0.49771,-0.268074 0.49774,-0.26471 0.49772,-0.276367 0.49774,-0.286751 0.49768,-0.293655 0.49774,-0.294609 0.49771,-0.294136 0.49774,-0.290901 0.49771,-0.28566 0.49775,-0.278465 0.49771,-0.270325 0.49774,-0.261116 0.49768,-0.251289 0.49774,-0.23919 0.49771,-0.226516 0.49774,-0.219757 0.49771,-0.206078 0.49775,-0.192718 0.49771,-0.184716 0.49774,-0.178962 0.49771,-0.169228 0.49774,-0.161636 0.49771,-0.155777 0.49774,-0.152893 0.49772,-0.15149 0.49771,-0.16529 0.49771,-0.167145 0.49774,-0.175049 0.49771,-0.186485 0.49774,-0.199562 0.49771,-0.214119 0.49775,-0.229744 0.49771,-0.241722 0.49774,-0.246476 0.49771,-0.260322 0.49774,-0.276848 0.49771,-0.282501 0.49774,-0.295418 0.49772,-0.303749 0.49774,-0.30426 0.49771,-0.301819 0.49774,-0.303566 0.49765,-0.303177 0.49774,-0.29509 0.49771,-0.28717 0.49775,-0.27652 0.49771,-0.261253 0.49774,-0.246647 0.49771,-0.237091 0.49774,-0.224911 0.49771,-0.211434 0.49774,-0.195468 0.49771,-0.181221 0.49775,-0.170681 0.49771,-0.161877 0.49774,-0.152493 0.49771,-0.143924 0.49774,-0.13823 0.49771,-0.138088 0.49768,-0.141888 0.49772,-0.143261 0.49774,-0.145977 0.49771,-0.152633 0.49774,-0.164395 0.49771,-0.175571 0.49774,-0.185097 0.49771,-0.195904 0.49775,-0.208438 0.49771,-0.217701 0.49774,-0.221867 0.49771,-0.225639 0.49774,-0.229401 0.49771,-0.229958 0.49774,-0.227722 0.49772,-0.226993 0.49774,-0.226162 0.49765,-0.222454 0.49774,-0.218506 0.49771,-0.215492 0.49774,-0.209305 0.49771,-0.204407 0.49774,-0.198776 0.49772,-0.191689 0.49774,-0.182705 0.49771,-0.167282 0.49774,-0.158867 0.49771,-0.165321 0.49774,-0.182011 0.49771,-0.204811 0.49775,-0.22295 0.49771,-0.232132 0.49774,-0.227382 0.49771,-0.212605 0.49771,-0.224819 0.49771,-0.239437 0.49774,-0.248127 0.49772,-0.249661 0.49774,-0.245269 0.49771,-0.258534 0.49774,-0.275101 0.49771,-0.281486 0.49774,-0.281475 0.49771,-0.290474 0.49775,-0.304104 0.49771,-0.30505 0.49774,-0.299301 0.49771,-0.297638 0.49774,-0.290737 0.49771,-0.271099 0.49774,-0.244747 0.49765,-0.21122 0.49775,-0.163914 0.49771,-0.106846 0.49771,-0.04236 0.49774,0.02703 0.49774,0.09831 0.49774,0.169181 0.49768,0.238667 0.49775,0.308239 0.49774,0.38023 0.49774,0.458298 0.49768,0.548652 0.49774,0.658753 0.49774,0.804252 0.49775,1.004139 0.49768,1.271271 0.49774,1.558952 0.49768,1.778073 0.49774,1.920021 0.49774,2.00309 0.49768,2.029361 0.49774,1.989678 0.49775,1.880485 0.49768,1.708496 0.49774,1.490868 L 523,73.317642"
           style="fill:none;stroke:#0072bd;stroke-width:1.33333;stroke-linecap:butt;stroke-linejoin:round;stroke-miterlimit:10;stroke-dasharray:none;stroke-opacity:1"
           id="path3053" />
      </g>
      <g
         id="g3055"
         transform="matrix(6.0015184,0,0,6.0071961,793.70062,2460.4724)">
        <path
           d="M 26.186148,6.9691224 26.196754,266.03088"
           style="fill:none;stroke:#d95319;stroke-width:1.33333;stroke-linecap:butt;stroke-linejoin:round;stroke-miterlimit:10;stroke-dasharray:none;stroke-opacity:1"
           id="path3057" />
      </g>
      <g
         id="g3059"
         transform="matrix(6.0015184,0,0,6.0071961,793.70062,2460.4724)">
        <path
           d="M 32.319267,266.03088 32.345287,6.9691224"
           style="fill:none;stroke:#d95319;stroke-width:1.33333;stroke-linecap:butt;stroke-linejoin:round;stroke-miterlimit:10;stroke-dasharray:none;stroke-opacity:1"
           id="path3061" />
      </g>
      <g
         id="g3063"
         transform="matrix(6.0015184,0,0,6.0071961,793.70062,2460.4724)">
        <path
           d="m 34.652897,6.9691224 0.0152,259.0617576"
           style="fill:none;stroke:#d95319;stroke-width:1.33333;stroke-linecap:butt;stroke-linejoin:round;stroke-miterlimit:10;stroke-dasharray:none;stroke-opacity:1"
           id="path3065" />
      </g>
      <g
         id="g3067"
         transform="matrix(6.0015184,0,0,6.0071961,793.70062,2460.4724)">
        <path
           d="M 37.555264,266.03088 37.719749,135.82541 37.74947,6.9691224"
           style="fill:none;stroke:#d95319;stroke-width:1.33333;stroke-linecap:butt;stroke-linejoin:round;stroke-miterlimit:10;stroke-dasharray:none;stroke-opacity:1"
           id="path3069" />
      </g>
      <g
         id="g3071"
         transform="matrix(6.0015184,0,0,6.0071961,793.70062,2460.4724)">
        <path
           d="M 38.459145,6.9691224 38.490002,266.03088"
           style="fill:none;stroke:#d95319;stroke-width:1.33333;stroke-linecap:butt;stroke-linejoin:round;stroke-miterlimit:10;stroke-dasharray:none;stroke-opacity:1"
           id="path3073" />
      </g>
      <g
         id="g3075"
         transform="matrix(6.0015184,0,0,6.0071961,793.70062,2460.4724)">
        <path
           d="m 54.209774,266.03088 0.432568,-36.76283 0.497726,13.6577 0.497723,20.78613 0.185516,2.319"
           style="fill:none;stroke:#d95319;stroke-width:1.33333;stroke-linecap:butt;stroke-linejoin:round;stroke-miterlimit:10;stroke-dasharray:none;stroke-opacity:1"
           id="path3077" />
      </g>
      <g
         id="g3079"
         transform="matrix(6.0015184,0,0,6.0071961,793.70062,2460.4724)">
        <path
           d="m 56.258907,266.03088 0.374333,-11.83972 0.497722,-33.43478 0.497723,-33.21466 0.497723,-17.1232 0.497722,-4.38355 0.497723,-12.23246 0.497726,-48.48625 0.424324,-98.3471376"
           style="fill:none;stroke:#d95319;stroke-width:1.33333;stroke-linecap:butt;stroke-linejoin:round;stroke-miterlimit:10;stroke-dasharray:none;stroke-opacity:1"
           id="path3081" />
      </g>
      <g
         id="g3083"
         transform="matrix(6.0015184,0,0,6.0071961,793.70062,2460.4724)">
        <path
           d="M 61.978287,6.9691224 62.03101,266.03088"
           style="fill:none;stroke:#d95319;stroke-width:1.33333;stroke-linecap:butt;stroke-linejoin:round;stroke-miterlimit:10;stroke-dasharray:none;stroke-opacity:1"
           id="path3085" />
      </g>
      <g
         id="g3087"
         transform="matrix(6.0015184,0,0,6.0071961,793.70062,2460.4724)">
        <path
           d="m 63.864376,266.03088 0.234707,-33.1773 0.497726,-26.78798 0.497727,3.98788 0.497719,17.31433 0.497726,12.56873 0.497727,0.05 0.497718,-13.20857 0.497727,-20.65183 0.497719,-17.54588 0.497726,-7.43878 0.497726,-1.00647 0.497719,-7.97421 0.497727,-36.6404 0.497719,-92.887309 0.103744,-35.6639986"
           style="fill:none;stroke:#d95319;stroke-width:1.33333;stroke-linecap:butt;stroke-linejoin:round;stroke-miterlimit:10;stroke-dasharray:none;stroke-opacity:1"
           id="path3089" />
      </g>
      <g
         id="g3091"
         transform="matrix(6.0015184,0,0,6.0071961,793.70062,2460.4724)">
        <path
           d="M 71.875153,6.9691224 71.972427,266.03088"
           style="fill:none;stroke:#d95319;stroke-width:1.33333;stroke-linecap:butt;stroke-linejoin:round;stroke-miterlimit:10;stroke-dasharray:none;stroke-opacity:1"
           id="path3093" />
      </g>
      <g
         id="g3095"
         transform="matrix(6.0015184,0,0,6.0071961,793.70062,2460.4724)">
        <path
           d="m 73.477219,266.03088 0.07861,-11.1907 0.497726,-33.74159 0.497719,-16.06145 0.497727,-1.36763 0.497718,8.81523 0.497727,12.49593 0.497719,7.43274 0.497726,-1.99639 0.497719,-9.71898 0.497726,-12.90881 0.497727,-9.53401 0.497719,-2.6722 0.497726,0.79462 0.497719,-4.89874 0.497726,-24.08541 0.497719,-66.32434 0.248482,-94.1000276"
           style="fill:none;stroke:#d95319;stroke-width:1.33333;stroke-linecap:butt;stroke-linejoin:round;stroke-miterlimit:10;stroke-dasharray:none;stroke-opacity:1"
           id="path3097" />
      </g>
      <g
         id="g3099"
         transform="matrix(6.0015184,0,0,6.0071961,793.70062,2460.4724)">
        <path
           d="M 81.556831,6.9691224 81.659561,266.03088"
           style="fill:none;stroke:#d95319;stroke-width:1.33333;stroke-linecap:butt;stroke-linejoin:round;stroke-miterlimit:10;stroke-dasharray:none;stroke-opacity:1"
           id="path3101" />
      </g>
      <g
         id="g3103"
         transform="matrix(6.0015184,0,0,6.0071961,793.70062,2460.4724)">
        <path
           d="m 82.97197,266.03088 0.0406,-7.34475 0.497727,-29.57251 0.497718,-13.73543 0.497727,-8.23441 0.497726,-2.48744 0.497719,4.08496 0.497727,6.51711 0.497718,8.03222 0.497727,4.45795 0.497719,-2.11934 0.497726,-7.21577 0.497719,-8.16994 0.497726,-4.66579 0.497719,0.64907 0.497727,3.2162 0.497726,-0.0607 0.497727,-8.29374 0.497718,-10.86164 0.497727,27.77448 0.497719,19.16537 0.497726,-10.81414 0.497726,-8.85122 0.497719,-5.06886 0.497727,-3.3856 0.497719,-2.24381 0.497726,0.36165 0.497719,4.03278 0.497726,4.20456 0.497719,4.93502 0.497726,2.48095 0.497719,-2.09064 0.497727,-5.43895 0.497719,-5.34538 0.497726,-1.97623 0.497726,2.22409 0.497728,4.34766 0.49772,3.0791 0.49773,0.0244 0.49772,-0.42839 0.49772,-0.14829 0.49773,-2.88727 0.49772,-3.42155 0.49772,-1.72611 0.49772,-0.58224 0.49773,-0.48059 0.49772,-0.39679 0.49772,0.74072 0.49772,2.56065 0.49773,2.84829 0.49772,2.86546 0.49773,1.19966 0.49771,-1.91757 0.49773,-4.2022 0.49773,-3.76635 0.49772,-0.92752 0.49773,2.37875 0.49773,4.04942 0.49772,2.96681 0.49772,0.12719 0.49773,-2.51664 0.49772,-3.80354 0.49772,-3.39451 0.49772,-1.62848 0.49773,0.0891 0.49772,0.79961 0.49772,0.53752 0.49772,0.14496 0.49773,0.47679 0.49772,1.57425 0.49772,1.70576 0.49772,1.60038 0.49773,0.48398 0.49773,-1.75066 0.49772,-3.286 0.49773,-2.74842 0.49772,-0.47883 0.49772,2.05457 0.49772,3.25732 0.49773,2.24715 0.49772,-0.32664 0.49772,-2.82048 0.49772,-3.73566 0.49773,-2.80911 0.49772,-0.91343 0.49772,0.72442 0.49772,1.29681 0.49773,0.79098 0.49772,0.27871 0.49773,0.17013 0.49771,0.87197 0.49773,1.02015 0.49772,0.80545 0.49773,0.0214 0.49772,-1.54691 0.49773,-2.49118 0.49773,-1.93875 0.49771,-0.16718 0.49772,1.69188 0.49773,2.48131 0.49773,1.55772 0.49772,-0.61654 0.49773,-2.60169 0.49771,-3.15504 0.49773,-2.26532 0.49772,-0.52649 0.49773,0.93262 0.49771,1.38977 0.49773,0.90262 0.49772,0.2666 0.49773,-0.0293 0.49773,0.54336 0.49772,0.56928 0.49773,-0.009 0.49773,-0.17597 0.49771,-1.20569 0.49772,-1.79574 0.49773,-1.24973 0.49773,0.11727 0.49771,1.42697 0.49772,1.83114 0.49773,0.92577 0.49773,-0.84735 0.49771,-2.36327 0.49772,-2.65059 0.49773,-1.65644 0.49773,-0.19384 0.49772,1.05097 0.49771,1.41983 0.49773,0.8663 0.49773,0.16055 0.49772,-0.1299 0.49771,0.20232 0.49773,0.1741 0.49773,-0.52418 0.49772,-0.46372 0.49772,-0.86468 0.49772,-1.15144 0.49773,-0.66929 0.49772,0.35499 0.49773,1.21064 0.49773,1.33083 0.49772,0.44147 0.49773,-0.9862 0.49773,-2.07669 0.49771,-2.124 0.49772,-1.13729 0.49773,0.0797 0.49773,1.02692 0.49771,1.26863 0.49773,0.79895 0.49772,0.0979 0.49773,-0.29995 0.49771,-0.13945 0.49773,-0.15664 0.49772,-0.60668 0.49773,-0.5093 0.49771,-0.61712 0.49773,-0.66056 0.49772,-0.25454 0.49773,0.44018 0.49773,0.94664 0.49771,0.83091 0.49772,0.019 0.49773,-1.06491 0.49773,-1.79623 0.49771,-1.6975 0.49772,-0.81645 0.49773,0.31774 0.49773,1.10781 0.49771,1.2036 0.49772,0.69274 0.49773,-0.0439 0.49773,-0.47446 0.49771,-0.41212 0.49772,-0.29065 0.49773,-0.55098 0.49773,-0.29875 0.49772,-0.43739 0.49773,-0.39283 0.49773,-0.0228 0.49772,0.46169 0.49773,0.71519 0.49771,0.4594 0.49773,-0.28754 0.49772,-1.14244 0.49773,-1.61281 0.49771,-1.34962 0.49773,-0.47327 0.49772,0.49613 0.49773,1.12559 0.49771,1.05423 0.49773,0.42247 0.49772,-0.22641 0.49773,-0.62683 0.49773,-0.62382 0.49771,-0.38244 0.49773,-0.4875 0.49772,-0.26166 0.49773,-0.19192 0.49771,-0.0994 0.49773,0.15153 0.49772,0.4327 0.49773,0.48701 0.49771,0.1441 0.49773,-0.5142 0.49772,-1.15219 0.49773,-1.38199 0.49771,-1.00989 0.49773,-0.1873 0.49772,0.74824 0.49773,0.82251 0.49773,0.80593 0.49771,0.26327 0.49772,-0.35281 0.49773,-0.77104 0.49773,-0.86806 0.49772,-0.65765 0.49773,-0.27684 0.49773,-0.0966 0.49772,0.003 0.49771,0.10985 0.49773,0.25484 0.49773,0.35399 0.49772,0.25837 0.49771,-0.11676 0.49773,-0.66678 0.49773,-1.10626 0.49772,-1.14868 0.49773,-0.70271 0.49771,0.0177 0.49773,0.63959 0.49772,0.88062 0.49773,0.62324 0.49771,0.11934 0.49773,-0.5675 0.49772,-0.92214 0.49773,-0.95952 0.49771,-0.57608 0.49773,-0.19121 0.49772,0.0276 0.49773,0.14255 0.49771,0.23164 0.49773,0.28877 0.49773,0.25147 0.49772,0.0392 0.49771,-0.34683 0.49773,-0.78107 0.49773,-1.03137 0.49772,-0.9162 0.49773,-0.44513 0.49771,0.2061 0.49773,0.71169 0.49772,0.82699 0.49773,0.50953 0.49773,-0.21772 0.49772,-0.73881 0.49773,-1.04427 0.49772,-0.99077 0.49772,-0.35644 0.49772,-0.1223 0.49773,0.10788 0.49773,0.23758 0.49771,0.27231 0.49772,0.23237 0.49773,0.0959 0.49773,-0.16325 0.49772,-0.50792 0.49771,-0.81897 0.49773,-0.91859 0.49773,-0.70122 0.49772,-0.20439 0.49773,0.36346 0.49771,0.72968 0.49774,0.67147 0.49771,0.21196 0.49773,-0.37692 0.49773,-0.91496 0.49772,-1.05115 0.49773,-0.93245 0.49771,-0.27798 0.49773,0.0129 0.49772,0.23068 0.49773,0.32092 0.49773,0.2861 0.49771,0.15567 0.49772,-0.0526 0.49773,-0.33135 0.49773,-0.62126 0.49771,-0.8206 0.49772,-0.80354 0.49773,-0.51639 0.49773,-0.0337 0.49772,0.44783 0.49773,0.67204 0.49773,0.50855 0.49772,0.0394 0.49771,-0.67018 0.49773,-0.97048 0.49773,-1.00346 0.49772,-0.73636 0.49773,-0.34113 0.49771,0.11046 0.49773,0.32663 0.49772,0.36751 0.49773,0.25671 0.49771,0.0569 0.49773,-0.19215 0.49772,-0.45932 0.49773,-0.68459 0.49771,-0.7807 0.49773,-0.66204 0.49772,-0.3228 0.49773,0.11994 0.49771,0.46642 0.49773,0.60123 0.49773,0.31584 0.49772,-0.31186 0.49773,-0.74625 0.49771,-0.93091 0.49773,-0.86761 0.49772,-0.57869 0.49773,-0.17113 0.49771,0.13683 0.49773,0.3322 0.49772,0.33619 0.49773,0.18213 0.49771,-0.0565 0.49773,-0.31962 0.49772,-0.55484 0.49773,-0.72357 0.49773,-0.716 0.49772,-0.50545 0.49773,-0.13196 0.49773,0.2948 0.49772,0.53109 0.49773,0.44383 0.49772,0.0539 0.4977,-0.44251 0.49773,-0.81505 0.49772,-0.92807 0.49773,-0.75366 0.49773,-0.40129 0.49772,-0.052 0.49773,0.27706 0.49773,0.32828 0.49769,0.25544 0.49773,0.0625 0.49772,-0.19592 0.49772,-0.43839 0.49774,-0.62275 0.49771,-0.69815 0.49774,-0.6232 0.49771,-0.3649 0.49774,0.034 0.49768,0.359 0.49775,0.52257 0.49771,0.32161 0.49774,-0.11638 0.49771,-0.59408 0.49774,-0.90053 0.49771,-0.85869 0.49774,-0.61163 0.49772,-0.22681 0.49771,0.14662 0.49774,0.31273 0.49771,0.30905 0.49774,0.14347 0.49771,-0.064 0.49774,-0.32898 0.49772,-0.5377 0.49774,-0.64502 0.49771,-0.67177 0.49771,-0.51469 0.49774,-0.21361 0.49771,0.18246 0.49774,0.48938 0.49772,0.45772 0.49774,0.13162 0.49771,-0.33824 0.49771,-0.7413 0.49771,-0.89766 0.49774,-0.74317 0.49771,-0.44888 0.49775,-0.077 0.49771,0.22039 0.49771,0.3461 0.49774,0.25606 0.49771,-0.003 0.49774,-0.17318 0.49771,-0.40776 0.49774,-0.59246 0.49772,-0.66228 0.49774,-0.61118 0.49771,-0.37216 0.49774,-0.0312 0.49771,0.32861 0.49771,0.49311 0.49771,0.37225 0.49775,-0.007 0.49771,-0.4805 0.49774,-0.82614 0.49771,-0.92859 0.49774,-0.65807 0.49771,-0.31906 0.49774,0.0897 0.49769,0.31758 0.49774,0.34779 0.49771,0.18033 0.49774,-0.10278 0.49771,-0.3273 0.49774,-0.5053 0.49771,-0.62027 0.49775,-0.60687 0.49768,-0.48648 0.49774,-0.21594 0.49771,0.10368 0.49774,0.37483 0.49771,0.43767 0.49774,0.23297 0.49771,-0.17213 0.49775,-0.60311 0.49771,-0.86921 0.49771,-0.85826 0.49771,-0.60665 0.49774,-0.14569 0.49771,0.21347 0.49774,0.39856 0.49772,0.33649 0.49774,0.0805 0.49771,-0.22635 0.49771,-0.46942 0.49771,-0.59863 0.49774,-0.61908 0.49771,-0.53539 0.49775,-0.34766 0.49771,-0.0536 0.49774,0.22023 0.49771,0.38538 0.49774,0.3399 0.49768,0.0579 0.49774,-0.35193 0.49771,-0.72601 0.49775,-0.87146 0.49771,-0.76381 0.49774,-0.46707 0.49771,-0.007 0.49774,0.31604 0.49768,0.40193 0.49774,0.2582 0.49772,-0.025 0.49774,-0.32512 0.49771,-0.55272 0.49774,-0.64619 0.49771,-0.60483 0.49774,-0.4522 0.49771,-0.20813 0.49772,0.0918 0.49771,0.34265 0.49774,0.35317 0.49771,0.17364 0.49774,-0.12813 0.49771,-0.48991 0.49774,-0.84302 0.49772,-0.82912 0.49774,-0.63584 0.49771,-0.30248 0.49774,0.0702 0.49771,0.37872 0.49774,0.35076 0.49771,0.1521 0.49775,-0.13018 0.49771,-0.42195 0.49774,-0.59375 0.49768,-0.64965 0.49774,-0.57676 0.49771,-0.37921 0.49774,-0.045 0.49772,0.22621 0.49774,0.34526 0.49771,0.26929 0.49774,0.0206 0.49768,-0.31242 0.49774,-0.55502 0.49771,-0.92177 0.49775,-0.75298 0.49771,-0.48398 0.49774,-0.12832 0.49771,0.18901 0.49774,0.36963 0.49771,0.28171 0.49771,-0.0255 0.49771,-0.20807 0.49775,-0.50379 0.49771,-0.6404 0.49774,-0.64771 0.49771,-0.50431 0.49774,-0.22834 0.49771,0.0705 0.49771,0.26792 0.49772,0.29701 0.49774,0.1758 0.49771,-0.1304 0.49774,-0.43804 0.49771,-0.62879 0.49774,-0.85145 0.49771,-0.67167 0.49775,-0.31641 0.49768,0.036 0.49774,0.27768 0.49771,0.36161 0.49774,0.23542 0.49771,-0.15219 0.49774,-0.42093 0.49772,-0.58659 0.49774,-0.6759 0.49768,-0.61039 0.49774,-0.37863 0.49771,-0.074 0.49774,0.19971 0.49771,0.33281 0.49774,0.26983 0.49772,0.0382 0.49774,-0.2687 0.49771,-0.54787 0.49771,-0.84576 0.49771,-0.74695 0.49774,-0.49882 0.49771,-0.16106 0.49775,0.15652 0.49771,0.35053 0.49774,0.34041 0.49771,0.13073 0.49771,-0.30284 0.49774,-0.5377 0.49771,-0.6594 0.49775,-0.67171 0.49771,-0.52426 0.49774,-0.26251 0.49771,0.0619 0.49774,0.2742 0.49771,0.31287 0.49774,0.18363 0.49772,-0.0855 0.49774,-0.50882 0.49771,-0.71573 0.49774,-0.78017 0.49771,-0.65303 0.49774,-0.38782 0.49771,0.0268 0.49772,0.27809 0.49771,0.37465 0.49774,0.28743 0.49771,-0.0848 0.49774,-0.41276 0.49771,-0.6242 0.49774,-0.67555 0.49772,-0.6221 0.49774,-0.41616 0.49768,-0.12156 0.49774,0.15561 0.49771,0.28906 0.49774,0.23466 0.49771,0.0164 0.49774,-0.28999 0.49772,-0.57295 0.49774,-0.73908 0.49768,-0.72847 0.49774,-0.53934 0.49771,-0.18825 0.49774,0.13948 0.49771,0.33865 0.49775,0.34842 0.49771,0.13816 0.49774,-0.26925 0.49771,-0.5293 0.49771,-0.66927 0.49771,-0.67855 0.49774,-0.53375 0.49772,-0.27955 0.49774,0.0157 0.49771,0.2167 0.49774,0.25112 0.49771,0.1244 0.49771,-0.10939 0.49771,-0.39799 0.49775,-0.63059 0.49771,-0.72262 0.49774,-0.63467 0.49771,-0.3726 0.49774,-0.0328 0.49771,0.24489 0.49774,0.36433 0.49768,0.26364 0.49775,-0.0276 0.49771,-0.37822 0.49774,-0.60339 0.49771,-0.68043 0.49774,-0.60437 0.49771,-0.40861 0.49774,-0.16017 0.49769,0.0588 0.49774,0.23283 0.49771,0.19186 0.49774,0.007 0.49771,-0.23576 0.49774,-0.47559 0.49771,-0.61819 0.49775,-0.705 0.49771,-0.53535 0.49771,-0.2062 0.49771,0.10248 0.49774,0.31771 0.49771,0.3351 0.49774,0.1516 0.49772,-0.15924 0.49774,-0.45047 0.49771,-0.60836 0.49774,-0.61641 0.49771,-0.4858 0.49774,-0.27047 0.49771,-0.0389 0.49775,0.12845 0.49771,0.17315 0.49774,0.0807 0.49771,-0.1114 0.49771,-0.34595 0.49771,-0.54606 0.49774,-0.64332 0.49771,-0.60407 0.49775,-0.43235 0.49771,-0.13293 0.49774,0.18001 0.49771,0.31208 0.49774,0.24257 0.49768,0.0247 0.49774,-0.25509 0.49772,-0.49136 0.49774,-0.574553 0.49771,-0.539635 0.49774,-0.37912 0.49771,-0.172821 0.49774,0.01394 0.49768,0.113655 0.49775,0.09625 0.49771,-0.03368 0.49774,-0.22728 0.49771,-0.424858 0.49774,-0.559517 0.49771,-0.578522 0.49774,-0.529373 0.49772,-0.32708 0.49771,-0.06991 0.49771,0.142257 0.49774,0.222336 0.49771,0.133614 0.49774,-0.09371 0.49771,-0.334343 0.49775,-0.486397 0.49771,-0.527115 0.49771,-0.44638 0.49771,-0.29123 0.49774,-0.119705 0.49771,0.0096 0.49774,0.05358 0.49771,-6.94e-4 0.49775,-0.131127 0.49771,-0.296028 0.49774,-0.456138 0.49768,-0.5514 0.49774,-0.549812 0.49771,-0.459747 0.49774,-0.271424 0.49772,-0.06957 0.49774,0.12764 0.49771,0.202553 0.49774,0.04516 0.49768,-0.174034 0.49774,-0.357117 0.49771,-0.460579 0.49775,-0.461059 0.49771,-0.382714 0.49774,-0.249763 0.49771,-0.1269 0.49774,-0.0527 0.49771,-0.04755 0.49771,-0.101135 0.49771,-0.202088 0.49775,-0.348442 0.49771,-0.415909 0.49774,-0.534309 0.49771,-0.532921 0.49774,-0.452431 0.49771,-0.320327 0.49774,-0.01584 0.49772,0.270805 0.49774,0.155884 0.49771,-0.02505 0.49774,-0.202835 0.49771,-0.342384 0.49774,-0.412079 0.49771,-0.410843 0.49775,-0.357918 0.49768,-0.286491 0.49774,-0.22142 0.49771,-0.183945 0.49774,-0.182488 0.49771,-0.214195 0.49774,-0.274757 0.49772,-0.35363 0.49774,-0.44735 0.49771,-0.526977 0.49771,-0.577416 0.49774,-0.600136 0.49771,-0.207496 0.49774,0.324653 0.49772,0.189957 0.49774,0.0463 0.49771,-0.09785 0.49774,-0.222145 0.49768,-0.335442 0.49774,-0.406494 0.49771,-0.43367 0.49775,-0.429863 0.49771,-0.413742 0.49774,-0.392609 0.49771,-0.367027 0.49774,-0.337341 0.49768,-0.320595 0.49774,-0.349167 0.49771,-0.381897 0.49775,-0.471878 0.49771,-0.631012 0.49774,-0.840103 0.49771,-0.180512 0.49774,0.353432 0.49771,0.133537 0.49771,0.0196 0.49772,-0.07238 0.49774,-0.154594 0.49771,-0.248192 0.49774,-0.353211 0.49771,-0.454544 0.49774,-0.544891 0.49771,-0.617424 0.49772,-0.655128 0.49771,-0.638375 0.49774,-0.564934 0.49771,-0.465354 0.49774,-0.381012 0.49771,-0.353821 0.49774,-0.431832 0.49772,-0.657951 0.49774,-1.251778 0.49768,0.616585 0.49774,0.391449 0.49771,0.06129 0.49774,-0.05626 0.49771,-0.134613 0.49775,-0.114899 0.49771,-0.131141 0.49774,-0.215729 0.49768,-0.375939 0.49774,-0.575973 0.49771,-0.769104 0.49774,-0.896782 0.49771,-0.923897 0.49775,-0.836037 0.49771,-0.66896 0.49774,-0.495499 0.49771,-0.408973 0.49774,-0.519864 0.49771,-0.896755 0.49774,-1.015621 0.49772,1.413773 0.49771,0.481701 0.49771,0.06041 0.49774,-0.06448 0.49771,0.05865 0.49774,-0.10859 0.49771,0.01851 0.49775,-0.07478 0.49771,-0.295338 0.49774,-0.581749 0.49771,-0.855598 0.49774,-1.055207 0.49771,-1.134079 0.49774,-1.104126 0.49772,-0.961746 0.49774,-0.693645 0.49771,-0.682125 0.49774,-0.83255 0.49765,-1.705609 0.49774,0.769997 0.49771,1.440731 0.49775,0.607239 0.49771,0.145141 0.49774,0.0042 0.49771,0.08687 0.49774,0.165306 0.49771,0.09766 0.49774,-0.09432 0.49771,-0.361179 0.49775,-0.658322 0.49771,-0.978973 0.49774,-1.258335 0.49771,-1.41708 0.49774,-1.417511 0.49771,-1.282494 0.49768,-1.099991 0.49772,-1.032283 0.49774,-1.390187 0.49771,-1.581135 0.49774,2.348153 0.49771,1.351745 0.49774,0.721047 0.49771,0.351684 0.49775,0.211972 0.49771,0.119827 0.49774,-0.08867 0.49771,-0.298008 0.49774,-0.410732 0.49771,-0.516296 0.49774,-0.723282 0.49772,-1.036282 0.49774,-1.382126 0.49765,-1.66019 0.49774,-1.798806 0.49771,-1.806369 0.49774,-1.775063 0.49771,-1.919788 0.49774,-2.698494 0.49772,1.750423 0.49774,1.573353 0.49771,0.997936 0.49774,0.641739 0.49771,0.426865 0.49774,0.112095 0.49771,-0.526333 0.49775,-1.226963 0.49771,-1.580071 0.49774,-1.527565 0.49771,-1.290491 0.49771,-1.124197 0.49771,-1.159967 0.49774,-1.375675 0.49772,-1.634503 0.49774,-1.822563 0.49771,-1.946203 0.49774,-2.178355 0.49771,-2.768116 0.49774,0.11941 0.49771,0.702721 0.49775,0.207233 0.49771,0.05354 0.49774,0.007 0.49771,-0.375443 0.49774,-1.443525 0.49771,-2.819462 0.49774,-3.7130518 0.37012,-2.7292008"
           style="fill:none;stroke:#d95319;stroke-width:1.33333;stroke-linecap:butt;stroke-linejoin:round;stroke-miterlimit:10;stroke-dasharray:none;stroke-opacity:1"
           id="path3105" />
      </g>
      <g
         id="g3107"
         transform="matrix(6.0015184,0,0,6.0071961,793.70062,2460.4724)">
        <path
           d="m 31.067417,266.03088 0.181931,-18.92509 0.497722,-42.60947 0.497723,-34.34082 0.497723,-26.95918 0.497722,-20.43504 0.497723,-14.72782 0.497726,-9.784231 0.497723,-5.551208 0.497723,-1.972092 0.497722,1.007073 0.497727,3.440521 0.497722,5.372837 0.497723,6.85472 0.497722,7.92737 0.497723,8.63707 0.497727,9.02082 0.497718,9.12087 0.497727,8.97977 0.497722,8.63276 0.497723,8.1212 0.497723,7.48232 0.497726,6.75499 0.497723,5.97252 0.497722,5.16226 0.497723,4.35452 0.497723,3.5715 0.497726,2.82843 0.497723,2.13527 0.497722,1.50217 0.497723,0.93339 0.497723,0.42605 0.497726,-0.0175 0.497723,-0.40135 0.497722,-0.72596 0.497723,-0.99407 0.497722,-1.20594 0.497727,-1.36682 0.497723,-1.47198 0.497722,-1.526 0.497723,-1.53058 0.497722,-1.48574 0.497723,-1.3955 0.497723,-1.26534 0.497726,-1.09856 0.497719,-0.90257 0.497726,-0.68263 0.497723,-0.44652 0.497723,-0.20271 0.497726,0.0443 0.497723,0.28222 0.497726,0.51004 0.497723,0.71577 0.497722,0.89943 0.497723,1.05382 0.497723,1.1764 0.497722,1.2645 0.497723,1.31798 0.497726,1.33851 0.497723,1.32448 0.497723,1.28079 0.497722,1.21039 0.497723,1.11696 0.497722,1.00473 0.497723,0.87877 0.497723,0.74341 0.497726,0.60478 0.497719,0.46341 0.497726,0.32674 0.497727,0.19796 0.497719,0.0789 0.497726,-0.0279 0.497727,-0.12068 0.497718,-0.19738 0.497727,-0.25799 0.497719,-0.30225 0.497726,-0.32991 0.497726,-0.34157 0.497719,-0.33845 0.497727,-0.32184 0.497719,-0.29304 0.497726,-0.25416 0.497719,-0.20735 0.497726,-0.15385 0.497727,-0.0976 0.497718,-0.04 0.497727,0.0179 0.497726,0.0721 0.497719,0.12222 0.497727,0.16585 0.497718,0.2016 0.497727,0.22937 0.497719,0.24765 0.497726,0.2564 0.497719,0.25603 0.497726,0.24565 0.497727,0.22756 0.497719,0.20178 0.497726,0.16936 0.497719,0.13282 0.497726,0.0922 0.497719,0.0487 0.497727,0.008 0.497718,-0.034 0.497727,-0.0711 0.497726,-0.10466 0.497727,-0.13092 0.497718,-0.15203 0.497727,-0.16348 0.497726,-0.16775 0.497719,-0.16481 0.497727,-0.15287 0.497718,-0.13441 0.497727,-0.10878 0.497719,-0.0796 0.497726,-0.0458 0.497719,-0.0113 0.497726,0.0251 0.497719,0.0592 0.497727,0.0911 0.497726,0.11862 0.497727,0.14234 0.497718,0.15904 0.497727,0.17078 0.497719,0.17437 0.497726,0.17298 0.497726,0.16418 0.497719,0.14794 0.497727,0.12675 0.497719,0.0984 0.497726,0.0656 0.497719,0.027 0.497726,-0.0148 0.497719,-0.0614 0.497726,-0.10919 0.497719,-0.15965 0.497727,-0.20801 0.497719,-0.2563 0.497726,-0.29969 0.497726,-0.33889 0.497725,-0.37023 0.49772,-0.39349 0.49773,-0.40636 0.49772,-0.40889 0.49772,-0.39918 0.49773,-0.37819 0.49772,-0.3474 0.49772,-0.30472 0.49772,-0.25526 0.49773,-0.19766 0.49772,-0.1366 0.49772,-0.0725 0.49772,-0.008 0.49773,0.0541 0.49772,0.11195 0.49773,0.16582 0.49771,0.21164 0.49773,0.25038 0.49773,0.28028 0.49772,0.30212 0.49773,0.31375 0.49773,0.317 0.49772,0.3102 0.49772,0.29352 0.49773,0.26889 0.49772,0.23407 0.49772,0.19133 0.49772,0.13969 0.49773,0.0814 0.49772,0.0155 0.49772,-0.0543 0.49772,-0.12892 0.49773,-0.20434 0.49772,-0.28013 0.49772,-0.35234 0.49772,-0.42023 0.49773,-0.47992 0.49773,-0.53078 0.49772,-0.5689 0.49773,-0.59438 0.49772,-0.60672 0.49772,-0.60301 0.49772,-0.58592 0.49773,-0.55407 0.49772,-0.51022 0.49772,-0.45442 0.49772,-0.39029 0.49773,-0.31758 0.49772,-0.2413 0.49772,-0.16106 0.49772,-0.0812 0.49773,-0.002 0.49772,0.0729 0.49773,0.1436 0.49771,0.20633 0.49773,0.26178 0.49772,0.30731 0.49773,0.34167 0.49772,0.36568 0.49773,0.37618 0.49773,0.37507 0.49771,0.35976 0.49772,0.33262 0.49773,0.29264 0.49773,0.2408 0.49772,0.17837 0.49773,0.10726 0.49771,0.0285 0.49773,-0.0548 0.49772,-0.14215 0.49773,-0.22905 0.49771,-0.31476 0.49773,-0.39546 0.49772,-0.47043 0.49773,-0.53699 0.49773,-0.59352 0.49772,-0.63768 0.49773,-0.66926 0.49773,-0.68708 0.49771,-0.69166 0.49772,-0.68083 0.49773,-0.6566 0.49773,-0.61959 0.49771,-0.57031 0.49772,-0.50932 0.49773,-0.43964 0.49773,-0.36197 0.49771,-0.27975 0.49772,-0.19289 0.49773,-0.10625 0.49773,-0.0198 0.49772,0.0613 0.49771,0.13671 0.49773,0.20506 0.49773,0.26291 0.49772,0.30919 0.49771,0.34178 0.49773,0.36235 0.49773,0.36844 0.49772,0.36059 0.49772,0.33863 0.49772,0.30581 0.49773,0.25984 0.49772,0.20427 0.49773,0.13897 0.49773,0.0681 0.49772,-0.009 0.49773,-0.0889 0.49773,-0.17067 0.49771,-0.25264 0.49772,-0.3315 0.49773,-0.40624 0.49773,-0.47486 0.49771,-0.53708 0.49773,-0.58774 0.49772,-0.62892 0.49773,-0.65692 0.49771,-0.67316 0.49773,-0.67372 0.49772,-0.66132 0.49773,-0.63502 0.49771,-0.59595 0.49773,-0.54389 0.49772,-0.48176 0.49773,-0.41145 0.49773,-0.33406 0.49771,-0.25376 0.49772,-0.17047 0.49773,-0.0883 0.49773,-0.01 0.49771,0.0633 0.49772,0.13062 0.49773,0.18834 0.49773,0.23648 0.49771,0.2729 0.49772,0.29907 0.49773,0.31319 0.49773,0.31493 0.49771,0.30472 0.49772,0.28405 0.49773,0.25214 0.49773,0.21011 0.49772,0.15915 0.49773,0.0993 0.49773,0.0343 0.49772,-0.0364 0.49773,-0.11076 0.49771,-0.18719 0.49773,-0.26181 0.49772,-0.33501 0.49773,-0.40312 0.49771,-0.46584 0.49773,-0.51865 0.49772,-0.56253 0.49773,-0.59494 0.49771,-0.61584 0.49773,-0.62328 0.49772,-0.61836 0.49773,-0.60087 0.49773,-0.5721 0.49771,-0.53324 0.49773,-0.48355 0.49772,-0.42735 0.49773,-0.36487 0.49771,-0.29866 0.49773,-0.22949 0.49772,-0.16007 0.49773,-0.0921 0.49771,-0.0276 0.49773,0.0332 0.49772,0.0877 0.49773,0.13514 0.49771,0.1735 0.49773,0.20385 0.49772,0.22351 0.49773,0.23318 0.49773,0.23198 0.49771,0.21973 0.49772,0.19807 0.49773,0.16591 0.49773,0.12553 0.49772,0.0763 0.49773,0.0213 0.49773,-0.039 0.49772,-0.10212 0.49771,-0.16785 0.49773,-0.23251 0.49773,-0.29532 0.49772,-0.35424 0.49771,-0.40919 0.49773,-0.45534 0.49773,-0.49524 0.49772,-0.52574 0.49773,-0.546 0.49771,-0.55811 0.49773,-0.55864 0.49772,-0.54883 0.49773,-0.52989 0.49771,-0.5016 0.49773,-0.4651 0.49772,-0.42139 0.49773,-0.37134 0.49771,-0.31723 0.49773,-0.25963 0.49772,-0.20038 0.49773,-0.14173 0.49771,-0.0855 0.49773,-0.0311 0.49773,0.0176 0.49772,0.0607 0.49771,0.0954 0.49773,0.12382 0.49773,0.14272 0.49772,0.1525 0.49773,0.15342 0.49771,0.14495 0.49773,0.12848 0.49772,0.1042 0.49773,0.0723 0.49773,0.0334 0.49772,-0.009 0.49773,-0.0567 0.49772,-0.10704 0.49772,-0.15913 0.49772,-0.21099 0.49773,-0.2621 0.49773,-0.31094 0.49771,-0.3564 0.49772,-0.39629 0.49773,-0.43058 0.49773,-0.45815 0.49772,-0.47797 0.49771,-0.48982 0.49773,-0.49254 0.49773,-0.48654 0.49772,-0.47258 0.49773,-0.45074 0.49771,-0.42105 0.49774,-0.38518 0.49771,-0.34433 0.49773,-0.30025 0.49773,-0.25276 0.49772,-0.20454 0.49773,-0.15711 0.49771,-0.11171 0.49773,-0.0685 0.49772,-0.0295 0.49773,0.004 0.49773,0.0322 0.49771,0.0535 0.49772,0.069 0.49773,0.0772 0.49773,0.0782 0.49771,0.072 0.49772,0.06 0.49773,0.0411 0.49773,0.0165 0.49772,-0.0138 0.49773,-0.0478 0.49773,-0.0858 0.49772,-0.12651 0.49771,-0.16932 0.49773,-0.2117 0.49773,-0.25354 0.49772,-0.29372 0.49773,-0.33077 0.49771,-0.3641 0.49773,-0.39137 0.49772,-0.41315 0.49773,-0.42856 0.49771,-0.4369 0.49773,-0.43827 0.49772,-0.4322 0.49773,-0.41997 0.49771,-0.40161 0.49773,-0.37679 0.49772,-0.34825 0.49773,-0.3156 0.49771,-0.28034 0.49773,-0.24299 0.49773,-0.20507 0.49772,-0.16774 0.49773,-0.1314 0.49771,-0.0979 0.49773,-0.0663 0.49772,-0.0395 0.49773,-0.0168 0.49771,4.9e-4 0.49773,0.0132 0.49772,0.0198 0.49773,0.0207 0.49771,0.0151 0.49773,0.005 0.49772,-0.0107 0.49773,-0.0319 0.49773,-0.057 0.49772,-0.0852 0.49773,-0.1167 0.49773,-0.14986 0.49772,-0.1844 0.49773,-0.2181 0.49772,-0.25105 0.4977,-0.28354 0.49773,-0.31079 0.49772,-0.33626 0.49773,-0.35705 0.49773,-0.37265 0.49772,-0.38338 0.49773,-0.38939 0.49773,-0.38945 0.49769,-0.38452 0.49773,-0.37344 0.49772,-0.35759 0.49772,-0.33835 0.49774,-0.31465 0.49771,-0.28754 0.49774,-0.25885 0.49771,-0.22844 0.49774,-0.19757 0.49768,-0.16699 0.49775,-0.13692 0.49771,-0.1096 0.49774,-0.0849 0.49771,-0.0633 0.49774,-0.0461 0.49771,-0.0328 0.49774,-0.0242 0.49772,-0.0212 0.49771,-0.0219 0.49774,-0.0277 0.49771,-0.0375 0.49774,-0.0522 0.49771,-0.0703 0.49774,-0.0912 0.49772,-0.11544 0.49774,-0.1407 0.49771,-0.16852 0.49771,-0.19545 0.49774,-0.22287 0.49771,-0.24923 0.49774,-0.27446 0.49772,-0.29711 0.49774,-0.3172 0.49771,-0.33361 0.49771,-0.34681 0.49771,-0.35438 0.49774,-0.35837 0.49771,-0.35747 0.49775,-0.35211 0.49771,-0.34228 0.49771,-0.32808 0.49774,-0.31069 0.49771,-0.29043 0.49774,-0.2681 0.49771,-0.24287 0.49774,-0.21773 0.49772,-0.19196 0.49774,-0.16716 0.49771,-0.14364 0.49774,-0.12165 0.49771,-0.10267 0.49771,-0.0872 0.49771,-0.0734 0.49775,-0.064 0.49771,-0.0581 0.49774,-0.0563 0.49771,-0.0584 0.49774,-0.0638 0.49771,-0.0728 0.49774,-0.0853 0.49769,-0.10153 0.49774,-0.11882 0.49771,-0.1389 0.49774,-0.16063 0.49771,-0.18359 0.49774,-0.20644 0.49771,-0.22938 0.49775,-0.25112 0.49768,-0.27212 0.49774,-0.28995 0.49771,-0.30504 0.49774,-0.3174 0.49771,-0.32669 0.49774,-0.33157 0.49771,-0.33283 0.49775,-0.33027 0.49771,-0.32384 0.49771,-0.3149 0.49771,-0.30134 0.49774,-0.2858 0.49771,-0.2681 0.49774,-0.24861 0.49772,-0.22816 0.49774,-0.20735 0.49771,-0.18673 0.49771,-0.16684 0.49771,-0.1474 0.49774,-0.12994 0.49771,-0.11481 0.49775,-0.10179 0.49771,-0.0919 0.49774,-0.0847 0.49771,-0.0806 0.49774,-0.0804 0.49768,-0.0834 0.49774,-0.089 0.49771,-0.0977 0.49775,-0.10937 0.49771,-0.12352 0.49774,-0.13947 0.49771,-0.15722 0.49774,-0.17659 0.49768,-0.1964 0.49774,-0.21521 0.49772,-0.2345 0.49774,-0.25192 0.49771,-0.2691 0.49774,-0.28286 0.49771,-0.29519 0.49774,-0.30454 0.49771,-0.31079 0.49772,-0.31482 0.49771,-0.31434 0.49774,-0.31136 0.49771,-0.30557 0.49774,-0.29642 0.49771,-0.28531 0.49774,-0.27174 0.49772,-0.25678 0.49774,-0.24119 0.49771,-0.2226 0.49774,-0.2054 0.49771,-0.18783 0.49774,-0.17111 0.49771,-0.15604 0.49775,-0.14145 0.49771,-0.1301 0.49774,-0.11993 0.49768,-0.11369 0.49774,-0.10863 0.49771,-0.10648 0.49774,-0.10774 0.49772,-0.11101 0.49774,-0.11766 0.49771,-0.1257 0.49774,-0.13678 0.49768,-0.1497 0.49774,-0.16292 0.49771,-0.1779 0.49775,-0.19383 0.49771,-0.20957 0.49774,-0.22526 0.49771,-0.24053 0.49774,-0.25471 0.49771,-0.26723 0.49771,-0.27895 0.49771,-0.28737 0.49775,-0.29374 0.49771,-0.29776 0.49774,-0.29921 0.49771,-0.29805 0.49774,-0.29383 0.49771,-0.28727 0.49771,-0.27906 0.49772,-0.26774 0.49774,-0.25513 0.49771,-0.24135 0.49774,-0.22667 0.49771,-0.21153 0.49774,-0.1965 0.49771,-0.18183 0.49775,-0.16767 0.49768,-0.15583 0.49774,-0.1439 0.49771,-0.13433 0.49774,-0.12663 0.49771,-0.12156 0.49774,-0.11825 0.49772,-0.11726 0.49774,-0.11851 0.49768,-0.12275 0.49774,-0.12777 0.49771,-0.13529 0.49774,-0.14452 0.49771,-0.15527 0.49774,-0.16741 0.49772,-0.18003 0.49774,-0.1935 0.49771,-0.20703 0.49771,-0.22074 0.49771,-0.23285 0.49774,-0.24445 0.49771,-0.25486 0.49775,-0.26355 0.49771,-0.27049 0.49774,-0.27515 0.49771,-0.27777 0.49771,-0.27854 0.49774,-0.27651 0.49771,-0.2724 0.49775,-0.26648 0.49771,-0.25916 0.49774,-0.24989 0.49771,-0.2395 0.49774,-0.2284 0.49771,-0.21651 0.49774,-0.20483 0.49772,-0.19252 0.49774,-0.18095 0.49771,-0.17009 0.49774,-0.16016 0.49771,-0.15146 0.49774,-0.1444 0.49771,-0.13897 0.49772,-0.13571 0.49771,-0.13337 0.49774,-0.13335 0.49771,-0.13542 0.49774,-0.13923 0.49771,-0.14499 0.49774,-0.15222 0.49772,-0.16104 0.49774,-0.17077 0.49768,-0.18187 0.49774,-0.19286 0.49771,-0.20441 0.49774,-0.2157 0.49771,-0.22701 0.49774,-0.23747 0.49772,-0.24687 0.49774,-0.25531 0.49768,-0.26245 0.49774,-0.26696 0.49771,-0.27073 0.49774,-0.27207 0.49771,-0.27186 0.49775,-0.27009 0.49771,-0.26605 0.49774,-0.26073 0.49771,-0.25394 0.49771,-0.24661 0.49771,-0.23706 0.49774,-0.22738 0.49772,-0.21764 0.49774,-0.20734 0.49771,-0.19713 0.49774,-0.18751 0.49771,-0.17845 0.49771,-0.17129 0.49771,-0.16369 0.49775,-0.15831 0.49771,-0.15399 0.49774,-0.15155 0.49771,-0.15048 0.49774,-0.15096 0.49771,-0.15329 0.49774,-0.15677 0.49768,-0.16221 0.49775,-0.16802 0.49771,-0.17532 0.49774,-0.18326 0.49771,-0.19217 0.49774,-0.20106 0.49771,-0.21045 0.49774,-0.21941 0.49769,-0.22849 0.49774,-0.23593 0.49771,-0.24298 0.49774,-0.24888 0.49771,-0.25335 0.49774,-0.25672 0.49771,-0.25834 0.49775,-0.25849 0.49771,-0.25723 0.49771,-0.25474 0.49771,-0.2502 0.49774,-0.24468 0.49771,-0.23845 0.49774,-0.23108 0.49772,-0.22346 0.49774,-0.21525 0.49771,-0.20696 0.49774,-0.1994 0.49771,-0.19114 0.49774,-0.18414 0.49771,-0.17764 0.49775,-0.17221 0.49771,-0.16777 0.49774,-0.16442 0.49771,-0.16261 0.49771,-0.16265 0.49771,-0.16277 0.49774,-0.16478 0.49771,-0.16816 0.49775,-0.17271 0.49771,-0.17819 0.49774,-0.18481 0.49771,-0.1919 0.49774,-0.199608 0.49768,-0.208245 0.49774,-0.215904 0.49772,-0.223679 0.49774,-0.231407 0.49771,-0.23854 0.49774,-0.244706 0.49771,-0.250015 0.49774,-0.254219 0.49768,-0.257995 0.49775,-0.259247 0.49771,-0.260079 0.49774,-0.259285 0.49771,-0.257736 0.49774,-0.254684 0.49771,-0.251015 0.49774,-0.246384 0.49772,-0.240814 0.49771,-0.235268 0.49771,-0.228218 0.49774,-0.221588 0.49771,-0.214813 0.49774,-0.208267 0.49771,-0.201988 0.49775,-0.195954 0.49771,-0.191345 0.49771,-0.187508 0.49771,-0.183662 0.49774,-0.181633 0.49771,-0.180824 0.49774,-0.181069 0.49771,-0.182251 0.49775,-0.185165 0.49771,-0.188889 0.49774,-0.193329 0.49768,-0.199379 0.49774,-0.205055 0.49771,-0.211677 0.49774,-0.218087 0.49772,-0.224929 0.49774,-0.231575 0.49771,-0.237481 0.49774,-0.242866 0.49768,-0.247925 0.49774,-0.251213 0.49771,-0.253738 0.49775,-0.255013 0.49771,-0.255462 0.49774,-0.254166 0.49771,-0.252236 0.49774,-0.248695 0.49771,-0.244606 0.49771,-0.23986 0.49771,-0.23349 0.49775,-0.227074 0.49771,-0.220337 0.49774,-0.213615 0.49771,-0.206429 0.49774,-0.199936 0.49771,-0.193603 0.49774,-0.187996 0.49772,-0.182534 0.49774,-0.177932 0.49771,-0.174584 0.49774,-0.171577 0.49771,-0.170014 0.49774,-0.169243 0.49771,-0.169319 0.49775,-0.17102 0.49768,-0.173561 0.49774,-0.176804 0.49771,-0.181038 0.49774,-0.186256 0.49771,-0.192063 0.49774,-0.198783 0.49772,-0.205758 0.49774,-0.212806 0.49771,-0.22036 0.49771,-0.226524 0.49774,-0.233048 0.49771,-0.238571 0.49774,-0.243004 0.49772,-0.246498 0.49774,-0.248604 0.49771,-0.249534 0.49774,-0.249054 0.49768,-0.247605 0.49774,-0.244285 0.49771,-0.240082 0.49775,-0.234947 0.49771,-0.229157 0.49774,-0.222748 0.49771,-0.21614 0.49774,-0.209336 0.49768,-0.203254 0.49774,-0.196595 0.49771,-0.190719 0.49775,-0.185852 0.49771,-0.181343 0.49774,-0.178414 0.49771,-0.176254 0.49774,-0.175568 0.49771,-0.175758 0.49771,-0.178261 0.49772,-0.18145 0.49774,-0.18618 0.49771,-0.192398 0.49774,-0.199989 0.49771,-0.208893 0.49774,-0.21859 0.49771,-0.228714 0.49772,-0.240143 0.49771,-0.249801 0.49774,-0.259537 0.49771,-0.268707 0.49774,-0.275956 0.49771,-0.281974 0.49774,-0.285904 0.49772,-0.287911 0.49774,-0.287216 0.49768,-0.285843 0.49774,-0.280777 0.49771,-0.27494 0.49774,-0.267243 0.49771,-0.258659 0.49775,-0.2491 0.49771,-0.239441 0.49774,-0.229736 0.49768,-0.221024 0.49774,-0.211784 0.49771,-0.204147 0.49774,-0.198159 0.49771,-0.193092 0.49775,-0.189529 0.49771,-0.187813 0.49774,-0.187309 0.49771,-0.188294 0.49774,-0.190697 0.49771,-0.193695 0.49774,-0.198463 0.49772,-0.203255 0.49771,-0.210571 0.49771,-0.216881 0.49774,-0.224647 0.49771,-0.233651 0.49774,-0.242767 0.49771,-0.252518 0.49775,-0.263671 0.49771,-0.274201 0.49774,-0.284363 0.49771,-0.293884 0.49774,-0.301559 0.49771,-0.307023 0.49774,-0.310699 0.49772,-0.310051 0.49774,-0.305588 0.49771,-0.29731 0.49774,-0.285041 0.49765,-0.269585 0.49774,-0.248451 0.49771,-0.225544 0.49775,-0.200367 0.49771,-0.173764 0.49774,-0.146225 0.49771,-0.120769 0.49774,-0.09499 0.49771,-0.07285 0.49774,-0.05378 0.49771,-0.03869 0.49775,-0.02827 0.49771,-0.02346 0.49774,-0.02358 0.49771,-0.03072 0.49774,-0.04407 0.49771,-0.06353 0.49768,-0.09122 0.49772,-0.1227 0.49774,-0.161197 0.49771,-0.204102 0.49774,-0.250969 0.49771,-0.298931 0.49774,-0.346127 0.49771,-0.390247 0.49775,-0.427669 0.49771,-0.456738 0.49774,-0.474781 0.49771,-0.480545 0.49774,-0.472218 0.49771,-0.451488 0.49774,-0.418621 0.49772,-0.375103 0.49774,-0.323776 0.49765,-0.266606 0.49774,-0.204796 0.49771,-0.14244 0.49774,-0.08032 0.49771,-0.02163 0.49774,0.03263 0.49772,0.07995 0.49774,0.118992 0.49771,0.147987 0.49774,0.16589 0.49771,0.172439 0.49774,0.166958 0.49771,0.150978 0.49775,0.124443 0.49771,0.0898 0.49774,0.04864 0.49771,0.0028 0.49771,-0.04653 0.49771,-0.09499 0.49774,-0.143246 0.49772,-0.18951 0.49774,-0.231026 0.49771,-0.267299 0.49774,-0.296757 0.49771,-0.318772 0.49774,-0.333099 0.49771,-0.341015 0.49775,-0.345958 0.49771,-0.35352 0.49774,-0.371521 0.49771,-0.409946 0.49774,-0.477036 0.49771,-0.578541 0.49774,-0.713741 0.49765,-0.871654 0.49775,-1.02887 0.49771,-1.156448 0.49771,-1.222687 0.49774,-1.204117 0.49774,-1.09161 0.49774,-0.895397 0.49768,-0.639965 0.49775,-0.355156 0.49774,-0.06978 0.49774,0.194359 0.49768,0.42577 0.49774,0.620731 0.49774,0.788861 0.49775,0.943081 0.49768,1.10268 0.49774,1.285797 0.49768,1.502064 0.49774,1.751659 0.49774,2.012165 0.49768,2.249382 0.49774,2.418087 0.49775,2.477749 0.49768,2.405968 0.49774,2.2075 0.49774,1.90988"
           style="fill:none;stroke:#edb120;stroke-width:1.33333;stroke-linecap:butt;stroke-linejoin:round;stroke-miterlimit:10;stroke-dasharray:none;stroke-opacity:1"
           id="path3109" />
      </g>
      <g
         id="g3111"
         transform="matrix(6.0015184,0,0,6.0071961,793.70062,2460.4724)">
        <path
           d="m 31.373714,6.9691224 0.284022,166.1018176 6.381067,6.64027 6.381069,7.69214 6.381069,6.89449 6.381066,5.45445 6.381069,4.0397 6.381069,2.86843 6.381066,1.9564 6.381073,1.25841 6.381065,0.72253 6.381065,0.3058 6.381076,-0.0237 6.38107,-0.28904 6.38107,-0.50644 6.38106,-0.68749 6.38107,-0.84045 6.38108,-0.97132 6.38105,-1.08445 6.38108,-1.18312 6.38107,-1.26976 12.76213,-2.76046 12.76213,-3.0028 12.76215,-3.19541 12.76213,-3.34865 12.76213,-3.46997 12.76215,-3.56497 12.76214,-3.63798 12.76213,-3.69254 12.76213,-3.73148 12.76212,-3.75715 12.76214,-3.77158 12.76215,-3.77638 12.76212,-3.773 12.76214,-3.76258 12.76218,-3.74619 12.76211,-3.72465 12.76215,-3.69874 12.76215,-3.66903 12.76211,-3.63616 12.76215,-3.60051 12.76214,-3.56256 12.76212,-3.52267 12.76215,-3.48113 12.76214,-3.43824 12.76212,-3.39421 12.76214,-3.3493 12.76215,-3.3037 12.76211,-3.25752 L 523,102.20724"
           style="fill:none;stroke:#7e2f8e;stroke-width:1.33333;stroke-linecap:butt;stroke-linejoin:round;stroke-miterlimit:10;stroke-dasharray:none;stroke-opacity:1"
           id="path3113" />
      </g>
      <g
         id="g3115"
         transform="matrix(6.0015184,0,0,6.0071961,793.70062,2460.4724)">
        <path
           d="m 25.276667,222.42879 0.497722,0.0397 0.497725,0.0733 0.497722,0.10813 0.497725,0.13693 0.497723,0.164 0.497722,0.18595 0.497725,0.20381 0.497722,0.21693 0.497723,0.22669 0.497725,0.23135 0.497722,0.23306 0.497725,0.23201 0.497722,0.22756 0.497723,0.22201 0.497723,0.21452 0.497722,0.20556 0.497723,0.1961 0.497726,0.18544 0.497723,0.17702 0.497723,0.16449 0.497722,0.15391 0.497727,0.14331 0.497722,0.13364 0.497723,0.12329 0.497722,0.11441 0.497723,0.10459 0.497727,0.0954 0.497718,0.0872 0.497727,0.0798 0.497722,0.0709 0.497723,0.0645 0.497723,0.0578 0.497726,0.0504 0.497723,0.0447 0.497722,0.0386 0.497723,0.0333 0.497723,0.028 0.497726,0.0236 0.497723,0.0176 0.497722,0.0134 0.497723,0.01 0.497723,0.005 0.497726,0.001 0.497723,-0.002 0.497722,-0.006 0.497723,-0.01 0.497722,-0.0124 0.497727,-0.0161 0.497723,-0.0185 0.497722,-0.0218 0.497723,-0.0243 0.497722,-0.0274 0.497723,-0.0296 0.497723,-0.0324 0.497726,-0.034 0.497719,-0.0372 0.497726,-0.0391 0.497723,-0.0413 0.497723,-0.0434 0.497726,-0.0446 0.497723,-0.0472 0.497726,-0.0491 0.497723,-0.0516 0.497722,-0.0528 0.497723,-0.0548 0.497723,-0.0567 0.497722,-0.0576 0.497723,-0.0599 0.497726,-0.0615 0.497723,-0.063 0.497723,-0.0641 0.497722,-0.0661 0.497723,-0.0675 0.497722,-0.0684 0.497723,-0.0706 0.497723,-0.0719 0.497726,-0.0723 0.497719,-0.0748 0.497726,-0.0753 0.497727,-0.0771 0.497719,-0.0781 0.497726,-0.0797 0.497727,-0.0814 0.497718,-0.0808 0.497727,-0.0831 0.497719,-0.0846 0.497726,-0.086 0.497726,-0.0866 0.497719,-0.0875 0.497727,-0.0894 0.497719,-0.0894 0.497726,-0.0906 0.497719,-0.0924 0.497726,-0.0927 0.497727,-0.0941 0.497718,-0.0953 0.497727,-0.0964 0.497726,-0.0968 0.497719,-0.0978 0.497727,-0.0994 0.497718,-0.10039 0.497727,-0.10069 0.497719,-0.10208 0.497726,-0.10309 0.497719,-0.10333 0.497726,-0.10469 0.497727,-0.10542 0.497719,-0.10689 0.497726,-0.10755 0.497719,-0.10775 0.497726,-0.1086 0.497719,-0.1106 0.497727,-0.10995 0.497718,-0.11241 0.497727,-0.11125 0.497726,-0.11364 0.497727,-0.11396 0.497718,-0.1148 0.497727,-0.11557 0.497726,-0.11609 0.497719,-0.11686 0.497727,-0.11669 0.497718,-0.11932 0.497727,-0.11903 0.497719,-0.12021 0.497726,-0.12041 0.497719,-0.12247 0.497726,-0.12077 0.497719,-0.12871 0.497727,-0.14471 0.497726,-0.15244 0.497727,-0.15227 0.497718,-0.14523 0.497727,-0.13238 0.497719,-0.11905 0.497726,-0.10012 0.497726,-0.0823 0.497719,-0.0663 0.497727,-0.0487 0.497719,-0.0383 0.497726,-0.0308 0.497719,-0.0335 0.497726,-0.0418 0.497719,-0.0472 0.497726,-0.0532 0.497719,-0.0572 0.497727,-0.0605 0.497719,-0.0604 0.497726,-0.0605 0.497726,-0.058 0.497725,-0.0527 0.49772,-0.0487 0.49773,-0.0422 0.49772,-0.0352 0.49772,-0.0396 0.49773,-0.0489 0.49772,-0.057 0.49772,-0.0647 0.49772,-0.0712 0.49773,-0.0733 0.49772,-0.0774 0.49772,-0.0759 0.49772,-0.0755 0.49773,-0.0705 0.49772,-0.0673 0.49773,-0.0617 0.49771,-0.0552 0.49773,-0.0631 0.49773,-0.0733 0.49772,-0.083 0.49773,-0.0922 0.49773,-0.0975 0.49772,-0.10316 0.49772,-0.10518 0.49773,-0.10619 0.49772,-0.10414 0.49772,-0.0998 0.49772,-0.0952 0.49773,-0.0884 0.49772,-0.0853 0.49772,-0.0949 0.49772,-0.10667 0.49773,-0.11594 0.49772,-0.12485 0.49772,-0.13125 0.49772,-0.13599 0.49773,-0.13791 0.49773,-0.13756 0.49772,-0.13498 0.49773,-0.13112 0.49772,-0.12522 0.49772,-0.11797 0.49772,-0.11604 0.49773,-0.12708 0.49772,-0.13829 0.49772,-0.14793 0.49772,-0.15589 0.49773,-0.16214 0.49772,-0.16568 0.49772,-0.16655 0.49772,-0.166 0.49773,-0.16147 0.49772,-0.15811 0.49773,-0.14917 0.49771,-0.14299 0.49773,-0.14174 0.49772,-0.15351 0.49773,-0.1643 0.49772,-0.17302 0.49773,-0.18141 0.49773,-0.18539 0.49771,-0.18851 0.49772,-0.1886 0.49773,-0.18611 0.49773,-0.18179 0.49772,-0.17508 0.49773,-0.16766 0.49771,-0.15891 0.49773,-0.16138 0.49772,-0.17268 0.49773,-0.18245 0.49771,-0.19076 0.49773,-0.19713 0.49772,-0.20174 0.49773,-0.20306 0.49773,-0.20259 0.49772,-0.19901 0.49773,-0.19313 0.49773,-0.18578 0.49771,-0.17878 0.49772,-0.16831 0.49773,-0.17399 0.49773,-0.18415 0.49771,-0.19442 0.49772,-0.20108 0.49773,-0.20739 0.49773,-0.21063 0.49771,-0.21159 0.49772,-0.21006 0.49773,-0.2044 0.49773,-0.19928 0.49772,-0.19135 0.49771,-0.18318 0.49773,-0.1737 0.49773,-0.18096 0.49772,-0.1915 0.49771,-0.20073 0.49773,-0.20744 0.49773,-0.2124 0.49772,-0.21456 0.49772,-0.2154 0.49772,-0.21253 0.49773,-0.20753 0.49772,-0.20046 0.49773,-0.19349 0.49773,-0.18297 0.49772,-0.17612 0.49773,-0.18016 0.49773,-0.18521 0.49771,-0.19087 0.49772,-0.195 0.49773,-0.19943 0.49773,-0.20373 0.49771,-0.20735 0.49773,-0.2101 0.49772,-0.21289 0.49773,-0.21399 0.49771,-0.21617 0.49773,-0.21651 0.49772,-0.21626 0.49773,-0.2164 0.49771,-0.21503 0.49773,-0.21285 0.49772,-0.2104 0.49773,-0.20761 0.49773,-0.20396 0.49771,-0.20101 0.49772,-0.19642 0.49773,-0.19202 0.49773,-0.18726 0.49771,-0.18283 0.49772,-0.17795 0.49773,-0.1771 0.49773,-0.18213 0.49771,-0.18769 0.49772,-0.19239 0.49773,-0.19599 0.49773,-0.2008 0.49771,-0.20455 0.49772,-0.20741 0.49773,-0.21007 0.49773,-0.21269 0.49772,-0.21407 0.49773,-0.21562 0.49773,-0.2148 0.49772,-0.21493 0.49773,-0.21431 0.49771,-0.21346 0.49773,-0.21067 0.49772,-0.2085 0.49773,-0.20551 0.49771,-0.20242 0.49773,-0.19896 0.49772,-0.19374 0.49773,-0.18936 0.49771,-0.18564 0.49773,-0.18079 0.49772,-0.17657 0.49773,-0.17842 0.49773,-0.18343 0.49771,-0.1889 0.49773,-0.19324 0.49772,-0.19726 0.49773,-0.20133 0.49771,-0.20437 0.49773,-0.20772 0.49772,-0.21021 0.49773,-0.21182 0.49771,-0.21404 0.49773,-0.21443 0.49772,-0.21377 0.49773,-0.21396 0.49771,-0.21323 0.49773,-0.21203 0.49772,-0.20934 0.49773,-0.20726 0.49773,-0.2039 0.49771,-0.20101 0.49772,-0.19639 0.49773,-0.19304 0.49773,-0.18831 0.49772,-0.18489 0.49773,-0.17894 0.49773,-0.1772 0.49772,-0.18108 0.49771,-0.18618 0.49773,-0.19088 0.49773,-0.19467 0.49772,-0.19772 0.49771,-0.20336 0.49773,-0.20512 0.49773,-0.20808 0.49772,-0.21035 0.49773,-0.21188 0.49771,-0.21324 0.49773,-0.21423 0.49772,-0.21302 0.49773,-0.21316 0.49771,-0.21247 0.49773,-0.21074 0.49772,-0.20819 0.49773,-0.20501 0.49771,-0.20302 0.49773,-0.19934 0.49772,-0.19493 0.49773,-0.19114 0.49771,-0.18861 0.49773,-0.18242 0.49773,-0.17811 0.49772,-0.17907 0.49771,-0.18322 0.49773,-0.18694 0.49773,-0.19249 0.49772,-0.19528 0.49773,-0.19943 0.49771,-0.2034 0.49773,-0.20505 0.49772,-0.20712 0.49773,-0.20993 0.49773,-0.21117 0.49772,-0.21211 0.49773,-0.21224 0.49772,-0.2118 0.49772,-0.21108 0.49772,-0.21016 0.49773,-0.20779 0.49773,-0.20543 0.49771,-0.20421 0.49772,-0.19952 0.49773,-0.19721 0.49773,-0.19311 0.49772,-0.18898 0.49771,-0.18537 0.49773,-0.18086 0.49773,-0.17744 0.49772,-0.17961 0.49773,-0.1847 0.49771,-0.18754 0.49774,-0.1921 0.49771,-0.19595 0.49773,-0.19971 0.49773,-0.20184 0.49772,-0.20386 0.49773,-0.20643 0.49771,-0.20887 0.49773,-0.20974 0.49772,-0.20931 0.49773,-0.21005 0.49773,-0.21019 0.49771,-0.20901 0.49772,-0.20693 0.49773,-0.20592 0.49773,-0.20312 0.49771,-0.2014 0.49772,-0.19705 0.49773,-0.19431 0.49773,-0.19106 0.49772,-0.18705 0.49773,-0.1828 0.49773,-0.17903 0.49772,-0.17759 0.49771,-0.18118 0.49773,-0.18506 0.49773,-0.18878 0.49772,-0.19243 0.49773,-0.19552 0.49771,-0.19959 0.49773,-0.2016 0.49772,-0.20349 0.49773,-0.20593 0.49771,-0.20763 0.49773,-0.20793 0.49772,-0.20807 0.49773,-0.2082 0.49771,-0.20821 0.49773,-0.2074 0.49772,-0.20477 0.49773,-0.20381 0.49771,-0.2016 0.49773,-0.19867 0.49773,-0.19489 0.49772,-0.19296 0.49773,-0.18875 0.49771,-0.18564 0.49773,-0.18158 0.49772,-0.17802 0.49773,-0.17833 0.49771,-0.18221 0.49773,-0.18648 0.49772,-0.18939 0.49773,-0.19337 0.49771,-0.19612 0.49773,-0.19864 0.49772,-0.20095 0.49773,-0.20364 0.49773,-0.20448 0.49772,-0.20622 0.49773,-0.20639 0.49773,-0.20705 0.49772,-0.20667 0.49773,-0.20576 0.49772,-0.20487 0.4977,-0.20423 0.49773,-0.20096 0.49772,-0.19957 0.49773,-0.19663 0.49773,-0.19316 0.49772,-0.19026 0.49773,-0.18735 0.49773,-0.18344 0.49769,-0.18034 0.49773,-0.17775 0.49772,-0.17905 0.49772,-0.18341 0.49774,-0.18671 0.49771,-0.19052 0.49774,-0.19276 0.49771,-0.19602 0.49774,-0.19822 0.49768,-0.20172 0.49775,-0.20159 0.49771,-0.20379 0.49774,-0.20493 0.49771,-0.20506 0.49774,-0.20523 0.49771,-0.2049 0.49774,-0.20399 0.49772,-0.20395 0.49771,-0.20133 0.49774,-0.19952 0.49771,-0.19722 0.49774,-0.1954 0.49771,-0.19165 0.49774,-0.18841 0.49772,-0.18615 0.49774,-0.18198 0.49771,-0.18002 0.49771,-0.17752 0.49774,-0.18126 0.49771,-0.18535 0.49774,-0.18753 0.49772,-0.1911 0.49774,-0.19373 0.49771,-0.19682 0.49771,-0.19963 0.49771,-0.20097 0.49774,-0.20211 0.49771,-0.20366 0.49775,-0.2048 0.49771,-0.20444 0.49771,-0.20555 0.49774,-0.20425 0.49771,-0.20391 0.49774,-0.20289 0.49771,-0.20139 0.49774,-0.19919 0.49772,-0.19699 0.49774,-0.19433 0.49771,-0.19171 0.49774,-0.18911 0.49771,-0.18557 0.49771,-0.18323 0.49771,-0.17996 0.49775,-0.18065 0.49771,-0.18459 0.49774,-0.1871 0.49771,-0.19055 0.49774,-0.19348 0.49771,-0.19597 0.49774,-0.19887 0.49769,-0.20157 0.49774,-0.20239 0.49771,-0.20435 0.49774,-0.20495 0.49771,-0.20552 0.49774,-0.20613 0.49771,-0.2058 0.49775,-0.20592 0.49768,-0.2054 0.49774,-0.20393 0.49771,-0.20183 0.49774,-0.19974 0.49771,-0.19763 0.49774,-0.19557 0.49771,-0.19308 0.49775,-0.19011 0.49771,-0.18679 0.49771,-0.18452 0.49771,-0.18231 0.49774,-0.18469 0.49771,-0.18758 0.49774,-0.19129 0.49772,-0.19366 0.49774,-0.19646 0.49771,-0.19835 0.49771,-0.20224 0.49771,-0.20301 0.49774,-0.20494 0.49771,-0.20588 0.49775,-0.20646 0.49771,-0.20787 0.49774,-0.20714 0.49771,-0.2077 0.49774,-0.20694 0.49768,-0.20644 0.49774,-0.20418 0.49771,-0.20302 0.49775,-0.2006 0.49771,-0.19905 0.49774,-0.1962 0.49771,-0.19423 0.49774,-0.191 0.49768,-0.18884 0.49774,-0.18542 0.49772,-0.18479 0.49774,-0.18791 0.49771,-0.19105 0.49774,-0.19376 0.49771,-0.19643 0.49774,-0.19951 0.49771,-0.20091 0.49772,-0.20419 0.49771,-0.20453 0.49774,-0.20671 0.49771,-0.20767 0.49774,-0.20778 0.49771,-0.20831 0.49774,-0.20842 0.49772,-0.20855 0.49774,-0.20762 0.49771,-0.20713 0.49774,-0.20477 0.49771,-0.20325 0.49774,-0.20175 0.49771,-0.19943 0.49775,-0.19713 0.49771,-0.19482 0.49774,-0.19174 0.49768,-0.1893 0.49774,-0.18721 0.49771,-0.18822 0.49774,-0.19081 0.49772,-0.19339 0.49774,-0.19676 0.49771,-0.19852 0.49774,-0.20184 0.49768,-0.20263 0.49774,-0.20611 0.49771,-0.20627 0.49775,-0.20793 0.49771,-0.20882 0.49774,-0.21055 0.49771,-0.20907 0.49774,-0.20916 0.49771,-0.21007 0.49771,-0.20839 0.49771,-0.2079 0.49775,-0.20567 0.49771,-0.20421 0.49774,-0.20275 0.49771,-0.20053 0.49774,-0.19832 0.49771,-0.19537 0.49771,-0.19374 0.49772,-0.19098 0.49774,-0.1888 0.49771,-0.19131 0.49774,-0.1938 0.49771,-0.19702 0.49774,-0.20026 0.49771,-0.20192 0.49775,-0.2036 0.49768,-0.20736 0.49774,-0.20766 0.49771,-0.20851 0.49774,-0.21018 0.49771,-0.21101 0.49774,-0.21188 0.49772,-0.21196 0.49774,-0.21131 0.49768,-0.21199 0.49774,-0.20997 0.49771,-0.20932 0.49774,-0.20792 0.49771,-0.20502 0.49774,-0.20512 0.49772,-0.20148 0.49774,-0.2001 0.49771,-0.19799 0.49771,-0.19572 0.49771,-0.19228 0.49774,-0.1932 0.49771,-0.19483 0.49775,-0.19869 0.49771,-0.20103 0.49774,-0.20264 0.49771,-0.20573 0.49771,-0.20786 0.49774,-0.20818 0.49771,-0.21194 0.49775,-0.21202 0.49771,-0.21287 0.49774,-0.2144 0.49771,-0.21302 0.49774,-0.21457 0.49771,-0.21468 0.49774,-0.21311 0.49772,-0.21264 0.49774,-0.21128 0.49771,-0.20992 0.49774,-0.20854 0.49771,-0.20651 0.49774,-0.20443 0.49771,-0.20167 0.49772,-0.20018 0.49771,-0.19757 0.49774,-0.19561 0.49771,-0.1964 0.49774,-0.20013 0.49771,-0.20171 0.49774,-0.20466 0.49772,-0.20691 0.49774,-0.20915 0.49768,-0.2112 0.49774,-0.21219 0.49771,-0.21369 0.49774,-0.21517 0.49771,-0.21526 0.49774,-0.21674 0.49772,-0.21613 0.49774,-0.21688 0.49768,-0.21611 0.49774,-0.21565 0.49771,-0.21432 0.49774,-0.21299 0.49771,-0.2117 0.49775,-0.21037 0.49771,-0.20839 0.49774,-0.2064 0.49771,-0.20371 0.49771,-0.20228 0.49771,-0.19979 0.49774,-0.19853 0.49772,-0.20003 0.49774,-0.20291 0.49771,-0.20507 0.49774,-0.20865 0.49771,-0.20942 0.49771,-0.21208 0.49771,-0.2137 0.49775,-0.21514 0.49771,-0.21595 0.49774,-0.21665 0.49771,-0.21809 0.49774,-0.21885 0.49771,-0.21824 0.49774,-0.21763 0.49768,-0.21822 0.49775,-0.21709 0.49771,-0.2158 0.49774,-0.21455 0.49771,-0.21392 0.49774,-0.21066 0.49771,-0.20939 0.49774,-0.2075 0.49769,-0.20608 0.49774,-0.20369 0.49771,-0.20042 0.49774,-0.20188 0.49771,-0.20333 0.49774,-0.20609 0.49771,-0.20817 0.49775,-0.21026 0.49771,-0.21235 0.49771,-0.21494 0.49771,-0.21582 0.49774,-0.21718 0.49771,-0.21794 0.49774,-0.21932 0.49772,-0.22005 0.49774,-0.21943 0.49771,-0.22016 0.49774,-0.22007 0.49771,-0.21897 0.49774,-0.2184 0.49771,-0.21649 0.49775,-0.21656 0.49771,-0.21404 0.49774,-0.21282 0.49771,-0.21029 0.49771,-0.20961 0.49771,-0.20659 0.49774,-0.2041 0.49771,-0.20293 0.49775,-0.20497 0.49771,-0.20569 0.49774,-0.20966 0.49771,-0.21038 0.49774,-0.21304 0.49768,-0.21617 0.49774,-0.21638 0.49772,-0.21836 0.49774,-0.21844 0.49771,-0.22106 0.49774,-0.22109 0.49771,-0.22118 0.49774,-0.22185 0.49768,-0.22239 0.49775,-0.22071 0.49771,-0.22138 0.49774,-0.21955 0.49771,-0.21835 0.49774,-0.21718 0.49771,-0.21596 0.49774,-0.21415 0.49772,-0.21172 0.49771,-0.21104 0.49771,-0.20811 0.49774,-0.20512 0.49771,-0.20518 0.49774,-0.207154 0.49771,-0.210388 0.49775,-0.21106 0.49771,-0.214272 0.49771,-0.216652 0.49771,-0.216903 0.49774,-0.219399 0.49771,-0.22071 0.49774,-0.220772 0.49771,-0.222069 0.49775,-0.223351 0.49771,-0.223396 0.49774,-0.22345 0.49768,-0.22335 0.49774,-0.222931 0.49771,-0.221764 0.49774,-0.221206 0.49772,-0.220047 0.49774,-0.21827 0.49771,-0.216514 0.49774,-0.21537 0.49768,-0.213471 0.49774,-0.210663 0.49771,-0.209533 0.49775,-0.207184 0.49771,-0.207901 0.49774,-0.209786 0.49771,-0.211677 0.49774,-0.213562 0.49771,-0.216034 0.49771,-0.218384 0.49771,-0.219162 0.49775,-0.221008 0.49771,-0.221688 0.49774,-0.22293 0.49771,-0.223565 0.49774,-0.224235 0.49771,-0.223671 0.49774,-0.224777 0.49772,-0.223763 0.49774,-0.223228 0.49771,-0.222672 0.49774,-0.220375 0.49771,-0.220436 0.49774,-0.218704 0.49771,-0.216416 0.49775,-0.214706 0.49768,-0.214058 0.49774,-0.210739 0.49771,-0.209061 0.49774,-0.208 0.49771,-0.208626 0.49774,-0.211059 0.49772,-0.213494 0.49774,-0.214119 0.49771,-0.217575 0.49771,-0.218353 0.49774,-0.219582 0.49771,-0.221359 0.49774,-0.221992 0.49772,-0.222641 0.49774,-0.223847 0.49771,-0.223877 0.49774,-0.223953 0.49768,-0.223846 0.49774,-0.223458 0.49771,-0.222358 0.49775,-0.221825 0.49771,-0.219605 0.49774,-0.219627 0.49771,-0.21685 0.49774,-0.216332 0.49768,-0.214546 0.49774,-0.211914 0.49771,-0.210258 0.49775,-0.208069 0.49771,-0.207588 0.49774,-0.209382 0.49771,-0.211715 0.49774,-0.212929 0.49771,-0.215279 0.49771,-0.216896 0.49772,-0.21878 0.49774,-0.219971 0.49771,-0.220589 0.49774,-0.221779 0.49771,-0.222946 0.49774,-0.222999 0.49771,-0.223046 0.49772,-0.223518 0.49771,-0.223709 0.49774,-0.222069 0.49771,-0.221573 0.49774,-0.220497 0.49771,-0.219444 0.49774,-0.218399 0.49772,-0.216759 0.49774,-0.215179 0.49768,-0.213456 0.49774,-0.211433 0.49771,-0.208733 0.49774,-0.207717 0.49771,-0.207818 0.49775,-0.210075 0.49771,-0.212379 0.49774,-0.213532 0.49768,-0.216217 0.49774,-0.216972 0.49771,-0.218674 0.49774,-0.22039 0.49771,-0.22097 0.49775,-0.221581 0.49771,-0.222717 0.49774,-0.222206 0.49771,-0.223366 0.49774,-0.223297 0.49771,-0.222374 0.49774,-0.221886 0.49772,-0.220955 0.49771,-0.22065 0.49771,-0.218246 0.49774,-0.217209 0.49771,-0.215675 0.49774,-0.214089 0.49771,-0.212021 0.49775,-0.210472 0.49771,-0.20787 0.49774,-0.207405 0.49771,-0.208023 0.49774,-0.210785 0.49771,-0.211929 0.49774,-0.213593 0.49772,-0.215813 0.49774,-0.216934 0.49771,-0.218071 0.49774,-0.219185 0.49765,-0.221123 0.49774,-0.221427 0.49771,-0.22094 0.49775,-0.222054 0.49771,-0.221572 0.49774,-0.2211 0.49771,-0.22062 0.49774,-0.220664 0.49771,-0.21914 0.49774,-0.21762 0.49771,-0.216622 0.49775,-0.215629 0.49771,-0.213089 0.49774,-0.211541 0.49771,-0.21006 0.49774,-0.207527 0.49771,-0.206032 0.49768,-0.206382 0.49772,-0.207253 0.49774,-0.209396 0.49771,-0.211045 0.49774,-0.212143 0.49771,-0.213798 0.49774,-0.215386 0.49771,-0.216529 0.49775,-0.217606 0.49771,-0.217636 0.49774,-0.218758 0.49771,-0.219314 0.49774,-0.21888 0.49771,-0.218918 0.49774,-0.218445 0.49772,-0.218502 0.49774,-0.217563 0.49765,-0.216851 0.49774,-0.214584 0.49771,-0.213623 0.49774,-0.212147 0.49771,-0.210689 0.49774,-0.208718 0.49772,-0.206741 0.49774,-0.205318 0.49771,-0.203331 0.49774,-0.204468 0.49771,-0.205555 0.49774,-0.207157 0.49771,-0.209767 0.49775,-0.210861 0.49771,-0.211941 0.49774,-0.21352 0.49771,-0.215107 0.49771,-0.216449 0.49771,-0.216237 0.49774,-0.216293 0.49772,-0.217361 0.49774,-0.216915 0.49771,-0.217469 0.49774,-0.21653 0.49771,-0.216095 0.49774,-0.215648 0.49771,-0.213703 0.49775,-0.213269 0.49771,-0.211357 0.49774,-0.210415 0.49771,-0.208995 0.49774,-0.20657 0.49771,-0.205181 0.49774,-0.203266 0.49765,-0.202618 0.49775,-0.20393 0.49771,-0.20549 0.49771,-0.207577 0.49774,-0.208607 0.49774,-0.210662 0.49774,-0.211728 0.49768,-0.213283 0.49775,-0.213318 0.49774,-0.214874 0.49774,-0.215927 0.49768,-0.215973 0.49774,-0.216511 0.49774,-0.216576 0.49775,-0.216171 0.49768,-0.215217 0.49774,-0.21531 0.49768,-0.214641 0.49774,-0.212963 0.49774,-0.212097 0.49768,-0.210663 0.49774,-0.208794 0.49775,-0.206955 0.49768,-0.206032 0.49774,-0.203697 L 523,50.510021"
           style="fill:none;stroke:#77ac30;stroke-width:1.33333;stroke-linecap:butt;stroke-linejoin:round;stroke-miterlimit:10;stroke-dasharray:none;stroke-opacity:1"
           id="path3117" />
      </g>
      <g
         id="g3119"
         transform="matrix(6.0015184,0,0,6.0071961,793.70062,2460.4724)">
        <path
           d="M 274,104 V 23 H 157 v 81 z"
           style="fill:#ffffff;fill-opacity:1;fill-rule:nonzero;stroke:none"
           id="path3121" />
      </g>
      <g
         id="g3123">
        <g
           id="g3125"
           transform="matrix(6.0015184,0,0,6.0071961,2018.0104,2652.7027)">
          <text
             xml:space="preserve"
             transform="translate(0,4)"
             style="font-variant:normal;font-weight:normal;font-size:12px;font-family:'Times New Roman';-inkscape-font-specification:Times-Roman;writing-mode:lr-tb;fill:#000000;fill-opacity:1;fill-rule:nonzero;stroke:none"
             id="text3129"><tspan
               x="0 7.3319998"
               y="0"
               sodipodi:role="line"
               id="tspan3127">LS</tspan></text>
        </g>
      </g>
      <g
         id="g3131"
         transform="matrix(6.0015184,0,0,6.0071961,793.70062,2460.4724)">
        <path
           d="m 161,32 h 40"
           style="fill:none;stroke:#0072bd;stroke-width:1.33333;stroke-linecap:butt;stroke-linejoin:round;stroke-miterlimit:10;stroke-dasharray:none;stroke-opacity:1"
           id="path3133" />
      </g>
      <g
         id="g3135">
        <g
           id="g3137"
           transform="matrix(6.0015184,0,0,6.0071961,2018.0104,2739.807)">
          <text
             xml:space="preserve"
             transform="translate(0,4)"
             style="font-variant:normal;font-weight:normal;font-size:12px;font-family:'Times New Roman';-inkscape-font-specification:Times-Roman;writing-mode:lr-tb;fill:#000000;fill-opacity:1;fill-rule:nonzero;stroke:none"
             id="text3141"><tspan
               x="0 6.6719999"
               y="0"
               sodipodi:role="line"
               id="tspan3139">SL</tspan></text>
        </g>
      </g>
      <g
         id="g3143"
         transform="matrix(6.0015184,0,0,6.0071961,793.70062,2460.4724)">
        <path
           d="m 161,46.5 h 40"
           style="fill:none;stroke:#d95319;stroke-width:1.33333;stroke-linecap:butt;stroke-linejoin:round;stroke-miterlimit:10;stroke-dasharray:none;stroke-opacity:1"
           id="path3145" />
      </g>
      <g
         id="g3147">
        <g
           id="g3149"
           transform="matrix(6.0015184,0,0,6.0071961,2018.0104,2856.9474)">
          <text
             xml:space="preserve"
             style="font-variant:normal;font-weight:normal;font-size:12px;font-family:'Times New Roman';-inkscape-font-specification:Times-Roman;writing-mode:lr-tb;fill:#000000;fill-opacity:1;fill-rule:nonzero;stroke:none"
             id="text3153"><tspan
               x="0 7.3319998"
               y="0"
               sodipodi:role="line"
               id="tspan3151">LS</tspan></text>
        </g>
      </g>
      <g
         id="g3155">
        <g
           id="g3157"
           transform="matrix(6.0015184,0,0,6.0071961,2108.0331,2892.9905)">
          <text
             xml:space="preserve"
             style="font-variant:normal;font-weight:normal;font-size:9.6px;font-family:'Times New Roman';-inkscape-font-specification:Times-Roman;writing-mode:lr-tb;fill:#000000;fill-opacity:1;fill-rule:nonzero;stroke:none"
             id="text3161"><tspan
               x="0 2.6688001 6.9312 10.128 14.928 19.190399 22.924801 25.593599 27.993601 32.793598 37.056 39.7248"
               y="0"
               sodipodi:role="line"
               id="tspan3159">largest gate</tspan></text>
        </g>
      </g>
      <g
         id="g3163"
         transform="matrix(6.0015184,0,0,6.0071961,793.70062,2460.4724)">
        <path
           d="m 161,63.5 h 40"
           style="fill:none;stroke:#edb120;stroke-width:1.33333;stroke-linecap:butt;stroke-linejoin:round;stroke-miterlimit:10;stroke-dasharray:none;stroke-opacity:1"
           id="path3165" />
      </g>
      <g
         id="g3167">
        <g
           id="g3169"
           transform="matrix(6.0015184,0,0,6.0071961,2018.0104,2944.0517)">
          <text
             xml:space="preserve"
             transform="translate(0,4)"
             style="font-variant:normal;font-weight:normal;font-size:12px;font-family:'Times New Roman';-inkscape-font-specification:Times-Roman;writing-mode:lr-tb;fill:#000000;fill-opacity:1;fill-rule:nonzero;stroke:none"
             id="text3173"><tspan
               x="0 6 12 15.996 19.332001 22.332001 31.667999 37.667999 43.667999 48.995998 51.995998 55.992001 61.32"
               y="0"
               sodipodi:role="line"
               id="tspan3171">port mode ref</tspan></text>
        </g>
      </g>
      <g
         id="g3175"
         transform="matrix(6.0015184,0,0,6.0071961,793.70062,2460.4724)">
        <path
           d="m 161,80.5 h 40"
           style="fill:none;stroke:#7e2f8e;stroke-width:1.33333;stroke-linecap:butt;stroke-linejoin:round;stroke-miterlimit:10;stroke-dasharray:none;stroke-opacity:1"
           id="path3177" />
      </g>
      <g
         id="g3179">
        <g
           id="g3181"
           transform="matrix(6.0015184,0,0,6.0071961,2018.0104,3031.156)">
          <text
             xml:space="preserve"
             transform="translate(0,4)"
             style="font-variant:normal;font-weight:normal;font-size:12px;font-family:'Times New Roman';-inkscape-font-specification:Times-Roman;writing-mode:lr-tb;fill:#000000;fill-opacity:1;fill-rule:nonzero;stroke:none"
             id="text3185"><tspan
               x="0 3.9960001 9.9960003 13.332 16.667999 25.332001 30.66 36.66 41.987999 44.987999 48.984001 54.312"
               y="0"
               sodipodi:role="line"
               id="tspan3183">fullwave ref</tspan></text>
        </g>
      </g>
      <g
         id="g3187"
         transform="matrix(6.0015184,0,0,6.0071961,793.70062,2460.4724)">
        <path
           d="m 161,95 h 40"
           style="fill:none;stroke:#77ac30;stroke-width:1.33333;stroke-linecap:butt;stroke-linejoin:round;stroke-miterlimit:10;stroke-dasharray:none;stroke-opacity:1"
           id="path3189" />
      </g>
      <g
         id="g3191"
         transform="matrix(6.0015184,0,0,6.0071961,793.70062,2460.4724)">
        <path
           d="M 157,104 V 23 h 117 v 81 z"
           style="fill:none;stroke:#262626;stroke-width:1.33333;stroke-linecap:butt;stroke-linejoin:miter;stroke-miterlimit:10;stroke-dasharray:none;stroke-opacity:1"
           id="path3193" />
      </g>
    </g>
  </g>
</svg>
