<?xml version="1.0" encoding="UTF-8" standalone="no"?>
<svg
   sodipodi:docname="epsilon.svg"
   id="svg338"
   version="1.1"
   viewBox="0 0 454.6617 219.56338"
   height="219.56337pt"
   width="454.66171pt"
   inkscape:version="1.2.1 (9c6d41e410, 2022-07-14)"
   xmlns:inkscape="http://www.inkscape.org/namespaces/inkscape"
   xmlns:sodipodi="http://sodipodi.sourceforge.net/DTD/sodipodi-0.dtd"
   xmlns="http://www.w3.org/2000/svg"
   xmlns:svg="http://www.w3.org/2000/svg"
   xmlns:rdf="http://www.w3.org/1999/02/22-rdf-syntax-ns#"
   xmlns:cc="http://creativecommons.org/ns#"
   xmlns:dc="http://purl.org/dc/elements/1.1/">
  <sodipodi:namedview
     id="namedview340"
     pagecolor="#ffffff"
     bordercolor="#000000"
     borderopacity="0.25"
     inkscape:showpageshadow="2"
     inkscape:pageopacity="0.0"
     inkscape:pagecheckerboard="0"
     inkscape:deskcolor="#d1d1d1"
     inkscape:document-units="pt"
     showgrid="false"
     inkscape:zoom="1.6714464"
     inkscape:cx="302.73182"
     inkscape:cy="186.06639"
     inkscape:window-width="1680"
     inkscape:window-height="979"
     inkscape:window-x="-8"
     inkscape:window-y="-8"
     inkscape:window-maximized="1"
     inkscape:current-layer="figure_1" />
  <metadata
     id="metadata2">
    <rdf:RDF>
      <cc:Work>
        <dc:type
           rdf:resource="http://purl.org/dc/dcmitype/StillImage" />
        <dc:date />
        <dc:format />
        <dc:creator>
          <cc:Agent>
            <dc:title />
          </cc:Agent>
        </dc:creator>
      </cc:Work>
    </rdf:RDF>
  </metadata>
  <defs
     id="defs6">
    <style
       type="text/css"
       id="style4">*{stroke-linejoin: round; stroke-linecap: butt}</style>
    <defs
       id="defs15">
      <path
         id="m27417d02d7"
         d="M 0,0 V 3.5"
         style="stroke:#000000;stroke-width:0.8" />
    </defs>
    <defs
       id="defs23">
      <path
         id="DejaVuSans-32"
         d="M 1228,531 H 3431 V 0 H 469 v 531 q 359,372 979,998 621,627 780,809 303,340 423,576 121,236 121,464 0,372 -261,606 -261,235 -680,235 -297,0 -627,-103 -329,-103 -704,-313 v 638 q 381,153 712,231 332,78 607,78 725,0 1156,-363 431,-362 431,-968 0,-288 -108,-546 -107,-257 -392,-607 -78,-91 -497,-524 Q 1991,1309 1228,531 Z"
         transform="scale(0.015625)" />
    </defs>
    <defs
       id="defs37">
      <path
         id="DejaVuSans-34"
         d="M 2419,4116 825,1625 h 1594 z m -166,550 h 794 V 1625 h 666 V 1100 H 3047 V 0 H 2419 V 1100 H 313 v 609 z"
         transform="scale(0.015625)" />
    </defs>
    <defs
       id="defs51">
      <path
         id="DejaVuSans-36"
         d="m 2113,2584 q -425,0 -674,-291 -248,-290 -248,-796 0,-503 248,-796 249,-292 674,-292 425,0 673,292 248,293 248,796 0,506 -248,796 -248,291 -673,291 z m 1253,1979 v -575 q -238,112 -480,171 -242,60 -480,60 -625,0 -955,-422 -329,-422 -376,-1275 184,272 462,417 279,145 613,145 703,0 1111,-427 408,-426 408,-1160 0,-719 -425,-1154 -425,-434 -1131,-434 -810,0 -1238,620 -428,621 -428,1799 0,1106 525,1764 525,658 1409,658 238,0 480,-47 242,-47 505,-140 z"
         transform="scale(0.015625)" />
    </defs>
    <defs
       id="defs65">
      <path
         id="DejaVuSans-38"
         d="m 2034,2216 q -450,0 -708,-241 -257,-241 -257,-662 0,-422 257,-663 258,-241 708,-241 450,0 709,242 260,243 260,662 0,421 -258,662 -257,241 -711,241 z m -631,268 q -406,100 -633,378 -226,279 -226,679 0,559 398,884 399,325 1092,325 697,0 1094,-325 397,-325 397,-884 0,-400 -227,-679 -226,-278 -629,-378 456,-106 710,-416 255,-309 255,-755 Q 3634,634 3220,271 2806,-91 2034,-91 1263,-91 848,271 434,634 434,1313 q 0,446 256,755 257,310 713,416 z m -231,997 q 0,-362 226,-565 227,-203 636,-203 407,0 636,203 230,203 230,565 0,363 -230,566 -229,203 -636,203 -409,0 -636,-203 -226,-203 -226,-566 z"
         transform="scale(0.015625)" />
    </defs>
    <defs
       id="defs80">
      <path
         id="DejaVuSans-31"
         d="M 794,531 H 1825 V 4091 L 703,3866 v 575 l 1116,225 h 631 V 531 H 3481 V 0 H 794 Z"
         transform="scale(0.015625)" />
      <path
         id="DejaVuSans-30"
         d="m 2034,4250 q -487,0 -733,-480 -245,-479 -245,-1442 0,-959 245,-1439 246,-480 733,-480 491,0 736,480 246,480 246,1439 0,963 -246,1442 -245,480 -736,480 z m 0,500 q 785,0 1199,-621 414,-620 414,-1801 0,-1178 -414,-1799 -414,-620 -1199,-620 -784,0 -1198,620 -414,621 -414,1799 0,1181 414,1801 414,621 1198,621 z"
         transform="scale(0.015625)" />
    </defs>
    <defs
       id="defs131">
      <path
         id="mba88fc31a3"
         d="M 0,0 H -3.5"
         style="stroke:#000000;stroke-width:0.8" />
    </defs>
    <defs
       id="defs140">
      <path
         id="DejaVuSans-33"
         d="m 2597,2516 q 453,-97 707,-404 255,-306 255,-756 0,-690 -475,-1069 -475,-378 -1350,-378 -293,0 -604,58 -311,58 -642,174 v 609 q 262,-153 574,-231 313,-78 654,-78 593,0 904,234 311,234 311,681 0,413 -289,645 -289,233 -804,233 h -544 v 519 h 569 q 465,0 712,186 247,186 247,536 0,359 -255,551 -254,193 -729,193 -260,0 -557,-57 -297,-56 -653,-174 v 562 q 360,100 674,150 314,50 592,50 719,0 1137,-327 419,-326 419,-882 0,-388 -222,-655 -222,-267 -631,-370 z"
         transform="scale(0.015625)" />
      <path
         id="DejaVuSans-2e"
         d="m 684,794 h 660 V 0 H 684 Z"
         transform="scale(0.015625)" />
    </defs>
  </defs>
  <g
     id="figure_1"
     transform="matrix(1 0 0 0.694915 0 -6.34576)">
    <path
       d="M 40.256984,271.64 H 446.31429 V 26.88 H 40.256984 Z"
       style="stroke-linejoin:round;stroke-linecap:butt;fill:#ffffff;opacity:1.0"
       id="path11"
       transform="matrix(1 0 0 1.03727 0 -10.6725)" />
    <path
       d="M 0,0 V 3.5"
       style="stroke-linejoin:round;stroke-linecap:butt;stroke:#000000;stroke-width:0.8;opacity:1.0"
       id="use17"
       transform="matrix(1 0 0 1.03727 49.1966 271.091)"
       unlinked_clone="True" />
    <g
       id="text_1"
       mpl_comment="2"
       style="stroke-linejoin:round;stroke-linecap:butt;opacity:1.0"
       transform="matrix(1 0 0 1.03727 0 -10.6725)">
      <path
         d="M 1228,531 H 3431 V 0 H 469 v 531 q 359,372 979,998 621,627 780,809 303,340 423,576 121,236 121,464 0,372 -261,606 -261,235 -680,235 -297,0 -627,-103 -329,-103 -704,-313 v 638 q 381,153 712,231 332,78 607,78 725,0 1156,-363 431,-362 431,-968 0,-288 -108,-546 -107,-257 -392,-607 -78,-91 -497,-524 Q 1991,1309 1228,531 Z"
         transform="matrix(0.0015625 0 0 -0.0015625 46.0153 286.238)"
         id="use25"
         style="stroke-linejoin:round;stroke-linecap:butt;opacity:1.0"
         unlinked_clone="True" />
    </g>
    <path
       d="M 0,0 V 3.5"
       style="stroke-linejoin:round;stroke-linecap:butt;stroke:#000000;stroke-width:0.8;opacity:1.0"
       id="use31"
       transform="matrix(1 0 0 1.03727 100.162 271.091)"
       unlinked_clone="True" />
    <g
       id="text_2"
       mpl_comment="4"
       style="stroke-linejoin:round;stroke-linecap:butt;opacity:1.0"
       transform="matrix(1 0 0 1.03727 0 -10.6725)">
      <path
         d="M 2419,4116 825,1625 h 1594 z m -166,550 h 794 V 1625 h 666 V 1100 H 3047 V 0 H 2419 V 1100 H 313 v 609 z"
         transform="matrix(0.0015625 0 0 -0.0015625 96.9812 286.238)"
         id="use39"
         style="stroke-linejoin:round;stroke-linecap:butt;opacity:1.0"
         unlinked_clone="True" />
    </g>
    <path
       d="M 0,0 V 3.5"
       style="stroke-linejoin:round;stroke-linecap:butt;stroke:#000000;stroke-width:0.8;opacity:1.0"
       id="use45"
       transform="matrix(1 0 0 1.03727 151.128 271.091)"
       unlinked_clone="True" />
    <g
       id="text_3"
       mpl_comment="6"
       style="stroke-linejoin:round;stroke-linecap:butt;opacity:1.0"
       transform="matrix(1 0 0 1.03727 0 -10.6725)">
      <path
         d="m 2113,2584 q -425,0 -674,-291 -248,-290 -248,-796 0,-503 248,-796 249,-292 674,-292 425,0 673,292 248,293 248,796 0,506 -248,796 -248,291 -673,291 z m 1253,1979 v -575 q -238,112 -480,171 -242,60 -480,60 -625,0 -955,-422 -329,-422 -376,-1275 184,272 462,417 279,145 613,145 703,0 1111,-427 408,-426 408,-1160 0,-719 -425,-1154 -425,-434 -1131,-434 -810,0 -1238,620 -428,621 -428,1799 0,1106 525,1764 525,658 1409,658 238,0 480,-47 242,-47 505,-140 z"
         transform="matrix(0.0015625 0 0 -0.0015625 147.947 286.238)"
         id="use53"
         style="stroke-linejoin:round;stroke-linecap:butt;opacity:1.0"
         unlinked_clone="True" />
    </g>
    <path
       d="M 0,0 V 3.5"
       style="stroke-linejoin:round;stroke-linecap:butt;stroke:#000000;stroke-width:0.8;opacity:1.0"
       id="use59"
       transform="matrix(1 0 0 1.03727 202.094 271.091)"
       unlinked_clone="True" />
    <g
       id="text_4"
       mpl_comment="8"
       style="stroke-linejoin:round;stroke-linecap:butt;opacity:1.0"
       transform="matrix(1 0 0 1.03727 0 -10.6725)">
      <path
         d="m 2034,2216 q -450,0 -708,-241 -257,-241 -257,-662 0,-422 257,-663 258,-241 708,-241 450,0 709,242 260,243 260,662 0,421 -258,662 -257,241 -711,241 z m -631,268 q -406,100 -633,378 -226,279 -226,679 0,559 398,884 399,325 1092,325 697,0 1094,-325 397,-325 397,-884 0,-400 -227,-679 -226,-278 -629,-378 456,-106 710,-416 255,-309 255,-755 Q 3634,634 3220,271 2806,-91 2034,-91 1263,-91 848,271 434,634 434,1313 q 0,446 256,755 257,310 713,416 z m -231,997 q 0,-362 226,-565 227,-203 636,-203 407,0 636,203 230,203 230,565 0,363 -230,566 -229,203 -636,203 -409,0 -636,-203 -226,-203 -226,-566 z"
         transform="matrix(0.0015625 0 0 -0.0015625 198.913 286.238)"
         id="use67"
         style="stroke-linejoin:round;stroke-linecap:butt;opacity:1.0"
         unlinked_clone="True" />
    </g>
    <path
       d="M 0,0 V 3.5"
       style="stroke-linejoin:round;stroke-linecap:butt;stroke:#000000;stroke-width:0.8;opacity:1.0"
       id="use73"
       transform="matrix(1 0 0 1.03727 253.06 271.091)"
       unlinked_clone="True" />
    <g
       id="text_5"
       mpl_comment="10"
       style="stroke-linejoin:round;stroke-linecap:butt;opacity:1.0"
       transform="matrix(1 0 0 1.03727 0 -10.6725)">
      <path
         d="M 794,531 H 1825 V 4091 L 703,3866 v 575 l 1116,225 h 631 V 531 H 3481 V 0 H 794 Z"
         transform="matrix(0.0015625 0 0 -0.0015625 246.698 286.238)"
         id="use82"
         style="stroke-linejoin:round;stroke-linecap:butt;opacity:1.0"
         unlinked_clone="True" />
      <path
         d="m 2034,4250 q -487,0 -733,-480 -245,-479 -245,-1442 0,-959 245,-1439 246,-480 733,-480 491,0 736,480 246,480 246,1439 0,963 -246,1442 -245,480 -736,480 z m 0,500 q 785,0 1199,-621 414,-620 414,-1801 0,-1178 -414,-1799 -414,-620 -1199,-620 -784,0 -1198,620 -414,621 -414,1799 0,1181 414,1801 414,621 1198,621 z"
         transform="matrix(0.0015625 0 0 -0.0015625 253.06 286.238)"
         id="use84"
         style="stroke-linejoin:round;stroke-linecap:butt;opacity:1.0"
         unlinked_clone="True" />
    </g>
    <path
       d="M 0,0 V 3.5"
       style="stroke-linejoin:round;stroke-linecap:butt;stroke:#000000;stroke-width:0.8;opacity:1.0"
       id="use90"
       transform="matrix(1 0 0 1.03727 304.026 271.091)"
       unlinked_clone="True" />
    <g
       id="text_6"
       mpl_comment="12"
       style="stroke-linejoin:round;stroke-linecap:butt;opacity:1.0"
       transform="matrix(1 0 0 1.03727 0 -10.6725)">
      <path
         d="M 794,531 H 1825 V 4091 L 703,3866 v 575 l 1116,225 h 631 V 531 H 3481 V 0 H 794 Z"
         transform="matrix(0.0015625 0 0 -0.0015625 297.663 286.238)"
         id="use95"
         style="stroke-linejoin:round;stroke-linecap:butt;opacity:1.0"
         unlinked_clone="True" />
      <path
         d="M 1228,531 H 3431 V 0 H 469 v 531 q 359,372 979,998 621,627 780,809 303,340 423,576 121,236 121,464 0,372 -261,606 -261,235 -680,235 -297,0 -627,-103 -329,-103 -704,-313 v 638 q 381,153 712,231 332,78 607,78 725,0 1156,-363 431,-362 431,-968 0,-288 -108,-546 -107,-257 -392,-607 -78,-91 -497,-524 Q 1991,1309 1228,531 Z"
         transform="matrix(0.0015625 0 0 -0.0015625 304.026 286.238)"
         id="use97"
         style="stroke-linejoin:round;stroke-linecap:butt;opacity:1.0"
         unlinked_clone="True" />
    </g>
    <path
       d="M 0,0 V 3.5"
       style="stroke-linejoin:round;stroke-linecap:butt;stroke:#000000;stroke-width:0.8;opacity:1.0"
       id="use103"
       transform="matrix(1 0 0 1.03727 354.992 271.091)"
       unlinked_clone="True" />
    <g
       id="text_7"
       mpl_comment="14"
       style="stroke-linejoin:round;stroke-linecap:butt;opacity:1.0"
       transform="matrix(1 0 0 1.03727 0 -10.6725)">
      <path
         d="M 794,531 H 1825 V 4091 L 703,3866 v 575 l 1116,225 h 631 V 531 H 3481 V 0 H 794 Z"
         transform="matrix(0.0015625 0 0 -0.0015625 348.629 286.238)"
         id="use108"
         style="stroke-linejoin:round;stroke-linecap:butt;opacity:1.0"
         unlinked_clone="True" />
      <path
         d="M 2419,4116 825,1625 h 1594 z m -166,550 h 794 V 1625 h 666 V 1100 H 3047 V 0 H 2419 V 1100 H 313 v 609 z"
         transform="matrix(0.0015625 0 0 -0.0015625 354.992 286.238)"
         id="use110"
         style="stroke-linejoin:round;stroke-linecap:butt;opacity:1.0"
         unlinked_clone="True" />
    </g>
    <path
       d="M 0,0 V 3.5"
       style="stroke-linejoin:round;stroke-linecap:butt;stroke:#000000;stroke-width:0.8;opacity:1.0"
       id="use116"
       transform="matrix(1 0 0 1.03727 405.958 271.091)"
       unlinked_clone="True" />
    <g
       id="text_8"
       mpl_comment="16"
       style="stroke-linejoin:round;stroke-linecap:butt;opacity:1.0"
       transform="matrix(1 0 0 1.03727 0 -10.6725)">
      <path
         d="M 794,531 H 1825 V 4091 L 703,3866 v 575 l 1116,225 h 631 V 531 H 3481 V 0 H 794 Z"
         transform="matrix(0.0015625 0 0 -0.0015625 399.595 286.238)"
         id="use121"
         style="stroke-linejoin:round;stroke-linecap:butt;opacity:1.0"
         unlinked_clone="True" />
      <path
         d="m 2113,2584 q -425,0 -674,-291 -248,-290 -248,-796 0,-503 248,-796 249,-292 674,-292 425,0 673,292 248,293 248,796 0,506 -248,796 -248,291 -673,291 z m 1253,1979 v -575 q -238,112 -480,171 -242,60 -480,60 -625,0 -955,-422 -329,-422 -376,-1275 184,272 462,417 279,145 613,145 703,0 1111,-427 408,-426 408,-1160 0,-719 -425,-1154 -425,-434 -1131,-434 -810,0 -1238,620 -428,621 -428,1799 0,1106 525,1764 525,658 1409,658 238,0 480,-47 242,-47 505,-140 z"
         transform="matrix(0.0015625 0 0 -0.0015625 405.958 286.238)"
         id="use123"
         style="stroke-linejoin:round;stroke-linecap:butt;opacity:1.0"
         unlinked_clone="True" />
    </g>
    <path
       d="M 0,0 H -3.5"
       style="stroke-linejoin:round;stroke-linecap:butt;stroke:#000000;stroke-width:0.8;opacity:1.0"
       id="use133"
       transform="matrix(1 0 0 1.03727 40.257 267.908)"
       unlinked_clone="True" />
    <g
       id="text_9"
       mpl_comment="3.20"
       style="stroke-linejoin:round;stroke-linecap:butt;opacity:1.0"
       transform="matrix(1 0 0 1.03727 0 -10.6725)">
      <path
         d="m 2597,2516 q 453,-97 707,-404 255,-306 255,-756 0,-690 -475,-1069 -475,-378 -1350,-378 -293,0 -604,58 -311,58 -642,174 v 609 q 262,-153 574,-231 313,-78 654,-78 593,0 904,234 311,234 311,681 0,413 -289,645 -289,233 -804,233 h -544 v 519 h 569 q 465,0 712,186 247,186 247,536 0,359 -255,551 -254,193 -729,193 -260,0 -557,-57 -297,-56 -653,-174 v 562 q 360,100 674,150 314,50 592,50 719,0 1137,-327 419,-326 419,-882 0,-388 -222,-655 -222,-267 -631,-370 z"
         transform="matrix(0.0015625 0 0 -0.0015625 10.9914 272.371)"
         id="use142"
         style="stroke-linejoin:round;stroke-linecap:butt;opacity:1.0"
         unlinked_clone="True" />
      <path
         d="m 684,794 h 660 V 0 H 684 Z"
         transform="matrix(0.0015625 0 0 -0.0015625 17.3537 272.371)"
         id="use144"
         style="stroke-linejoin:round;stroke-linecap:butt;opacity:1.0"
         unlinked_clone="True" />
      <path
         d="M 1228,531 H 3431 V 0 H 469 v 531 q 359,372 979,998 621,627 780,809 303,340 423,576 121,236 121,464 0,372 -261,606 -261,235 -680,235 -297,0 -627,-103 -329,-103 -704,-313 v 638 q 381,153 712,231 332,78 607,78 725,0 1156,-363 431,-362 431,-968 0,-288 -108,-546 -107,-257 -392,-607 -78,-91 -497,-524 Q 1991,1309 1228,531 Z"
         transform="matrix(0.0015625 0 0 -0.0015625 20.5324 272.371)"
         id="use146"
         style="stroke-linejoin:round;stroke-linecap:butt;opacity:1.0"
         unlinked_clone="True" />
      <path
         d="m 2034,4250 q -487,0 -733,-480 -245,-479 -245,-1442 0,-959 245,-1439 246,-480 733,-480 491,0 736,480 246,480 246,1439 0,963 -246,1442 -245,480 -736,480 z m 0,500 q 785,0 1199,-621 414,-620 414,-1801 0,-1178 -414,-1799 -414,-620 -1199,-620 -784,0 -1198,620 -414,621 -414,1799 0,1181 414,1801 414,621 1198,621 z"
         transform="matrix(0.0015625 0 0 -0.0015625 26.8947 272.371)"
         id="use148"
         style="stroke-linejoin:round;stroke-linecap:butt;opacity:1.0"
         unlinked_clone="True" />
    </g>
    <path
       d="M 0,0 H -3.5"
       style="stroke-linejoin:round;stroke-linecap:butt;stroke:#000000;stroke-width:0.8;opacity:1.0"
       id="use154"
       transform="matrix(1 0 0 1.03727 40.257 236.494)"
       unlinked_clone="True" />
    <g
       id="text_10"
       mpl_comment="3.22"
       style="stroke-linejoin:round;stroke-linecap:butt;opacity:1.0"
       transform="matrix(1 0 0 1.03727 0 -10.6725)">
      <path
         d="m 2597,2516 q 453,-97 707,-404 255,-306 255,-756 0,-690 -475,-1069 -475,-378 -1350,-378 -293,0 -604,58 -311,58 -642,174 v 609 q 262,-153 574,-231 313,-78 654,-78 593,0 904,234 311,234 311,681 0,413 -289,645 -289,233 -804,233 h -544 v 519 h 569 q 465,0 712,186 247,186 247,536 0,359 -255,551 -254,193 -729,193 -260,0 -557,-57 -297,-56 -653,-174 v 562 q 360,100 674,150 314,50 592,50 719,0 1137,-327 419,-326 419,-882 0,-388 -222,-655 -222,-267 -631,-370 z"
         transform="matrix(0.0015625 0 0 -0.0015625 10.9914 242.086)"
         id="use159"
         style="stroke-linejoin:round;stroke-linecap:butt;opacity:1.0"
         unlinked_clone="True" />
      <path
         d="m 684,794 h 660 V 0 H 684 Z"
         transform="matrix(0.0015625 0 0 -0.0015625 17.3537 242.086)"
         id="use161"
         style="stroke-linejoin:round;stroke-linecap:butt;opacity:1.0"
         unlinked_clone="True" />
      <path
         d="M 1228,531 H 3431 V 0 H 469 v 531 q 359,372 979,998 621,627 780,809 303,340 423,576 121,236 121,464 0,372 -261,606 -261,235 -680,235 -297,0 -627,-103 -329,-103 -704,-313 v 638 q 381,153 712,231 332,78 607,78 725,0 1156,-363 431,-362 431,-968 0,-288 -108,-546 -107,-257 -392,-607 -78,-91 -497,-524 Q 1991,1309 1228,531 Z"
         transform="matrix(0.0015625 0 0 -0.0015625 20.5324 242.086)"
         id="use163"
         style="stroke-linejoin:round;stroke-linecap:butt;opacity:1.0"
         unlinked_clone="True" />
      <path
         d="M 1228,531 H 3431 V 0 H 469 v 531 q 359,372 979,998 621,627 780,809 303,340 423,576 121,236 121,464 0,372 -261,606 -261,235 -680,235 -297,0 -627,-103 -329,-103 -704,-313 v 638 q 381,153 712,231 332,78 607,78 725,0 1156,-363 431,-362 431,-968 0,-288 -108,-546 -107,-257 -392,-607 -78,-91 -497,-524 Q 1991,1309 1228,531 Z"
         transform="matrix(0.0015625 0 0 -0.0015625 26.8947 242.086)"
         id="use165"
         style="stroke-linejoin:round;stroke-linecap:butt;opacity:1.0"
         unlinked_clone="True" />
    </g>
    <path
       d="M 0,0 H -3.5"
       style="stroke-linejoin:round;stroke-linecap:butt;stroke:#000000;stroke-width:0.8;opacity:1.0"
       id="use171"
       transform="matrix(1 0 0 1.03727 40.257 205.081)"
       unlinked_clone="True" />
    <g
       id="text_11"
       mpl_comment="3.24"
       style="stroke-linejoin:round;stroke-linecap:butt;opacity:1.0"
       transform="matrix(1 0 0 1.03727 0 -10.6725)">
      <path
         d="m 2597,2516 q 453,-97 707,-404 255,-306 255,-756 0,-690 -475,-1069 -475,-378 -1350,-378 -293,0 -604,58 -311,58 -642,174 v 609 q 262,-153 574,-231 313,-78 654,-78 593,0 904,234 311,234 311,681 0,413 -289,645 -289,233 -804,233 h -544 v 519 h 569 q 465,0 712,186 247,186 247,536 0,359 -255,551 -254,193 -729,193 -260,0 -557,-57 -297,-56 -653,-174 v 562 q 360,100 674,150 314,50 592,50 719,0 1137,-327 419,-326 419,-882 0,-388 -222,-655 -222,-267 -631,-370 z"
         transform="matrix(0.0015625 0 0 -0.0015625 10.9914 211.801)"
         id="use176"
         style="stroke-linejoin:round;stroke-linecap:butt;opacity:1.0"
         unlinked_clone="True" />
      <path
         d="m 684,794 h 660 V 0 H 684 Z"
         transform="matrix(0.0015625 0 0 -0.0015625 17.3537 211.801)"
         id="use178"
         style="stroke-linejoin:round;stroke-linecap:butt;opacity:1.0"
         unlinked_clone="True" />
      <path
         d="M 1228,531 H 3431 V 0 H 469 v 531 q 359,372 979,998 621,627 780,809 303,340 423,576 121,236 121,464 0,372 -261,606 -261,235 -680,235 -297,0 -627,-103 -329,-103 -704,-313 v 638 q 381,153 712,231 332,78 607,78 725,0 1156,-363 431,-362 431,-968 0,-288 -108,-546 -107,-257 -392,-607 -78,-91 -497,-524 Q 1991,1309 1228,531 Z"
         transform="matrix(0.0015625 0 0 -0.0015625 20.5324 211.801)"
         id="use180"
         style="stroke-linejoin:round;stroke-linecap:butt;opacity:1.0"
         unlinked_clone="True" />
      <path
         d="M 2419,4116 825,1625 h 1594 z m -166,550 h 794 V 1625 h 666 V 1100 H 3047 V 0 H 2419 V 1100 H 313 v 609 z"
         transform="matrix(0.0015625 0 0 -0.0015625 26.8947 211.801)"
         id="use182"
         style="stroke-linejoin:round;stroke-linecap:butt;opacity:1.0"
         unlinked_clone="True" />
    </g>
    <path
       d="M 0,0 H -3.5"
       style="stroke-linejoin:round;stroke-linecap:butt;stroke:#000000;stroke-width:0.8;opacity:1.0"
       id="use188"
       transform="matrix(1 0 0 1.03727 40.257 173.667)"
       unlinked_clone="True" />
    <g
       id="text_12"
       mpl_comment="3.26"
       style="stroke-linejoin:round;stroke-linecap:butt;opacity:1.0"
       transform="matrix(1 0 0 1.03727 0 -10.6725)">
      <path
         d="m 2597,2516 q 453,-97 707,-404 255,-306 255,-756 0,-690 -475,-1069 -475,-378 -1350,-378 -293,0 -604,58 -311,58 -642,174 v 609 q 262,-153 574,-231 313,-78 654,-78 593,0 904,234 311,234 311,681 0,413 -289,645 -289,233 -804,233 h -544 v 519 h 569 q 465,0 712,186 247,186 247,536 0,359 -255,551 -254,193 -729,193 -260,0 -557,-57 -297,-56 -653,-174 v 562 q 360,100 674,150 314,50 592,50 719,0 1137,-327 419,-326 419,-882 0,-388 -222,-655 -222,-267 -631,-370 z"
         transform="matrix(0.0015625 0 0 -0.0015625 10.9914 181.516)"
         id="use193"
         style="stroke-linejoin:round;stroke-linecap:butt;opacity:1.0"
         unlinked_clone="True" />
      <path
         d="m 684,794 h 660 V 0 H 684 Z"
         transform="matrix(0.0015625 0 0 -0.0015625 17.3537 181.516)"
         id="use195"
         style="stroke-linejoin:round;stroke-linecap:butt;opacity:1.0"
         unlinked_clone="True" />
      <path
         d="M 1228,531 H 3431 V 0 H 469 v 531 q 359,372 979,998 621,627 780,809 303,340 423,576 121,236 121,464 0,372 -261,606 -261,235 -680,235 -297,0 -627,-103 -329,-103 -704,-313 v 638 q 381,153 712,231 332,78 607,78 725,0 1156,-363 431,-362 431,-968 0,-288 -108,-546 -107,-257 -392,-607 -78,-91 -497,-524 Q 1991,1309 1228,531 Z"
         transform="matrix(0.0015625 0 0 -0.0015625 20.5324 181.516)"
         id="use197"
         style="stroke-linejoin:round;stroke-linecap:butt;opacity:1.0"
         unlinked_clone="True" />
      <path
         d="m 2113,2584 q -425,0 -674,-291 -248,-290 -248,-796 0,-503 248,-796 249,-292 674,-292 425,0 673,292 248,293 248,796 0,506 -248,796 -248,291 -673,291 z m 1253,1979 v -575 q -238,112 -480,171 -242,60 -480,60 -625,0 -955,-422 -329,-422 -376,-1275 184,272 462,417 279,145 613,145 703,0 1111,-427 408,-426 408,-1160 0,-719 -425,-1154 -425,-434 -1131,-434 -810,0 -1238,620 -428,621 -428,1799 0,1106 525,1764 525,658 1409,658 238,0 480,-47 242,-47 505,-140 z"
         transform="matrix(0.0015625 0 0 -0.0015625 26.8947 181.516)"
         id="use199"
         style="stroke-linejoin:round;stroke-linecap:butt;opacity:1.0"
         unlinked_clone="True" />
    </g>
    <path
       d="M 0,0 H -3.5"
       style="stroke-linejoin:round;stroke-linecap:butt;stroke:#000000;stroke-width:0.8;opacity:1.0"
       id="use205"
       transform="matrix(1 0 0 1.03727 40.257 142.253)"
       unlinked_clone="True" />
    <g
       id="text_13"
       mpl_comment="3.28"
       style="stroke-linejoin:round;stroke-linecap:butt;opacity:1.0"
       transform="matrix(1 0 0 1.03727 0 -10.6725)">
      <path
         d="m 2597,2516 q 453,-97 707,-404 255,-306 255,-756 0,-690 -475,-1069 -475,-378 -1350,-378 -293,0 -604,58 -311,58 -642,174 v 609 q 262,-153 574,-231 313,-78 654,-78 593,0 904,234 311,234 311,681 0,413 -289,645 -289,233 -804,233 h -544 v 519 h 569 q 465,0 712,186 247,186 247,536 0,359 -255,551 -254,193 -729,193 -260,0 -557,-57 -297,-56 -653,-174 v 562 q 360,100 674,150 314,50 592,50 719,0 1137,-327 419,-326 419,-882 0,-388 -222,-655 -222,-267 -631,-370 z"
         transform="matrix(0.0015625 0 0 -0.0015625 10.9914 151.23)"
         id="use210"
         style="stroke-linejoin:round;stroke-linecap:butt;opacity:1.0"
         unlinked_clone="True" />
      <path
         d="m 684,794 h 660 V 0 H 684 Z"
         transform="matrix(0.0015625 0 0 -0.0015625 17.3537 151.23)"
         id="use212"
         style="stroke-linejoin:round;stroke-linecap:butt;opacity:1.0"
         unlinked_clone="True" />
      <path
         d="M 1228,531 H 3431 V 0 H 469 v 531 q 359,372 979,998 621,627 780,809 303,340 423,576 121,236 121,464 0,372 -261,606 -261,235 -680,235 -297,0 -627,-103 -329,-103 -704,-313 v 638 q 381,153 712,231 332,78 607,78 725,0 1156,-363 431,-362 431,-968 0,-288 -108,-546 -107,-257 -392,-607 -78,-91 -497,-524 Q 1991,1309 1228,531 Z"
         transform="matrix(0.0015625 0 0 -0.0015625 20.5324 151.23)"
         id="use214"
         style="stroke-linejoin:round;stroke-linecap:butt;opacity:1.0"
         unlinked_clone="True" />
      <path
         d="m 2034,2216 q -450,0 -708,-241 -257,-241 -257,-662 0,-422 257,-663 258,-241 708,-241 450,0 709,242 260,243 260,662 0,421 -258,662 -257,241 -711,241 z m -631,268 q -406,100 -633,378 -226,279 -226,679 0,559 398,884 399,325 1092,325 697,0 1094,-325 397,-325 397,-884 0,-400 -227,-679 -226,-278 -629,-378 456,-106 710,-416 255,-309 255,-755 Q 3634,634 3220,271 2806,-91 2034,-91 1263,-91 848,271 434,634 434,1313 q 0,446 256,755 257,310 713,416 z m -231,997 q 0,-362 226,-565 227,-203 636,-203 407,0 636,203 230,203 230,565 0,363 -230,566 -229,203 -636,203 -409,0 -636,-203 -226,-203 -226,-566 z"
         transform="matrix(0.0015625 0 0 -0.0015625 26.8947 151.23)"
         id="use216"
         style="stroke-linejoin:round;stroke-linecap:butt;opacity:1.0"
         unlinked_clone="True" />
    </g>
    <path
       d="M 0,0 H -3.5"
       style="stroke-linejoin:round;stroke-linecap:butt;stroke:#000000;stroke-width:0.8;opacity:1.0"
       id="use222"
       transform="matrix(1 0 0 1.03727 40.257 110.839)"
       unlinked_clone="True" />
    <g
       id="text_14"
       mpl_comment="3.30"
       style="stroke-linejoin:round;stroke-linecap:butt;opacity:1.0"
       transform="matrix(1 0 0 1.03727 0 -10.6725)">
      <path
         d="m 2597,2516 q 453,-97 707,-404 255,-306 255,-756 0,-690 -475,-1069 -475,-378 -1350,-378 -293,0 -604,58 -311,58 -642,174 v 609 q 262,-153 574,-231 313,-78 654,-78 593,0 904,234 311,234 311,681 0,413 -289,645 -289,233 -804,233 h -544 v 519 h 569 q 465,0 712,186 247,186 247,536 0,359 -255,551 -254,193 -729,193 -260,0 -557,-57 -297,-56 -653,-174 v 562 q 360,100 674,150 314,50 592,50 719,0 1137,-327 419,-326 419,-882 0,-388 -222,-655 -222,-267 -631,-370 z"
         transform="matrix(0.0015625 0 0 -0.0015625 10.9914 120.945)"
         id="use227"
         style="stroke-linejoin:round;stroke-linecap:butt;opacity:1.0"
         unlinked_clone="True" />
      <path
         d="m 684,794 h 660 V 0 H 684 Z"
         transform="matrix(0.0015625 0 0 -0.0015625 17.3537 120.945)"
         id="use229"
         style="stroke-linejoin:round;stroke-linecap:butt;opacity:1.0"
         unlinked_clone="True" />
      <path
         d="m 2597,2516 q 453,-97 707,-404 255,-306 255,-756 0,-690 -475,-1069 -475,-378 -1350,-378 -293,0 -604,58 -311,58 -642,174 v 609 q 262,-153 574,-231 313,-78 654,-78 593,0 904,234 311,234 311,681 0,413 -289,645 -289,233 -804,233 h -544 v 519 h 569 q 465,0 712,186 247,186 247,536 0,359 -255,551 -254,193 -729,193 -260,0 -557,-57 -297,-56 -653,-174 v 562 q 360,100 674,150 314,50 592,50 719,0 1137,-327 419,-326 419,-882 0,-388 -222,-655 -222,-267 -631,-370 z"
         transform="matrix(0.0015625 0 0 -0.0015625 20.5324 120.945)"
         id="use231"
         style="stroke-linejoin:round;stroke-linecap:butt;opacity:1.0"
         unlinked_clone="True" />
      <path
         d="m 2034,4250 q -487,0 -733,-480 -245,-479 -245,-1442 0,-959 245,-1439 246,-480 733,-480 491,0 736,480 246,480 246,1439 0,963 -246,1442 -245,480 -736,480 z m 0,500 q 785,0 1199,-621 414,-620 414,-1801 0,-1178 -414,-1799 -414,-620 -1199,-620 -784,0 -1198,620 -414,621 -414,1799 0,1181 414,1801 414,621 1198,621 z"
         transform="matrix(0.0015625 0 0 -0.0015625 26.8947 120.945)"
         id="use233"
         style="stroke-linejoin:round;stroke-linecap:butt;opacity:1.0"
         unlinked_clone="True" />
    </g>
    <path
       d="M 0,0 H -3.5"
       style="stroke-linejoin:round;stroke-linecap:butt;stroke:#000000;stroke-width:0.8;opacity:1.0"
       id="use239"
       transform="matrix(1 0 0 1.03727 40.257 79.4254)"
       unlinked_clone="True" />
    <g
       id="text_15"
       mpl_comment="3.32"
       style="stroke-linejoin:round;stroke-linecap:butt;opacity:1.0"
       transform="matrix(1 0 0 1.03727 0 -10.6725)">
      <path
         d="m 2597,2516 q 453,-97 707,-404 255,-306 255,-756 0,-690 -475,-1069 -475,-378 -1350,-378 -293,0 -604,58 -311,58 -642,174 v 609 q 262,-153 574,-231 313,-78 654,-78 593,0 904,234 311,234 311,681 0,413 -289,645 -289,233 -804,233 h -544 v 519 h 569 q 465,0 712,186 247,186 247,536 0,359 -255,551 -254,193 -729,193 -260,0 -557,-57 -297,-56 -653,-174 v 562 q 360,100 674,150 314,50 592,50 719,0 1137,-327 419,-326 419,-882 0,-388 -222,-655 -222,-267 -631,-370 z"
         transform="matrix(0.0015625 0 0 -0.0015625 10.9914 90.66)"
         id="use244"
         style="stroke-linejoin:round;stroke-linecap:butt;opacity:1.0"
         unlinked_clone="True" />
      <path
         d="m 684,794 h 660 V 0 H 684 Z"
         transform="matrix(0.0015625 0 0 -0.0015625 17.3537 90.66)"
         id="use246"
         style="stroke-linejoin:round;stroke-linecap:butt;opacity:1.0"
         unlinked_clone="True" />
      <path
         d="m 2597,2516 q 453,-97 707,-404 255,-306 255,-756 0,-690 -475,-1069 -475,-378 -1350,-378 -293,0 -604,58 -311,58 -642,174 v 609 q 262,-153 574,-231 313,-78 654,-78 593,0 904,234 311,234 311,681 0,413 -289,645 -289,233 -804,233 h -544 v 519 h 569 q 465,0 712,186 247,186 247,536 0,359 -255,551 -254,193 -729,193 -260,0 -557,-57 -297,-56 -653,-174 v 562 q 360,100 674,150 314,50 592,50 719,0 1137,-327 419,-326 419,-882 0,-388 -222,-655 -222,-267 -631,-370 z"
         transform="matrix(0.0015625 0 0 -0.0015625 20.5324 90.66)"
         id="use248"
         style="stroke-linejoin:round;stroke-linecap:butt;opacity:1.0"
         unlinked_clone="True" />
      <path
         d="M 1228,531 H 3431 V 0 H 469 v 531 q 359,372 979,998 621,627 780,809 303,340 423,576 121,236 121,464 0,372 -261,606 -261,235 -680,235 -297,0 -627,-103 -329,-103 -704,-313 v 638 q 381,153 712,231 332,78 607,78 725,0 1156,-363 431,-362 431,-968 0,-288 -108,-546 -107,-257 -392,-607 -78,-91 -497,-524 Q 1991,1309 1228,531 Z"
         transform="matrix(0.0015625 0 0 -0.0015625 26.8947 90.66)"
         id="use250"
         style="stroke-linejoin:round;stroke-linecap:butt;opacity:1.0"
         unlinked_clone="True" />
    </g>
    <path
       d="M 0,0 H -3.5"
       style="stroke-linejoin:round;stroke-linecap:butt;stroke:#000000;stroke-width:0.8;opacity:1.0"
       id="use256"
       transform="matrix(1 0 0 1.03727 40.257 48.0116)"
       unlinked_clone="True" />
    <g
       id="text_16"
       mpl_comment="3.34"
       style="stroke-linejoin:round;stroke-linecap:butt;opacity:1.0"
       transform="matrix(1 0 0 1.03727 0 -10.6725)">
      <path
         d="m 2597,2516 q 453,-97 707,-404 255,-306 255,-756 0,-690 -475,-1069 -475,-378 -1350,-378 -293,0 -604,58 -311,58 -642,174 v 609 q 262,-153 574,-231 313,-78 654,-78 593,0 904,234 311,234 311,681 0,413 -289,645 -289,233 -804,233 h -544 v 519 h 569 q 465,0 712,186 247,186 247,536 0,359 -255,551 -254,193 -729,193 -260,0 -557,-57 -297,-56 -653,-174 v 562 q 360,100 674,150 314,50 592,50 719,0 1137,-327 419,-326 419,-882 0,-388 -222,-655 -222,-267 -631,-370 z"
         transform="matrix(0.0015625 0 0 -0.0015625 10.9914 60.3749)"
         id="use261"
         style="stroke-linejoin:round;stroke-linecap:butt;opacity:1.0"
         unlinked_clone="True" />
      <path
         d="m 684,794 h 660 V 0 H 684 Z"
         transform="matrix(0.0015625 0 0 -0.0015625 17.3537 60.3749)"
         id="use263"
         style="stroke-linejoin:round;stroke-linecap:butt;opacity:1.0"
         unlinked_clone="True" />
      <path
         d="m 2597,2516 q 453,-97 707,-404 255,-306 255,-756 0,-690 -475,-1069 -475,-378 -1350,-378 -293,0 -604,58 -311,58 -642,174 v 609 q 262,-153 574,-231 313,-78 654,-78 593,0 904,234 311,234 311,681 0,413 -289,645 -289,233 -804,233 h -544 v 519 h 569 q 465,0 712,186 247,186 247,536 0,359 -255,551 -254,193 -729,193 -260,0 -557,-57 -297,-56 -653,-174 v 562 q 360,100 674,150 314,50 592,50 719,0 1137,-327 419,-326 419,-882 0,-388 -222,-655 -222,-267 -631,-370 z"
         transform="matrix(0.0015625 0 0 -0.0015625 20.5324 60.3749)"
         id="use265"
         style="stroke-linejoin:round;stroke-linecap:butt;opacity:1.0"
         unlinked_clone="True" />
      <path
         d="M 2419,4116 825,1625 h 1594 z m -166,550 h 794 V 1625 h 666 V 1100 H 3047 V 0 H 2419 V 1100 H 313 v 609 z"
         transform="matrix(0.0015625 0 0 -0.0015625 26.8947 60.3749)"
         id="use267"
         style="stroke-linejoin:round;stroke-linecap:butt;opacity:1.0"
         unlinked_clone="True" />
    </g>
    <path
       d="m 49.196564,188.27527 0.382627,-0.26214 0.382627,-0.90411 0.382626,2.83757 0.382627,-1.51763 0.382627,0.47368 0.382627,2.06772 0.382626,0.78751 0.382627,-0.36734 0.382627,2.52902 0.382626,-0.17208 0.382627,-1.00176 0.382627,2.00313 0.382627,-0.68826 0.382626,1.07926 0.382627,0.049 0.382627,1.76074 0.382627,-0.58577 0.382626,0.94703 0.382627,-0.42314 0.382627,1.39913 0.382627,0.552 0.382626,1.01724 0.382627,-0.74729 0.382627,-1.14922 0.382627,1.83389 0.382626,0.53803 0.382627,1.16907 0.382627,-1.67717 0.765253,1.54872 0.382627,-0.0139 0.765253,1.12111 0.382627,0.10415 0.382627,-0.28923 0.382627,2.03893 0.765253,-1.80785 0.382627,0.097 0.382627,1.2222 0.382626,-1.16044 0.382627,0.4242 0.765254,1.36408 0.382626,0.0575 0.382627,1.22556 0.382627,-0.32298 0.382626,-0.1109 0.382627,0.67554 0.382627,0.13924 0.382627,-1.5424 0.382626,0.28576 0.382627,0.47236 0.382627,-0.10332 0.382627,0.48834 0.382626,1.06606 0.382627,0.0668 0.765254,2.25111 0.382626,-0.6648 0.382627,-1.60112 0.382627,1.38461 0.382627,-1.79022 0.765253,0.86413 0.382627,-0.82454 0.382626,0.0227 0.382627,1.08356 0.382627,0.73197 0.382627,1.60506 0.382626,0.54246 0.382627,1.16688 0.382627,-10e-4 0.382627,-0.71548 0.382626,0.61375 0.382627,0.90157 0.382627,-0.0806 0.382627,-1.22336 0.382626,0.24296 0.382627,0.46158 0.382627,1.01912 0.382627,0.10156 0.382626,0.65207 0.382627,-0.56987 0.765253,2.92976 0.382627,0.40205 0.382627,-0.35957 0.382627,-0.0211 0.382626,-0.60075 0.382627,-0.0318 0.382627,-0.48373 0.382627,0.0173 0.382626,1.57863 0.382627,-0.32397 0.382627,0.56237 0.382627,1.2905 0.382626,-0.3167 0.382627,1.29288 0.382627,-0.2877 0.382627,0.71463 0.382626,0.30102 0.382627,-0.34082 0.382627,-0.56487 0.382626,-0.07 0.382627,0.85207 0.382627,0.28575 0.382627,-0.45082 0.382626,0.4928 0.382627,0.90659 0.382627,-0.80334 0.765253,1.36601 0.382627,-0.17819 0.382627,0.13821 0.382627,-0.66095 0.382626,0.61057 0.765254,-1.23069 0.382627,0.86343 0.382626,0.30634 0.382627,0.80045 0.382627,0.0622 0.382626,0.28502 0.382627,0.0788 0.382627,-0.507 0.382627,-0.17317 0.382626,0.20082 0.382627,0.3999 0.382627,-0.82135 0.382627,0.50473 0.382626,-1.45683 0.382627,1.09731 0.38263,-0.98435 0.38262,-0.27721 0.38263,0.7172 0.38263,0.0215 0.38262,-0.96206 0.38263,-0.19566 0.38263,0.23524 0.38262,-0.80089 0.38263,0.79578 0.38263,-0.66669 0.38262,-1.01757 0.76526,0.16655 0.38262,-0.2618 0.38263,-0.003 0.38263,0.19724 0.38263,-0.4787 0.38262,-0.21891 0.38263,0.63593 0.38263,-0.1729 0.38262,-0.45815 0.38263,-0.0515 0.38263,-0.55069 0.38262,-0.0538 0.38263,0.64495 0.38263,-0.28688 0.38262,0.55334 0.38263,-0.1964 0.38263,0.0243 0.38262,0.60911 0.38263,-1.11871 0.38263,0.22257 0.76525,0.0362 0.38263,-1.04004 0.38262,0.53661 0.38263,0.17418 0.38263,0.32871 0.38262,-0.41031 0.38263,0.023 0.76525,1.07099 0.38263,-0.81538 0.38263,0.19828 0.38262,-0.6978 0.38263,0.86373 1.53051,-2.18248 0.38262,0.33149 0.38263,-0.4146 0.38263,0.33945 0.38262,-0.30068 0.38263,-0.81908 0.38263,0.59618 0.38262,-0.0952 0.38263,-0.68174 0.38263,-0.26247 0.38262,-0.66833 0.38263,-0.14313 0.76526,-0.76209 0.38262,0.0151 0.38263,-1.00875 0.38263,0.24115 1.14788,-0.5362 0.38262,-0.96242 0.38263,0.17904 0.38263,-0.1712 0.76525,0.42241 1.14788,-0.7034 0.38263,-0.59483 0.38262,-0.083 0.38263,0.0836 0.38263,-0.38109 0.76525,0.25058 0.38263,-0.2653 0.38262,-0.86607 0.38263,0.33709 0.38263,-0.36545 0.38262,-0.67038 1.14788,-0.64422 0.38263,-0.55803 0.38263,0.0994 0.38262,-0.12537 0.38263,-0.59992 0.38263,0.53834 0.38262,-0.46185 1.14788,-0.62562 0.38263,0.12563 0.38263,-0.54513 0.38262,-0.32857 0.38263,-0.47952 1.14788,-0.41846 0.38263,-0.65657 0.76525,-0.34246 0.38263,-0.13108 0.38262,0.13158 0.38263,-0.51294 0.38263,-0.79036 0.38262,-0.18164 0.76526,0.15755 0.76525,-0.28029 0.38263,-0.86346 0.38262,0.13948 1.14788,-0.54767 1.14789,-0.776 0.76525,-0.14228 0.76525,-0.58321 0.38263,0.62962 0.38263,-0.032 1.14788,-1.03025 0.38262,0.35439 0.38263,-0.0886 0.38263,-0.4128 0.38262,0.0267 1.14788,-0.26856 0.38263,0.3896 0.38263,0.0346 0.38262,-0.2671 1.14788,0.51867 0.38263,-0.0513 0.38263,-0.51085 1.5305,-0.1862 0.76526,0.29158 0.38262,-0.24747 0.76526,0.46371 0.38262,-0.25889 0.76526,0.16843 0.38262,-0.32878 0.76526,-0.1233 0.38262,-0.11276 0.38263,0.051 0.38263,-0.59743 0.38262,0.20268 0.38263,0.35914 0.76526,0.21691 0.38262,0.0132 0.38263,0.2185 1.14788,-0.24897 0.76525,0.29255 0.38263,-0.31597 0.38263,0.31173 0.76525,-0.42804 0.38263,-0.28983 0.38262,0.38014 0.38263,0.89374 1.53051,-0.79637 1.14788,0.46121 1.14788,-0.17243 0.38262,0.78526 0.38263,-0.1582 0.38263,-0.32307 0.76525,0.21092 0.38263,-0.31587 0.38262,0.0761 0.76526,-0.12145 0.38262,0.21043 0.38263,-0.33722 0.38263,0.15099 0.38262,-0.1065 0.76526,0.21681 0.38262,0.41121 0.38263,-0.23997 0.38263,-0.0853 0.38262,0.17023 0.76526,-0.0921 0.38263,-0.43146 0.38262,0.28511 0.38263,-0.18508 0.38263,0.36339 0.38262,0.0283 0.38263,0.15157 0.38263,-0.45885 0.38262,0.70148 0.38263,0.16396 0.76525,-0.27842 0.38263,0.15968 0.38263,-0.43393 0.38262,0.0468 0.76526,-0.15535 0.38262,-0.32958 0.38263,0.58727 0.38263,0.1734 0.38262,-0.4439 0.38263,0.0375 0.38263,-0.41249 0.38262,0.25394 0.38263,0.0987 0.38263,-0.21952 0.38262,-0.51915 0.38263,-0.30337 0.38263,-0.5825 0.76525,0.70723 0.38263,-0.11351 0.38262,-0.46181 1.53051,-0.86228 0.38263,-0.64908 1.14788,-0.65527 0.38263,-0.51248 0.38262,0.0222 0.38263,-1.12463 0.38262,0.11821 0.38263,-0.0377 0.38263,-0.54005 0.38262,-0.0848 0.38263,-0.54088 0.38263,-0.29391 0.38263,-0.0712 1.91313,-1.98783 0.76525,0.0659 1.14788,-0.99189 0.38263,0.0361 0.76525,-0.49175 0.38263,-0.29074 0.38263,-0.7263 0.38262,0.1661 0.38263,-0.27388 0.38263,0.27363 0.38262,0.0895 0.38263,-0.35889 0.38263,-0.6427 0.38262,-0.19705 0.38263,0.67399 0.38263,-0.20176 0.38262,0.0137 0.76526,-0.57642 0.38262,-0.004 0.38263,0.41661 1.14788,-0.55641 0.38263,-0.0431 0.38262,0.12853 0.38263,-0.25673 0.38263,0.017 0.38262,0.25884 0.38263,-0.0667 0.38263,0.62419 0.76525,-0.30259 0.38263,0.12016 1.5305,-0.91138 0.38263,-0.31954 0.38263,0.0352 0.38263,-0.37659 0.38262,-0.0653 0.38263,0.13056 0.38263,-0.29702 0.76525,0.13776 0.38263,-0.0884 0.38262,-0.36479 0.38263,0.0227 0.76525,-0.46859 0.76526,-0.11586 0.76525,-0.41353 0.38263,-0.76148 0.38262,-0.1734 0.38263,0.0517 0.38263,0.28102 0.76525,-0.39187 0.38263,-0.86931 0.38262,-0.0997 0.38263,-0.30034 0.38263,0.36398 0.38262,-0.81838 0.38263,-0.0444 0.76525,-0.62808 0.38263,-0.075 0.76525,-0.6142 0.38263,-0.0433 0.38263,-0.20244 0.38262,0.33549 0.38263,-0.25252 0.38263,-0.39517 0.38262,-0.15507 0.38263,-0.50433 0.76525,0.24015 0.38263,-0.43135 0.38263,0.0772 0.38262,-0.26411 0.38263,0.002 0.38263,-0.20695 0.76525,-0.0179 0.38263,-0.22305 0.38263,0.32286 1.14788,-0.51743 0.38262,0.0579 0.38263,0.26053 0.76525,-0.17433 0.38263,0.44461 0.38263,-0.25571 0.38262,0.0995 0.38263,-0.19099 0.76525,0.10583 0.38263,0.16162 1.53051,-0.8063 1.14788,-0.0969 0.38262,0.2455 1.14788,-0.32326 0.38263,-0.2422 0.76525,-0.0412 0.38263,0.31112 0.76525,-0.69045 0.38263,1.4e-4 0.38263,-0.41721 0.38262,0.7121 0.76526,-1.51555 0.38262,0.2436 0.38263,-0.24994 0.38263,-0.5288 0.38262,0.0725 0.76526,-1.26664 0.38263,0.41032 0.38262,-0.17459 0.38263,-0.56098 0.38263,0.29464 0.38262,-0.73714 0.38263,-0.37561 0.38263,0.35099 0.38262,-0.75962 0.38263,-0.48534 0.38263,0.11061 0.38262,-0.61071 0.38263,-0.26024 0.38263,0.35388 0.38262,-0.36338 0.38263,-0.0757 0.38263,-0.29392 0.38262,-0.69504 0.38263,0.14789 0.38263,-0.19408 0.38262,-0.80203 0.38263,0.3731 0.38263,-0.16239 0.38262,-0.54887 0.38263,0.30425 0.38263,-0.23591 0.38262,-0.62551 0.38263,0.63437 0.76525,-0.91541 0.38263,0.56213 0.76525,-1.00094 0.38263,0.46671 0.76525,-0.96233 0.38263,0.5474 0.76525,-1.01254 0.38263,0.39186 0.76526,-1.0815 0.38262,0.30139 0.38263,-0.21507 0.38262,-0.56114 0.38263,0.28569 0.38263,-0.28983 0.38262,-0.62028 0.38263,0.33547 0.76526,-1.13101 0.38262,0.70278 0.38263,-0.41501 0.38263,-0.0897 0.38262,-0.33505 0.38263,-0.54698 0.38263,-0.12306 0.38262,0.0111 0.38263,-0.69325 0.38263,-0.25868 0.38262,0.0727 0.38263,-0.62231 0.76525,-0.38324 0.38263,-0.69112 0.38263,0.23021 0.38262,-0.41257 0.38263,-0.67726 0.38263,0.4812 0.76525,-1.93988 0.38263,0.24453 0.76525,-1.49686 0.38263,0.19766 0.76525,-1.76107 0.38263,-0.009 0.38262,-0.48871 0.38263,-0.92055 0.38263,0.28666 0.76525,-1.82984 0.38263,0.11323 0.76525,-1.33621 0.38263,0.18344 0.38262,-0.86454 0.38263,-0.41942 0.38263,0.0351 0.76525,-0.65355 0.38263,0.10263 0.76525,-1.05981 0.38263,0.43895 0.38263,-0.67822 0.38262,-0.23462 0.38263,0.30086 0.38263,-0.49636 0.38262,0.0535 0.38263,0.26504 0.38263,-0.76873 0.38262,0.27509 0.38263,-0.11216 0.38263,-0.36974 0.38262,0.57371 0.38263,-0.31102 0.38263,-0.50267 0.38262,0.39907 0.38263,-0.24658 0.38263,-0.47632 0.38262,0.78642 0.76526,-0.9008 0.38262,0.50515 0.76526,-0.61884 0.38262,0.5144 0.76526,-0.61346 0.38262,0.52957 0.38263,-0.19298 0.38263,-0.58579 0.38262,-0.0123 0.38263,-0.12702 0.38263,-0.30713 0.38262,0.52941 0.76526,-0.88519 0.38262,0.30654 0.76526,-1.08353 0.38263,0.57878 0.38262,-0.46545 0.38263,-0.28982 0.38263,0.26118 0.38262,-0.65406 0.38263,-0.32852 0.38262,0.0659 0.38263,-0.37972 0.38263,0.11625 0.38262,-0.18354 0.38263,-0.48869 0.76526,-0.21572 0.38262,-0.4515 0.38263,0.24067 0.38263,-0.13905 0.38262,-0.48987 0.38263,0.30246 0.38263,-0.18585 0.38262,-0.42606 0.38263,0.33359 0.76525,-1.09297 0.38263,0.40341 0.38263,-0.27879 0.38262,-0.46805 0.38263,0.30872 0.76525,-1.21307 0.38263,0.65437 0.76525,-1.04125 0.38263,0.13009 0.38263,-0.73003 0.38262,-0.39233 0.38263,0.40148 0.76525,-1.26729 0.38263,0.31374 0.38263,-0.66021 0.38262,-0.0462 0.38263,0.1968 0.76525,-1.07235 0.38263,0.23943 0.76525,-0.51336 0.38263,-0.14229 0.38263,-0.9152 0.38262,-0.10227 0.38263,0.12525 0.38263,-0.43885 0.76525,-0.55281 0.38263,-0.59601 0.38263,-0.32631 0.38262,0.081 0.38263,-0.74655 0.38262,0.36571 0.76526,-1.24786 0.38263,0.21039 0.76525,-1.56139 0.38263,-0.0132 0.38262,-0.34063 0.38263,-0.49708 0.38263,0.10607 0.76525,-1.50525 0.38263,0.28501 0.38262,-0.33729 0.38263,-0.55822 0.38263,0.15373 0.38262,-0.75632 0.38263,-0.362 0.38263,0.31881 0.76525,-1.04744 0.38263,0.34364 0.76525,-0.88583 0.38263,0.23728 0.76525,-0.93948 0.38263,0.16774 0.38262,-0.55132 0.38263,0.19787 0.38263,0.33559 0.76525,-1.18837 0.76525,-0.24714 0.38263,0.37462 0.38263,-0.021 0.38263,-0.69572 0.38262,-0.0727 0.76525,-1.06917 0.38263,0.0474 0.38263,-0.62749 0.38262,-0.89459 0.38263,-0.11697 0.76525,-1.41983 0.38263,-0.004 0.76526,-1.53885 0.38262,0.3526 0.38263,-0.0192 0.38263,0.59622 0.38262,1.53497 0.38263,4.66652 0.38263,22.31261 0.38262,-73.782489 0.38263,23.070532 0.38263,4.847185 0.38262,2.535032 0.38263,0.67284 1.14788,3.64027 0.38263,0.14344 0.38262,1.0852 0.76526,1.15807 0.38262,1.13751 0.76526,1.14214 0.38262,1.26916 0.38263,0.63004 0.76525,1.7405 0.38263,0.50032 0.76525,2.00521 0.38263,0.56435 0.76525,1.85927 0.38263,0.47556 0.76525,1.9172 0.38263,0.58433 0.76525,1.55777 0.38263,0.3686 0.38263,1.43113 0.38263,0.32405 0.38262,0.7567 0.38263,1.12268 0.76525,0.97916 0.38263,1.29282 0.38262,0.42625 0.38263,0.16758 0.38263,0.9655 0.76525,0.82806 0.38263,1.01197 0.76525,0.0509 0.38263,0.79037 0.76525,0.2852 0.38263,0.64471 0.76525,-0.28614 0.38263,0.55555 0.38263,-0.14105 0.38262,0.13658 0.38263,0.50993 0.38263,0.0111 0.38262,0.588 1.14788,3.98525 0.76526,4.4181 0.38262,4.02248 0.38263,6.33369 0.38263,15.70361 0.38262,54.32103 0.38263,-189.124543 0.38263,255.903043 0.38262,5.14995 0.0295,2.90514 m 0.4021,0 0.33367,-237.072929 0.76525,32.466971 0.38263,6.492908 0.76525,6.52034 0.38263,-0.88665 0.38262,-0.0819 0.38263,-1.45251 0.38263,-0.34359 0.38262,0.20983 0.38263,0.89448 0.38263,1.42929 0.38263,2.54705 0.38262,1.23863 0.38263,1.69258 0.38263,2.38031 0.38262,1.57121 0.38263,2.92823 0.38263,4.75765 L 385.68992,-1 m 1.12572,0 0.24033,141.58107 0.38263,-10.14423 0.38263,9.76655 L 388.01927,-1 m 0.9461,0 0.76899,62.755653 0.38263,1.543939 0.38262,-2.427937 0.38263,-4.392049 0.38263,-7.711976 L 392.47736,-1 m 2.89063,0 0.4884,22.772238 1.14788,31.180612 0.76525,11.812078 0.38263,3.214706 0.38263,1.939447 0.38262,1.175331 0.38263,0.239264 0.38262,1.17045 0.38263,1.554744 0.38263,0.71604 0.38262,0.113453 0.38263,0.429027 0.38263,-0.07718 0.38262,0.909849 0.76526,5.446536 0.38263,3.054757 1.5305,17.043298 0.76526,11.21353 0.38262,3.88674 0.38263,7.36618 0.38263,4.45353 0.38262,7.03394 0.76526,6.48426 0.38262,2.73199 0.38263,0.59329 0.38263,-0.94528 0.38262,-0.27374 0.38263,-2.7846 0.38263,-0.65255 1.14788,-6.19804 1.14788,-8.97285 0.76525,-5.61673 0.76525,-3.80534 0.38263,-1.09267 0.38263,0.64332 0.76525,1.79839 5.35678,32.66968 0.38262,2.63348 0.38263,3.88442 0.38263,-0.0306 0.38262,-1.47436 0.38263,-0.74679 0.76525,-3.38888 0.38263,-1.84758 0.38263,-4.10907 0.38262,-8.24827 0.76526,-6.21095 0.38262,-18.89407 0.38263,-32.251314 0.38263,2.243687 0.38262,25.351117 0.38263,-35.89758 0.38263,-12.042213 0.38262,5.492545 1.14788,20.791343 0.76526,7.32551 0.38262,3.079846 0.38263,-3.918243 0.38263,-9.73638 0.38262,9.249731 v 0"
       clip-path="url(#p7d8eb38d4e)"
       style="stroke-linejoin:round;stroke-linecap:square;fill:none;stroke:#1f77b4;stroke-width:1.5;opacity:1.0"
       id="path288"
       transform="matrix(1 0 0 1.03727 0 -10.6725)" />
    <path
       d="m 49.196564,227.20569 4.591521,1.72502 4.591521,1.48284 4.208894,1.1402 4.591521,0.997 4.591521,0.74308 4.59152,0.49706 4.591521,0.26206 4.591521,0.0396 4.974148,-0.19118 4.974147,-0.41518 5.356771,-0.67503 5.35678,-0.88837 1.53051,-0.18349 0.76525,0.18024 1.14788,0.52971 1.53051,0.714 0.76525,0.13643 0.76525,-0.0787 1.91314,-0.53763 4.20889,-1.26479 2.67839,-0.89709 2.67839,-0.82339 2.29576,-0.79545 3.06101,-1.03393 2.29576,-0.8237 3.06101,-1.10719 2.67839,-0.93065 13.00931,-5.20232 5.7394,-2.47627 4.20889,-1.71095 7.65254,-3.38965 3.06101,-1.28692 9.56567,-4.26017 3.82627,-1.78558 4.97415,-2.32112 4.20889,-1.8804 9.18304,-4.38306 4.2089,-2.09734 4.97414,-2.42633 3.82627,-1.79883 8.41779,-4.13894 3.82627,-1.89817 6.88728,-3.46351 3.44364,-1.72997 18.36608,-9.59707 3.82627,-1.97712 8.41779,-4.4733 4.20889,-2.2958 6.12203,-3.34321 3.82627,-2.10678 8.41779,-4.727 5.35677,-3.10239 5.35677,-3.00668 4.97415,-2.89743 5.7394,-3.30675 4.59152,-2.71867 7.65254,-4.55687 5.7394,-3.56582 32.52327,-20.36528 43.61945,-28.83288 7.26991,-4.883115 16.83557,-11.430216 v 0"
       clip-path="url(#p7d8eb38d4e)"
       style="stroke-linejoin:round;stroke-linecap:square;fill:none;stroke:#ff7f0e;stroke-width:1.5;opacity:1.0"
       id="path291"
       transform="matrix(1 0 0 1.03727 0 -10.6725)" />
    <path
       d="M 40.256984,271.64 V 26.88"
       style="stroke-linejoin:miter;stroke-linecap:square;fill:none;stroke:#000000;stroke-width:0.8;opacity:1.0"
       id="path294"
       transform="matrix(1 0 0 1.03727 0 -10.6725)" />
    <path
       d="M 446.31429,271.64 V 26.88"
       style="stroke-linejoin:miter;stroke-linecap:square;fill:none;stroke:#000000;stroke-width:0.8;opacity:1.0"
       id="path297"
       transform="matrix(1 0 0 1.03727 0 -10.6725)" />
    <path
       d="M 40.256984,271.64 H 446.31429"
       style="stroke-linejoin:miter;stroke-linecap:square;fill:none;stroke:#000000;stroke-width:0.8;opacity:1.0"
       id="path300"
       transform="matrix(1 0 0 1.03727 0 -10.6725)" />
    <path
       d="M 40.256984,26.88 H 446.31429"
       style="stroke-linejoin:miter;stroke-linecap:square;fill:none;stroke:#000000;stroke-width:0.8;opacity:1.0"
       id="path303"
       transform="matrix(1 0 0 1.03727 0 -10.6725)" />
    <g
       id="text_18"
       mpl_comment="epsilon"
       style="stroke-linejoin:round;stroke-linecap:butt;opacity:1.0"
       transform="matrix(1 0 0 1.03727 0 -10.6725)" />
    <text
       xml:space="preserve"
       style="font-size:14.395143001763593px;fill:#000000;stroke:#000000;stroke-width:0.127157;stroke-linejoin:bevel;text-anchor:middle;text-align:center;font-family:Times New Roman"
       x="297.28925601000003"
       y="256.24054"
       id="text2058"
       transform="matrix(0.833615 0 0 1.19959 0.000433322 -0.000530144)"><tspan
         id="tspan2056"
         style="stroke-width:0.127157;text-anchor:middle;text-align:center;font-size:14.395143001763593px;font-family:Times New Roman"
         x="297.28925601000003"
         y="256.24054"
         sodipodi:role="line">[GHz]</tspan></text>
  </g>
  <defs
     id="defs336">
    <clipPath
       id="p7d8eb38d4e">
      <rect
         x="40.256985"
         y="26.879999"
         width="406.05731"
         height="244.75999"
         id="rect333" />
    </clipPath>
  </defs>
</svg>
