<?xml version="1.0" encoding="utf-8" standalone="no"?>
<!DOCTYPE svg PUBLIC "-//W3C//DTD SVG 1.1//EN"
  "http://www.w3.org/Graphics/SVG/1.1/DTD/svg11.dtd">
<svg xmlns:xlink="http://www.w3.org/1999/xlink" width="457.2pt" height="299.52pt" viewBox="0 0 457.2 299.52" xmlns="http://www.w3.org/2000/svg" version="1.1">
 <metadata>
  <rdf:RDF xmlns:dc="http://purl.org/dc/elements/1.1/" xmlns:cc="http://creativecommons.org/ns#" xmlns:rdf="http://www.w3.org/1999/02/22-rdf-syntax-ns#">
   <cc:Work>
    <dc:type rdf:resource="http://purl.org/dc/dcmitype/StillImage"/>
    <dc:date>2023-08-23T17:04:16.661806</dc:date>
    <dc:format>image/svg+xml</dc:format>
    <dc:creator>
     <cc:Agent>
      <dc:title>Matplotlib v3.7.2, https://matplotlib.org/</dc:title>
     </cc:Agent>
    </dc:creator>
   </cc:Work>
  </rdf:RDF>
 </metadata>
 <defs>
  <style type="text/css">*{stroke-linejoin: round; stroke-linecap: butt}</style>
 </defs>
 <g id="figure_1">
  <g id="patch_1">
   <path d="M 0 299.52 
L 457.2 299.52 
L 457.2 0 
L 0 0 
z
" style="fill: #ffffff"/>
  </g>
  <g id="axes_1">
   <g id="patch_2">
    <path d="M 40.256984 271.64 
L 446.314286 271.64 
L 446.314286 26.88 
L 40.256984 26.88 
z
" style="fill: #ffffff"/>
   </g>
   <g id="matplotlib.axis_1">
    <g id="xtick_1">
     <g id="line2d_1">
      <defs>
       <path id="m27417d02d7" d="M 0 0 
L 0 3.5 
" style="stroke: #000000; stroke-width: 0.8"/>
      </defs>
      <g>
       <use xlink:href="#m27417d02d7" x="49.196564" y="271.64" style="stroke: #000000; stroke-width: 0.8"/>
      </g>
     </g>
     <g id="text_1">
      <!-- 2 -->
      <g transform="translate(46.015314 286.238437) scale(0.1 -0.1)">
       <defs>
        <path id="DejaVuSans-32" d="M 1228 531 
L 3431 531 
L 3431 0 
L 469 0 
L 469 531 
Q 828 903 1448 1529 
Q 2069 2156 2228 2338 
Q 2531 2678 2651 2914 
Q 2772 3150 2772 3378 
Q 2772 3750 2511 3984 
Q 2250 4219 1831 4219 
Q 1534 4219 1204 4116 
Q 875 4013 500 3803 
L 500 4441 
Q 881 4594 1212 4672 
Q 1544 4750 1819 4750 
Q 2544 4750 2975 4387 
Q 3406 4025 3406 3419 
Q 3406 3131 3298 2873 
Q 3191 2616 2906 2266 
Q 2828 2175 2409 1742 
Q 1991 1309 1228 531 
z
" transform="scale(0.015625)"/>
       </defs>
       <use xlink:href="#DejaVuSans-32"/>
      </g>
     </g>
    </g>
    <g id="xtick_2">
     <g id="line2d_2">
      <g>
       <use xlink:href="#m27417d02d7" x="100.162445" y="271.64" style="stroke: #000000; stroke-width: 0.8"/>
      </g>
     </g>
     <g id="text_2">
      <!-- 4 -->
      <g transform="translate(96.981195 286.238437) scale(0.1 -0.1)">
       <defs>
        <path id="DejaVuSans-34" d="M 2419 4116 
L 825 1625 
L 2419 1625 
L 2419 4116 
z
M 2253 4666 
L 3047 4666 
L 3047 1625 
L 3713 1625 
L 3713 1100 
L 3047 1100 
L 3047 0 
L 2419 0 
L 2419 1100 
L 313 1100 
L 313 1709 
L 2253 4666 
z
" transform="scale(0.015625)"/>
       </defs>
       <use xlink:href="#DejaVuSans-34"/>
      </g>
     </g>
    </g>
    <g id="xtick_3">
     <g id="line2d_3">
      <g>
       <use xlink:href="#m27417d02d7" x="151.128327" y="271.64" style="stroke: #000000; stroke-width: 0.8"/>
      </g>
     </g>
     <g id="text_3">
      <!-- 6 -->
      <g transform="translate(147.947077 286.238437) scale(0.1 -0.1)">
       <defs>
        <path id="DejaVuSans-36" d="M 2113 2584 
Q 1688 2584 1439 2293 
Q 1191 2003 1191 1497 
Q 1191 994 1439 701 
Q 1688 409 2113 409 
Q 2538 409 2786 701 
Q 3034 994 3034 1497 
Q 3034 2003 2786 2293 
Q 2538 2584 2113 2584 
z
M 3366 4563 
L 3366 3988 
Q 3128 4100 2886 4159 
Q 2644 4219 2406 4219 
Q 1781 4219 1451 3797 
Q 1122 3375 1075 2522 
Q 1259 2794 1537 2939 
Q 1816 3084 2150 3084 
Q 2853 3084 3261 2657 
Q 3669 2231 3669 1497 
Q 3669 778 3244 343 
Q 2819 -91 2113 -91 
Q 1303 -91 875 529 
Q 447 1150 447 2328 
Q 447 3434 972 4092 
Q 1497 4750 2381 4750 
Q 2619 4750 2861 4703 
Q 3103 4656 3366 4563 
z
" transform="scale(0.015625)"/>
       </defs>
       <use xlink:href="#DejaVuSans-36"/>
      </g>
     </g>
    </g>
    <g id="xtick_4">
     <g id="line2d_4">
      <g>
       <use xlink:href="#m27417d02d7" x="202.094208" y="271.64" style="stroke: #000000; stroke-width: 0.8"/>
      </g>
     </g>
     <g id="text_4">
      <!-- 8 -->
      <g transform="translate(198.912958 286.238437) scale(0.1 -0.1)">
       <defs>
        <path id="DejaVuSans-38" d="M 2034 2216 
Q 1584 2216 1326 1975 
Q 1069 1734 1069 1313 
Q 1069 891 1326 650 
Q 1584 409 2034 409 
Q 2484 409 2743 651 
Q 3003 894 3003 1313 
Q 3003 1734 2745 1975 
Q 2488 2216 2034 2216 
z
M 1403 2484 
Q 997 2584 770 2862 
Q 544 3141 544 3541 
Q 544 4100 942 4425 
Q 1341 4750 2034 4750 
Q 2731 4750 3128 4425 
Q 3525 4100 3525 3541 
Q 3525 3141 3298 2862 
Q 3072 2584 2669 2484 
Q 3125 2378 3379 2068 
Q 3634 1759 3634 1313 
Q 3634 634 3220 271 
Q 2806 -91 2034 -91 
Q 1263 -91 848 271 
Q 434 634 434 1313 
Q 434 1759 690 2068 
Q 947 2378 1403 2484 
z
M 1172 3481 
Q 1172 3119 1398 2916 
Q 1625 2713 2034 2713 
Q 2441 2713 2670 2916 
Q 2900 3119 2900 3481 
Q 2900 3844 2670 4047 
Q 2441 4250 2034 4250 
Q 1625 4250 1398 4047 
Q 1172 3844 1172 3481 
z
" transform="scale(0.015625)"/>
       </defs>
       <use xlink:href="#DejaVuSans-38"/>
      </g>
     </g>
    </g>
    <g id="xtick_5">
     <g id="line2d_5">
      <g>
       <use xlink:href="#m27417d02d7" x="253.060089" y="271.64" style="stroke: #000000; stroke-width: 0.8"/>
      </g>
     </g>
     <g id="text_5">
      <!-- 10 -->
      <g transform="translate(246.697589 286.238437) scale(0.1 -0.1)">
       <defs>
        <path id="DejaVuSans-31" d="M 794 531 
L 1825 531 
L 1825 4091 
L 703 3866 
L 703 4441 
L 1819 4666 
L 2450 4666 
L 2450 531 
L 3481 531 
L 3481 0 
L 794 0 
L 794 531 
z
" transform="scale(0.015625)"/>
        <path id="DejaVuSans-30" d="M 2034 4250 
Q 1547 4250 1301 3770 
Q 1056 3291 1056 2328 
Q 1056 1369 1301 889 
Q 1547 409 2034 409 
Q 2525 409 2770 889 
Q 3016 1369 3016 2328 
Q 3016 3291 2770 3770 
Q 2525 4250 2034 4250 
z
M 2034 4750 
Q 2819 4750 3233 4129 
Q 3647 3509 3647 2328 
Q 3647 1150 3233 529 
Q 2819 -91 2034 -91 
Q 1250 -91 836 529 
Q 422 1150 422 2328 
Q 422 3509 836 4129 
Q 1250 4750 2034 4750 
z
" transform="scale(0.015625)"/>
       </defs>
       <use xlink:href="#DejaVuSans-31"/>
       <use xlink:href="#DejaVuSans-30" x="63.623047"/>
      </g>
     </g>
    </g>
    <g id="xtick_6">
     <g id="line2d_6">
      <g>
       <use xlink:href="#m27417d02d7" x="304.025971" y="271.64" style="stroke: #000000; stroke-width: 0.8"/>
      </g>
     </g>
     <g id="text_6">
      <!-- 12 -->
      <g transform="translate(297.663471 286.238437) scale(0.1 -0.1)">
       <use xlink:href="#DejaVuSans-31"/>
       <use xlink:href="#DejaVuSans-32" x="63.623047"/>
      </g>
     </g>
    </g>
    <g id="xtick_7">
     <g id="line2d_7">
      <g>
       <use xlink:href="#m27417d02d7" x="354.991852" y="271.64" style="stroke: #000000; stroke-width: 0.8"/>
      </g>
     </g>
     <g id="text_7">
      <!-- 14 -->
      <g transform="translate(348.629352 286.238437) scale(0.1 -0.1)">
       <use xlink:href="#DejaVuSans-31"/>
       <use xlink:href="#DejaVuSans-34" x="63.623047"/>
      </g>
     </g>
    </g>
    <g id="xtick_8">
     <g id="line2d_8">
      <g>
       <use xlink:href="#m27417d02d7" x="405.957734" y="271.64" style="stroke: #000000; stroke-width: 0.8"/>
      </g>
     </g>
     <g id="text_8">
      <!-- 16 -->
      <g transform="translate(399.595234 286.238437) scale(0.1 -0.1)">
       <use xlink:href="#DejaVuSans-31"/>
       <use xlink:href="#DejaVuSans-36" x="63.623047"/>
      </g>
     </g>
    </g>
   </g>
   <g id="matplotlib.axis_2">
    <g id="ytick_1">
     <g id="line2d_9">
      <defs>
       <path id="mba88fc31a3" d="M 0 0 
L -3.5 0 
" style="stroke: #000000; stroke-width: 0.8"/>
      </defs>
      <g>
       <use xlink:href="#mba88fc31a3" x="40.256984" y="268.571776" style="stroke: #000000; stroke-width: 0.8"/>
      </g>
     </g>
     <g id="text_9">
      <!-- 3.20 -->
      <g transform="translate(10.991359 272.370995) scale(0.1 -0.1)">
       <defs>
        <path id="DejaVuSans-33" d="M 2597 2516 
Q 3050 2419 3304 2112 
Q 3559 1806 3559 1356 
Q 3559 666 3084 287 
Q 2609 -91 1734 -91 
Q 1441 -91 1130 -33 
Q 819 25 488 141 
L 488 750 
Q 750 597 1062 519 
Q 1375 441 1716 441 
Q 2309 441 2620 675 
Q 2931 909 2931 1356 
Q 2931 1769 2642 2001 
Q 2353 2234 1838 2234 
L 1294 2234 
L 1294 2753 
L 1863 2753 
Q 2328 2753 2575 2939 
Q 2822 3125 2822 3475 
Q 2822 3834 2567 4026 
Q 2313 4219 1838 4219 
Q 1578 4219 1281 4162 
Q 984 4106 628 3988 
L 628 4550 
Q 988 4650 1302 4700 
Q 1616 4750 1894 4750 
Q 2613 4750 3031 4423 
Q 3450 4097 3450 3541 
Q 3450 3153 3228 2886 
Q 3006 2619 2597 2516 
z
" transform="scale(0.015625)"/>
        <path id="DejaVuSans-2e" d="M 684 794 
L 1344 794 
L 1344 0 
L 684 0 
L 684 794 
z
" transform="scale(0.015625)"/>
       </defs>
       <use xlink:href="#DejaVuSans-33"/>
       <use xlink:href="#DejaVuSans-2e" x="63.623047"/>
       <use xlink:href="#DejaVuSans-32" x="95.410156"/>
       <use xlink:href="#DejaVuSans-30" x="159.033203"/>
      </g>
     </g>
    </g>
    <g id="ytick_2">
     <g id="line2d_10">
      <g>
       <use xlink:href="#mba88fc31a3" x="40.256984" y="238.286614" style="stroke: #000000; stroke-width: 0.8"/>
      </g>
     </g>
     <g id="text_10">
      <!-- 3.22 -->
      <g transform="translate(10.991359 242.085833) scale(0.1 -0.1)">
       <use xlink:href="#DejaVuSans-33"/>
       <use xlink:href="#DejaVuSans-2e" x="63.623047"/>
       <use xlink:href="#DejaVuSans-32" x="95.410156"/>
       <use xlink:href="#DejaVuSans-32" x="159.033203"/>
      </g>
     </g>
    </g>
    <g id="ytick_3">
     <g id="line2d_11">
      <g>
       <use xlink:href="#mba88fc31a3" x="40.256984" y="208.001451" style="stroke: #000000; stroke-width: 0.8"/>
      </g>
     </g>
     <g id="text_11">
      <!-- 3.24 -->
      <g transform="translate(10.991359 211.80067) scale(0.1 -0.1)">
       <use xlink:href="#DejaVuSans-33"/>
       <use xlink:href="#DejaVuSans-2e" x="63.623047"/>
       <use xlink:href="#DejaVuSans-32" x="95.410156"/>
       <use xlink:href="#DejaVuSans-34" x="159.033203"/>
      </g>
     </g>
    </g>
    <g id="ytick_4">
     <g id="line2d_12">
      <g>
       <use xlink:href="#mba88fc31a3" x="40.256984" y="177.716289" style="stroke: #000000; stroke-width: 0.8"/>
      </g>
     </g>
     <g id="text_12">
      <!-- 3.26 -->
      <g transform="translate(10.991359 181.515508) scale(0.1 -0.1)">
       <use xlink:href="#DejaVuSans-33"/>
       <use xlink:href="#DejaVuSans-2e" x="63.623047"/>
       <use xlink:href="#DejaVuSans-32" x="95.410156"/>
       <use xlink:href="#DejaVuSans-36" x="159.033203"/>
      </g>
     </g>
    </g>
    <g id="ytick_5">
     <g id="line2d_13">
      <g>
       <use xlink:href="#mba88fc31a3" x="40.256984" y="147.431127" style="stroke: #000000; stroke-width: 0.8"/>
      </g>
     </g>
     <g id="text_13">
      <!-- 3.28 -->
      <g transform="translate(10.991359 151.230346) scale(0.1 -0.1)">
       <use xlink:href="#DejaVuSans-33"/>
       <use xlink:href="#DejaVuSans-2e" x="63.623047"/>
       <use xlink:href="#DejaVuSans-32" x="95.410156"/>
       <use xlink:href="#DejaVuSans-38" x="159.033203"/>
      </g>
     </g>
    </g>
    <g id="ytick_6">
     <g id="line2d_14">
      <g>
       <use xlink:href="#mba88fc31a3" x="40.256984" y="117.145964" style="stroke: #000000; stroke-width: 0.8"/>
      </g>
     </g>
     <g id="text_14">
      <!-- 3.30 -->
      <g transform="translate(10.991359 120.945183) scale(0.1 -0.1)">
       <use xlink:href="#DejaVuSans-33"/>
       <use xlink:href="#DejaVuSans-2e" x="63.623047"/>
       <use xlink:href="#DejaVuSans-33" x="95.410156"/>
       <use xlink:href="#DejaVuSans-30" x="159.033203"/>
      </g>
     </g>
    </g>
    <g id="ytick_7">
     <g id="line2d_15">
      <g>
       <use xlink:href="#mba88fc31a3" x="40.256984" y="86.860802" style="stroke: #000000; stroke-width: 0.8"/>
      </g>
     </g>
     <g id="text_15">
      <!-- 3.32 -->
      <g transform="translate(10.991359 90.660021) scale(0.1 -0.1)">
       <use xlink:href="#DejaVuSans-33"/>
       <use xlink:href="#DejaVuSans-2e" x="63.623047"/>
       <use xlink:href="#DejaVuSans-33" x="95.410156"/>
       <use xlink:href="#DejaVuSans-32" x="159.033203"/>
      </g>
     </g>
    </g>
    <g id="ytick_8">
     <g id="line2d_16">
      <g>
       <use xlink:href="#mba88fc31a3" x="40.256984" y="56.57564" style="stroke: #000000; stroke-width: 0.8"/>
      </g>
     </g>
     <g id="text_16">
      <!-- 3.34 -->
      <g transform="translate(10.991359 60.374859) scale(0.1 -0.1)">
       <use xlink:href="#DejaVuSans-33"/>
       <use xlink:href="#DejaVuSans-2e" x="63.623047"/>
       <use xlink:href="#DejaVuSans-33" x="95.410156"/>
       <use xlink:href="#DejaVuSans-34" x="159.033203"/>
      </g>
     </g>
    </g>
    <g id="text_17">
     <!-- 1e18 -->
     <g transform="translate(40.256984 23.88) scale(0.1 -0.1)">
      <defs>
       <path id="DejaVuSans-65" d="M 3597 1894 
L 3597 1613 
L 953 1613 
Q 991 1019 1311 708 
Q 1631 397 2203 397 
Q 2534 397 2845 478 
Q 3156 559 3463 722 
L 3463 178 
Q 3153 47 2828 -22 
Q 2503 -91 2169 -91 
Q 1331 -91 842 396 
Q 353 884 353 1716 
Q 353 2575 817 3079 
Q 1281 3584 2069 3584 
Q 2775 3584 3186 3129 
Q 3597 2675 3597 1894 
z
M 3022 2063 
Q 3016 2534 2758 2815 
Q 2500 3097 2075 3097 
Q 1594 3097 1305 2825 
Q 1016 2553 972 2059 
L 3022 2063 
z
" transform="scale(0.015625)"/>
      </defs>
      <use xlink:href="#DejaVuSans-31"/>
      <use xlink:href="#DejaVuSans-65" x="63.623047"/>
      <use xlink:href="#DejaVuSans-31" x="125.146484"/>
      <use xlink:href="#DejaVuSans-38" x="188.769531"/>
     </g>
    </g>
   </g>
   <g id="line2d_17">
    <path d="M 49.196564 188.275269 
L 49.579191 188.013131 
L 49.961818 187.10902 
L 50.344444 189.946587 
L 50.727071 188.428965 
L 51.109698 188.902643 
L 51.492325 190.970362 
L 51.874951 191.757867 
L 52.257578 191.390532 
L 52.640205 193.919553 
L 53.022831 193.747475 
L 53.405458 192.745709 
L 53.788085 194.748845 
L 54.170712 194.060585 
L 54.553338 195.13984 
L 54.935965 195.18887 
L 55.318592 196.949607 
L 55.701219 196.363844 
L 56.083845 197.310872 
L 56.466472 196.887727 
L 56.849099 198.286857 
L 57.231726 198.838861 
L 57.614352 199.856098 
L 57.996979 199.108806 
L 58.379606 197.95959 
L 58.762233 199.793483 
L 59.144859 200.331513 
L 59.527486 201.500578 
L 59.910113 199.823413 
L 60.675366 201.372133 
L 61.057993 201.35818 
L 61.823246 202.479287 
L 62.205873 202.583441 
L 62.5885 202.294215 
L 62.971127 204.333139 
L 63.73638 202.525293 
L 64.119007 202.622255 
L 64.501634 203.844452 
L 64.88426 202.684008 
L 65.266887 203.108206 
L 66.032141 204.472295 
L 66.414767 204.529791 
L 66.797394 205.755346 
L 67.180021 205.432375 
L 67.562647 205.321475 
L 67.945274 205.99701 
L 68.327901 206.136254 
L 68.710528 204.593848 
L 69.093154 204.879615 
L 69.475781 205.351967 
L 69.858408 205.248649 
L 70.241035 205.73699 
L 70.623661 206.803055 
L 71.006288 206.86981 
L 71.771542 209.120917 
L 72.154168 208.456116 
L 72.536795 206.854999 
L 72.919422 208.239614 
L 73.302049 206.449394 
L 74.067302 207.313524 
L 74.449929 206.488982 
L 74.832555 206.511698 
L 75.215182 207.595261 
L 75.597809 208.327228 
L 75.980436 209.93229 
L 76.363062 210.474747 
L 76.745689 211.641633 
L 77.128316 211.640578 
L 77.510943 210.925105 
L 77.893569 211.53885 
L 78.276196 212.440425 
L 78.658823 212.359797 
L 79.04145 211.136437 
L 79.424076 211.379404 
L 79.806703 211.840982 
L 80.18933 212.860096 
L 80.571957 212.961664 
L 80.954583 213.613735 
L 81.33721 213.043863 
L 82.102463 215.973616 
L 82.48509 216.375667 
L 82.867717 216.0161 
L 83.250344 215.995001 
L 83.63297 215.394253 
L 84.015597 215.36244 
L 84.398224 214.87871 
L 84.780851 214.895992 
L 85.163477 216.474622 
L 85.546104 216.150655 
L 85.928731 216.713024 
L 86.311358 218.003516 
L 86.693984 217.686824 
L 87.076611 218.979705 
L 87.459238 218.692002 
L 87.841865 219.406633 
L 88.224491 219.707655 
L 88.607118 219.366829 
L 88.989745 218.801956 
L 89.372371 218.731974 
L 89.754998 219.584042 
L 90.137625 219.869791 
L 90.520252 219.418969 
L 90.902878 219.911768 
L 91.285505 220.818357 
L 91.668132 220.015018 
L 92.433385 221.381026 
L 92.816012 221.202843 
L 93.198639 221.341055 
L 93.581266 220.680104 
L 93.963892 221.290673 
L 94.729146 220.059983 
L 95.111773 220.92341 
L 95.494399 221.229749 
L 95.877026 222.030204 
L 96.259653 222.092382 
L 96.642279 222.377405 
L 97.024906 222.456164 
L 97.407533 221.949158 
L 97.79016 221.775986 
L 98.172786 221.976812 
L 98.555413 222.376712 
L 98.93804 221.55536 
L 99.320667 222.060088 
L 99.703293 220.603257 
L 100.08592 221.700567 
L 100.468547 220.716219 
L 100.851174 220.43901 
L 101.2338 221.15621 
L 101.616427 221.177742 
L 101.999054 220.215678 
L 102.381681 220.02002 
L 102.764307 220.255261 
L 103.146934 219.454369 
L 103.529561 220.250146 
L 103.912187 219.583458 
L 104.294814 218.565891 
L 105.060068 218.732439 
L 105.442694 218.470636 
L 105.825321 218.467659 
L 106.207948 218.664896 
L 106.590575 218.186204 
L 106.973201 217.967291 
L 107.355828 218.603223 
L 107.738455 218.43032 
L 108.121082 217.972166 
L 108.503708 217.920627 
L 108.886335 217.369943 
L 109.268962 217.316135 
L 109.651589 217.961078 
L 110.034215 217.674196 
L 110.416842 218.227545 
L 110.799469 218.031137 
L 111.182095 218.055415 
L 111.564722 218.664521 
L 111.947349 217.545815 
L 112.329976 217.768379 
L 113.095229 217.804601 
L 113.477856 216.764557 
L 113.860483 217.301173 
L 114.243109 217.475348 
L 114.625736 217.804064 
L 115.008363 217.393752 
L 115.39099 217.416785 
L 116.156243 218.487774 
L 116.53887 217.67239 
L 116.921497 217.870666 
L 117.304123 217.172872 
L 117.68675 218.036602 
L 119.217257 215.85412 
L 119.599884 216.185614 
L 119.98251 215.771015 
L 120.365137 216.110463 
L 120.747764 215.809782 
L 121.130391 214.990705 
L 121.513017 215.586881 
L 121.895644 215.491683 
L 122.278271 214.809939 
L 122.660898 214.547473 
L 123.043524 213.87914 
L 123.426151 213.736014 
L 124.191405 212.973921 
L 124.574031 212.989002 
L 124.956658 211.980253 
L 125.339285 212.221397 
L 126.487165 211.685199 
L 126.869792 210.722775 
L 127.252418 210.901824 
L 127.635045 210.730621 
L 128.400299 211.15303 
L 129.548179 210.44963 
L 129.930806 209.854801 
L 130.313432 209.771757 
L 130.696059 209.855311 
L 131.078686 209.474225 
L 131.843939 209.724797 
L 132.226566 209.459498 
L 132.609193 208.593433 
L 132.991819 208.93052 
L 133.374446 208.565074 
L 133.757073 207.894694 
L 134.904953 207.25047 
L 135.28758 206.692443 
L 135.670207 206.791893 
L 136.052833 206.66652 
L 136.43546 206.066597 
L 136.818087 206.604945 
L 137.200714 206.143092 
L 138.348594 205.517468 
L 138.731221 205.643098 
L 139.113847 205.097966 
L 139.496474 204.7694 
L 139.879101 204.289885 
L 141.026981 203.871422 
L 141.409608 203.214851 
L 142.174861 202.872387 
L 142.557488 202.741313 
L 142.940115 202.872893 
L 143.322741 202.359954 
L 143.705368 201.569588 
L 144.087995 201.387952 
L 144.853248 201.545503 
L 145.618502 201.265214 
L 146.001129 200.401755 
L 146.383755 200.541234 
L 147.531635 199.993563 
L 148.679516 199.217565 
L 149.444769 199.075276 
L 150.210023 198.492068 
L 150.592649 199.121685 
L 150.975276 199.089694 
L 152.123156 198.059443 
L 152.505783 198.41383 
L 152.88841 198.325264 
L 153.271037 197.912463 
L 153.653663 197.939177 
L 154.801543 197.670619 
L 155.18417 198.06022 
L 155.566797 198.094789 
L 155.949424 197.827691 
L 157.097304 198.346358 
L 157.479931 198.295095 
L 157.862557 197.784239 
L 159.393064 197.598036 
L 160.158318 197.889623 
L 160.540945 197.642151 
L 161.306198 198.10586 
L 161.688825 197.846974 
L 162.454078 198.015402 
L 162.836705 197.686625 
L 163.601958 197.56332 
L 163.984585 197.450558 
L 164.367212 197.501598 
L 164.749839 196.904168 
L 165.132465 197.10685 
L 165.515092 197.465987 
L 166.280346 197.682901 
L 166.662972 197.696122 
L 167.045599 197.914618 
L 168.193479 197.665651 
L 168.958733 197.958198 
L 169.341359 197.64223 
L 169.723986 197.953965 
L 170.48924 197.525925 
L 170.871866 197.236089 
L 171.254493 197.616226 
L 171.63712 198.509974 
L 173.167627 197.713603 
L 174.315507 198.174808 
L 175.463387 198.002376 
L 175.846014 198.787638 
L 176.228641 198.629443 
L 176.611267 198.306375 
L 177.376521 198.517287 
L 177.759148 198.201417 
L 178.141774 198.277523 
L 178.907028 198.156075 
L 179.289655 198.366496 
L 179.672281 198.029279 
L 180.054908 198.180275 
L 180.437535 198.073772 
L 181.202788 198.290582 
L 181.585415 198.701787 
L 181.968042 198.46182 
L 182.350669 198.376512 
L 182.733295 198.546736 
L 183.498549 198.454653 
L 183.881175 198.023189 
L 184.263802 198.308305 
L 184.646429 198.123221 
L 185.029056 198.486609 
L 185.411682 198.514908 
L 185.794309 198.666482 
L 186.176936 198.20763 
L 186.559563 198.909113 
L 186.942189 199.073072 
L 187.707443 198.794647 
L 188.09007 198.95433 
L 188.472696 198.520402 
L 188.855323 198.56717 
L 189.620577 198.411821 
L 190.003203 198.082236 
L 190.38583 198.669511 
L 190.768457 198.842911 
L 191.151083 198.399006 
L 191.53371 198.436542 
L 191.916337 198.024053 
L 192.298964 198.277995 
L 192.68159 198.376668 
L 193.064217 198.157146 
L 193.446844 197.638005 
L 193.829471 197.334627 
L 194.212097 196.752126 
L 194.977351 197.459365 
L 195.359978 197.345849 
L 195.742604 196.884042 
L 197.273111 196.021765 
L 197.655738 195.372679 
L 198.803618 194.71741 
L 199.186245 194.204931 
L 199.568872 194.227109 
L 199.951498 193.102481 
L 200.334125 193.220692 
L 200.716752 193.183002 
L 201.099379 192.642947 
L 201.482005 192.558187 
L 201.864632 192.017308 
L 202.247259 191.723404 
L 202.629886 191.652227 
L 204.543019 189.664396 
L 205.308273 189.730307 
L 206.456153 188.738419 
L 206.83878 188.774543 
L 207.604033 188.282792 
L 207.98666 187.99205 
L 208.369287 187.265746 
L 208.751913 187.431853 
L 209.13454 187.157974 
L 209.517167 187.431597 
L 209.899794 187.521115 
L 210.28242 187.162225 
L 210.665047 186.519517 
L 211.047674 186.322469 
L 211.430301 186.99646 
L 211.812927 186.794705 
L 212.195554 186.808365 
L 212.960807 186.231938 
L 213.343434 186.228251 
L 213.726061 186.644859 
L 214.873941 186.088447 
L 215.256568 186.045351 
L 215.639195 186.173878 
L 216.021821 185.917155 
L 216.404448 185.934164 
L 216.787075 186.193004 
L 217.169702 186.126342 
L 217.552328 186.750527 
L 218.317582 186.447943 
L 218.700209 186.568098 
L 220.230715 185.656721 
L 220.613342 185.337176 
L 220.995969 185.372417 
L 221.378596 184.99583 
L 221.761222 184.930531 
L 222.143849 185.061092 
L 222.526476 184.764073 
L 223.291729 184.901827 
L 223.674356 184.813417 
L 224.056983 184.448633 
L 224.43961 184.471368 
L 225.204863 184.002782 
L 225.970117 183.886917 
L 226.73537 183.473387 
L 227.117997 182.711907 
L 227.500623 182.538509 
L 227.88325 182.590228 
L 228.265877 182.871249 
L 229.03113 182.479377 
L 229.413757 181.610068 
L 229.796384 181.510373 
L 230.179011 181.210028 
L 230.561637 181.574009 
L 230.944264 180.755635 
L 231.326891 180.711279 
L 232.092144 180.083204 
L 232.474771 180.008175 
L 233.240025 179.393969 
L 233.622651 179.350688 
L 234.005278 179.148253 
L 234.387905 179.483744 
L 234.770531 179.231223 
L 235.153158 178.836055 
L 235.535785 178.680976 
L 235.918412 178.176652 
L 236.683665 178.416803 
L 237.066292 177.985447 
L 237.448919 178.062628 
L 237.831545 177.798523 
L 238.214172 177.800792 
L 238.596799 177.593837 
L 239.362052 177.575926 
L 239.744679 177.352883 
L 240.127306 177.675736 
L 241.275186 177.158313 
L 241.657813 177.216207 
L 242.040439 177.476739 
L 242.805693 177.302414 
L 243.18832 177.74702 
L 243.570946 177.491311 
L 243.953573 177.590779 
L 244.3362 177.399791 
L 245.101453 177.505617 
L 245.48408 177.667241 
L 247.014587 176.860944 
L 248.162467 176.764001 
L 248.545094 177.009501 
L 249.692974 176.686243 
L 250.075601 176.444041 
L 250.840854 176.402869 
L 251.223481 176.713987 
L 251.988735 176.023543 
L 252.371361 176.023682 
L 252.753988 175.606469 
L 253.136615 176.31857 
L 253.901868 174.803022 
L 254.284495 175.046622 
L 254.667122 174.796683 
L 255.049749 174.267882 
L 255.432375 174.34042 
L 256.197629 173.073776 
L 256.580255 173.484097 
L 256.962882 173.309507 
L 257.345509 172.748527 
L 257.728136 173.04317 
L 258.110762 172.306032 
L 258.493389 171.930418 
L 258.876016 172.281412 
L 259.258643 171.521786 
L 259.641269 171.036453 
L 260.023896 171.147059 
L 260.406523 170.536355 
L 260.78915 170.276107 
L 261.171776 170.629987 
L 261.554403 170.266608 
L 261.93703 170.190898 
L 262.319657 169.896978 
L 262.702283 169.201945 
L 263.08491 169.349827 
L 263.467537 169.155751 
L 263.850163 168.353725 
L 264.23279 168.726817 
L 264.615417 168.56443 
L 264.998044 168.015556 
L 265.38067 168.319813 
L 265.763297 168.083899 
L 266.145924 167.458395 
L 266.528551 168.092764 
L 267.293804 167.177354 
L 267.676431 167.739481 
L 268.441684 166.738544 
L 268.824311 167.205253 
L 269.589565 166.242918 
L 269.972191 166.790319 
L 270.737445 165.777782 
L 271.120071 166.169637 
L 271.885325 165.088144 
L 272.267952 165.389531 
L 272.650578 165.174457 
L 273.033205 164.613318 
L 273.415832 164.899007 
L 273.798459 164.609184 
L 274.181085 163.988896 
L 274.563712 164.324371 
L 275.328966 163.19336 
L 275.711592 163.896141 
L 276.094219 163.481134 
L 276.476846 163.391467 
L 276.859473 163.05642 
L 277.242099 162.509437 
L 277.624726 162.386381 
L 278.007353 162.397471 
L 278.389979 161.704219 
L 278.772606 161.445539 
L 279.155233 161.518225 
L 279.53786 160.89591 
L 280.303113 160.51267 
L 280.68574 159.821551 
L 281.068367 160.05176 
L 281.450993 159.639189 
L 281.83362 158.961928 
L 282.216247 159.443131 
L 282.9815 157.503246 
L 283.364127 157.747777 
L 284.129381 156.250918 
L 284.512007 156.448581 
L 285.277261 154.687514 
L 285.659887 154.678585 
L 286.042514 154.189868 
L 286.425141 153.269323 
L 286.807768 153.555981 
L 287.573021 151.726141 
L 287.955648 151.839366 
L 288.720901 150.503164 
L 289.103528 150.686604 
L 289.486155 149.822065 
L 289.868782 149.402643 
L 290.251408 149.43776 
L 291.016662 148.784215 
L 291.399289 148.886837 
L 292.164542 147.82703 
L 292.547169 148.265985 
L 292.929795 147.587759 
L 293.312422 147.35314 
L 293.695049 147.653996 
L 294.077676 147.157643 
L 294.460302 147.211164 
L 294.842929 147.476205 
L 295.225556 146.707473 
L 295.608183 146.982556 
L 295.990809 146.8704 
L 296.373436 146.500664 
L 296.756063 147.074366 
L 297.13869 146.763353 
L 297.521316 146.260676 
L 297.903943 146.659746 
L 298.28657 146.413166 
L 298.669197 145.936847 
L 299.051823 146.723268 
L 299.817077 145.822468 
L 300.199703 146.32762 
L 300.964957 145.708778 
L 301.347584 146.223181 
L 302.112837 145.609723 
L 302.495464 146.139288 
L 302.878091 145.946307 
L 303.260717 145.360517 
L 303.643344 145.348167 
L 304.025971 145.221149 
L 304.408598 144.914018 
L 304.791224 145.44343 
L 305.556478 144.558245 
L 305.939105 144.864785 
L 306.704358 143.781252 
L 307.086985 144.360034 
L 307.469611 143.89458 
L 307.852238 143.604764 
L 308.234865 143.865945 
L 308.617492 143.211882 
L 309.000118 142.883363 
L 309.382745 142.949282 
L 309.765372 142.569558 
L 310.147999 142.685813 
L 310.530625 142.502267 
L 310.913252 142.013581 
L 311.678506 141.797856 
L 312.061132 141.346364 
L 312.443759 141.587026 
L 312.826386 141.447982 
L 313.209013 140.958106 
L 313.591639 141.260569 
L 313.974266 141.074722 
L 314.356893 140.648659 
L 314.739519 140.982254 
L 315.504773 139.889278 
L 315.8874 140.292692 
L 316.270026 140.013896 
L 316.652653 139.545847 
L 317.03528 139.854575 
L 317.800533 138.641496 
L 318.18316 139.295875 
L 318.948414 138.254624 
L 319.33104 138.384711 
L 319.713667 137.654677 
L 320.096294 137.262348 
L 320.478921 137.663829 
L 321.244174 136.396541 
L 321.626801 136.710285 
L 322.009427 136.05007 
L 322.392054 136.003853 
L 322.774681 136.200651 
L 323.539934 135.1283 
L 323.922561 135.367733 
L 324.687815 134.854366 
L 325.070441 134.712082 
L 325.453068 133.796878 
L 325.835695 133.694611 
L 326.218322 133.819864 
L 326.600948 133.381015 
L 327.366202 132.828199 
L 327.748829 132.232189 
L 328.131455 131.905885 
L 328.514082 131.986905 
L 328.896709 131.240349 
L 329.279335 131.606064 
L 330.044589 130.358202 
L 330.427216 130.568592 
L 331.192469 129.007205 
L 331.575096 128.994001 
L 331.957723 128.653375 
L 332.340349 128.156293 
L 332.722976 128.262365 
L 333.48823 126.757111 
L 333.870856 127.04212 
L 334.253483 126.704828 
L 334.63611 126.146609 
L 335.018737 126.300338 
L 335.401363 125.54402 
L 335.78399 125.182021 
L 336.166617 125.500826 
L 336.93187 124.45339 
L 337.314497 124.797027 
L 338.07975 123.911196 
L 338.462377 124.148476 
L 339.227631 123.209004 
L 339.610257 123.376736 
L 339.992884 122.825423 
L 340.375511 123.023292 
L 340.758138 123.358878 
L 341.523391 122.17051 
L 342.288645 121.923367 
L 342.671271 122.297991 
L 343.053898 122.277023 
L 343.436525 121.581297 
L 343.819151 121.508634 
L 344.584405 120.439457 
L 344.967032 120.486859 
L 345.349658 119.859373 
L 345.732285 118.964782 
L 346.114912 118.847814 
L 346.880165 117.427977 
L 347.262792 117.424254 
L 348.028046 115.885404 
L 348.410672 116.238003 
L 348.793299 116.218832 
L 349.175926 116.815051 
L 349.558553 118.350021 
L 349.941179 123.016535 
L 350.323806 145.329147 
L 350.706433 71.546661 
L 351.089059 94.617193 
L 351.471686 99.464378 
L 351.854313 101.999408 
L 352.23694 102.672247 
L 353.38482 106.312515 
L 353.767447 106.455955 
L 354.150073 107.541157 
L 354.915327 108.699233 
L 355.297954 109.836738 
L 356.063207 110.978883 
L 356.445834 112.248039 
L 356.82846 112.878084 
L 357.593714 114.618575 
L 357.976341 115.118897 
L 358.741594 117.124111 
L 359.124221 117.688458 
L 359.889474 119.54773 
L 360.272101 120.023293 
L 361.037355 121.940493 
L 361.419981 122.524821 
L 362.185235 124.082593 
L 362.567862 124.451193 
L 362.950488 125.882315 
L 363.333115 126.206373 
L 363.715742 126.963069 
L 364.098368 128.085752 
L 364.863622 129.064909 
L 365.246249 130.357731 
L 365.628875 130.783985 
L 366.011502 130.951558 
L 366.394129 131.917057 
L 367.159382 132.745125 
L 367.542009 133.757088 
L 368.307263 133.807971 
L 368.689889 134.598342 
L 369.455143 134.883536 
L 369.83777 135.528253 
L 370.603023 135.242115 
L 370.98565 135.797662 
L 371.368276 135.656614 
L 371.750903 135.793193 
L 372.13353 136.303117 
L 372.516157 136.314248 
L 372.898783 136.90225 
L 374.046664 140.8875 
L 374.811917 145.305603 
L 375.194544 149.328079 
L 375.577171 155.661771 
L 375.959797 171.365378 
L 376.342424 225.686411 
L 376.725051 36.561867 
L 377.107678 292.464909 
L 377.490304 297.614865 
L 377.519795 300.52 
M 377.921892 300.52 
L 378.255558 63.447071 
L 379.020811 95.914042 
L 379.403438 102.406952 
L 380.168691 108.927288 
L 380.551318 108.040641 
L 380.933945 107.958698 
L 381.316572 106.506185 
L 381.699198 106.162597 
L 382.081825 106.372432 
L 382.464452 107.266912 
L 382.847079 108.696197 
L 383.229705 111.24325 
L 383.612332 112.481875 
L 383.994959 114.174461 
L 384.377586 116.554766 
L 384.760212 118.125978 
L 385.142839 121.054212 
L 385.525466 125.811863 
L 385.689923 -1 
M 386.815638 -1 
L 387.055973 140.581069 
L 387.438599 130.436836 
L 387.821226 140.203386 
L 388.019275 -1 
M 388.965371 -1 
L 389.73436 61.755653 
L 390.116987 63.299592 
L 390.499613 60.871655 
L 390.88224 56.479606 
L 391.264867 48.76763 
L 392.477356 -1 
M 395.367993 -1 
L 395.856388 21.772238 
L 397.004268 52.95285 
L 397.769521 64.764928 
L 398.152148 67.979634 
L 398.534775 69.919081 
L 398.917402 71.094412 
L 399.300028 71.333676 
L 399.682655 72.504126 
L 400.065282 74.05887 
L 400.447908 74.77491 
L 400.830535 74.888363 
L 401.213162 75.31739 
L 401.595789 75.24021 
L 401.978415 76.150059 
L 402.743669 81.596595 
L 403.126296 84.651352 
L 404.656803 101.694648 
L 405.422056 112.908179 
L 405.804683 116.794915 
L 406.18731 124.161097 
L 406.569936 128.614633 
L 406.952563 135.648566 
L 407.717816 142.132826 
L 408.100443 144.864823 
L 408.48307 145.458109 
L 408.865697 144.512827 
L 409.248323 144.239087 
L 409.63095 141.454492 
L 410.013577 140.801943 
L 411.161457 134.603904 
L 412.309337 125.631046 
L 413.074591 120.014322 
L 413.839844 116.208981 
L 414.222471 115.116312 
L 414.605098 115.759633 
L 415.370351 117.558016 
L 420.727126 150.227701 
L 421.109752 152.861176 
L 421.492379 156.745597 
L 421.875006 156.714966 
L 422.257632 155.240608 
L 422.640259 154.493819 
L 423.405513 151.104945 
L 423.788139 149.257358 
L 424.170766 145.148295 
L 424.553393 136.900018 
L 425.318646 130.689074 
L 425.701273 111.794996 
L 426.0839 79.543686 
L 426.466527 81.787373 
L 426.849153 107.138487 
L 427.23178 71.24091 
L 427.614407 59.198697 
L 427.997034 64.691242 
L 429.144914 85.482585 
L 429.910167 92.808095 
L 430.292794 95.887941 
L 430.675421 91.969698 
L 431.058047 82.233318 
L 431.440674 91.483049 
L 431.440674 91.483049 
" clip-path="url(#p7d8eb38d4e)" style="fill: none; stroke: #1f77b4; stroke-width: 1.5; stroke-linecap: square"/>
   </g>
   <g id="line2d_18">
    <path d="M 49.196564 227.205689 
L 53.788085 228.93071 
L 58.379606 230.413546 
L 62.5885 231.553749 
L 67.180021 232.55075 
L 71.771542 233.293826 
L 76.363062 233.790887 
L 80.954583 234.05295 
L 85.546104 234.092562 
L 90.520252 233.901382 
L 95.494399 233.486199 
L 100.851174 232.811172 
L 106.207948 231.9228 
L 107.738455 231.739308 
L 108.503708 231.919554 
L 109.651589 232.449264 
L 111.182095 233.163265 
L 111.947349 233.299689 
L 112.712602 233.220973 
L 114.625736 232.68334 
L 118.83463 231.418553 
L 121.513017 230.521465 
L 124.191405 229.698069 
L 126.487165 228.902623 
L 129.548179 227.868695 
L 131.843939 227.044991 
L 134.904953 225.937801 
L 137.58334 225.007146 
L 150.592649 219.804831 
L 156.33205 217.328563 
L 160.540945 215.617615 
L 168.193479 212.227956 
L 171.254493 210.941037 
L 180.820162 206.68087 
L 184.646429 204.895289 
L 189.620577 202.574174 
L 193.829471 200.693765 
L 203.012512 196.310706 
L 207.221406 194.213369 
L 212.195554 191.787044 
L 216.021821 189.988211 
L 224.43961 185.849268 
L 228.265877 183.951101 
L 235.153158 180.487594 
L 238.596799 178.75762 
L 256.962882 169.16055 
L 260.78915 167.183429 
L 269.206938 162.710126 
L 273.415832 160.414332 
L 279.53786 157.071118 
L 283.364127 154.964336 
L 291.781915 150.237337 
L 297.13869 147.134948 
L 302.495464 144.128275 
L 307.469611 141.230843 
L 313.209013 137.92409 
L 317.800533 135.205417 
L 325.453068 130.648549 
L 331.192469 127.082734 
L 363.715742 106.717451 
L 407.33519 77.88457 
L 414.605098 73.001455 
L 431.440674 61.571239 
L 431.440674 61.571239 
" clip-path="url(#p7d8eb38d4e)" style="fill: none; stroke: #ff7f0e; stroke-width: 1.5; stroke-linecap: square"/>
   </g>
   <g id="patch_3">
    <path d="M 40.256984 271.64 
L 40.256984 26.88 
" style="fill: none; stroke: #000000; stroke-width: 0.8; stroke-linejoin: miter; stroke-linecap: square"/>
   </g>
   <g id="patch_4">
    <path d="M 446.314286 271.64 
L 446.314286 26.88 
" style="fill: none; stroke: #000000; stroke-width: 0.8; stroke-linejoin: miter; stroke-linecap: square"/>
   </g>
   <g id="patch_5">
    <path d="M 40.256984 271.64 
L 446.314286 271.64 
" style="fill: none; stroke: #000000; stroke-width: 0.8; stroke-linejoin: miter; stroke-linecap: square"/>
   </g>
   <g id="patch_6">
    <path d="M 40.256984 26.88 
L 446.314286 26.88 
" style="fill: none; stroke: #000000; stroke-width: 0.8; stroke-linejoin: miter; stroke-linecap: square"/>
   </g>
   <g id="text_18">
    <!-- epsilon -->
    <g transform="translate(221.851572 20.88) scale(0.12 -0.12)">
     <defs>
      <path id="DejaVuSans-70" d="M 1159 525 
L 1159 -1331 
L 581 -1331 
L 581 3500 
L 1159 3500 
L 1159 2969 
Q 1341 3281 1617 3432 
Q 1894 3584 2278 3584 
Q 2916 3584 3314 3078 
Q 3713 2572 3713 1747 
Q 3713 922 3314 415 
Q 2916 -91 2278 -91 
Q 1894 -91 1617 61 
Q 1341 213 1159 525 
z
M 3116 1747 
Q 3116 2381 2855 2742 
Q 2594 3103 2138 3103 
Q 1681 3103 1420 2742 
Q 1159 2381 1159 1747 
Q 1159 1113 1420 752 
Q 1681 391 2138 391 
Q 2594 391 2855 752 
Q 3116 1113 3116 1747 
z
" transform="scale(0.015625)"/>
      <path id="DejaVuSans-73" d="M 2834 3397 
L 2834 2853 
Q 2591 2978 2328 3040 
Q 2066 3103 1784 3103 
Q 1356 3103 1142 2972 
Q 928 2841 928 2578 
Q 928 2378 1081 2264 
Q 1234 2150 1697 2047 
L 1894 2003 
Q 2506 1872 2764 1633 
Q 3022 1394 3022 966 
Q 3022 478 2636 193 
Q 2250 -91 1575 -91 
Q 1294 -91 989 -36 
Q 684 19 347 128 
L 347 722 
Q 666 556 975 473 
Q 1284 391 1588 391 
Q 1994 391 2212 530 
Q 2431 669 2431 922 
Q 2431 1156 2273 1281 
Q 2116 1406 1581 1522 
L 1381 1569 
Q 847 1681 609 1914 
Q 372 2147 372 2553 
Q 372 3047 722 3315 
Q 1072 3584 1716 3584 
Q 2034 3584 2315 3537 
Q 2597 3491 2834 3397 
z
" transform="scale(0.015625)"/>
      <path id="DejaVuSans-69" d="M 603 3500 
L 1178 3500 
L 1178 0 
L 603 0 
L 603 3500 
z
M 603 4863 
L 1178 4863 
L 1178 4134 
L 603 4134 
L 603 4863 
z
" transform="scale(0.015625)"/>
      <path id="DejaVuSans-6c" d="M 603 4863 
L 1178 4863 
L 1178 0 
L 603 0 
L 603 4863 
z
" transform="scale(0.015625)"/>
      <path id="DejaVuSans-6f" d="M 1959 3097 
Q 1497 3097 1228 2736 
Q 959 2375 959 1747 
Q 959 1119 1226 758 
Q 1494 397 1959 397 
Q 2419 397 2687 759 
Q 2956 1122 2956 1747 
Q 2956 2369 2687 2733 
Q 2419 3097 1959 3097 
z
M 1959 3584 
Q 2709 3584 3137 3096 
Q 3566 2609 3566 1747 
Q 3566 888 3137 398 
Q 2709 -91 1959 -91 
Q 1206 -91 779 398 
Q 353 888 353 1747 
Q 353 2609 779 3096 
Q 1206 3584 1959 3584 
z
" transform="scale(0.015625)"/>
      <path id="DejaVuSans-6e" d="M 3513 2113 
L 3513 0 
L 2938 0 
L 2938 2094 
Q 2938 2591 2744 2837 
Q 2550 3084 2163 3084 
Q 1697 3084 1428 2787 
Q 1159 2491 1159 1978 
L 1159 0 
L 581 0 
L 581 3500 
L 1159 3500 
L 1159 2956 
Q 1366 3272 1645 3428 
Q 1925 3584 2291 3584 
Q 2894 3584 3203 3211 
Q 3513 2838 3513 2113 
z
" transform="scale(0.015625)"/>
     </defs>
     <use xlink:href="#DejaVuSans-65"/>
     <use xlink:href="#DejaVuSans-70" x="61.523438"/>
     <use xlink:href="#DejaVuSans-73" x="125"/>
     <use xlink:href="#DejaVuSans-69" x="177.099609"/>
     <use xlink:href="#DejaVuSans-6c" x="204.882812"/>
     <use xlink:href="#DejaVuSans-6f" x="232.666016"/>
     <use xlink:href="#DejaVuSans-6e" x="293.847656"/>
    </g>
   </g>
  </g>
 </g>
 <defs>
  <clipPath id="p7d8eb38d4e">
   <rect x="40.256984" y="26.88" width="406.057302" height="244.76"/>
  </clipPath>
 </defs>
</svg>
