<?xml version="1.0" encoding="utf-8" standalone="no"?>
<!DOCTYPE svg PUBLIC "-//W3C//DTD SVG 1.1//EN"
  "http://www.w3.org/Graphics/SVG/1.1/DTD/svg11.dtd">
<svg xmlns:xlink="http://www.w3.org/1999/xlink" width="460.8pt" height="297.36pt" viewBox="0 0 460.8 297.36" xmlns="http://www.w3.org/2000/svg" version="1.1">
 <metadata>
  <rdf:RDF xmlns:dc="http://purl.org/dc/elements/1.1/" xmlns:cc="http://creativecommons.org/ns#" xmlns:rdf="http://www.w3.org/1999/02/22-rdf-syntax-ns#">
   <cc:Work>
    <dc:type rdf:resource="http://purl.org/dc/dcmitype/StillImage"/>
    <dc:date>2023-08-23T17:04:04.998642</dc:date>
    <dc:format>image/svg+xml</dc:format>
    <dc:creator>
     <cc:Agent>
      <dc:title>Matplotlib v3.7.2, https://matplotlib.org/</dc:title>
     </cc:Agent>
    </dc:creator>
   </cc:Work>
  </rdf:RDF>
 </metadata>
 <defs>
  <style type="text/css">*{stroke-linejoin: round; stroke-linecap: butt}</style>
 </defs>
 <g id="figure_1">
  <g id="patch_1">
   <path d="M 0 297.36 
L 460.8 297.36 
L 460.8 0 
L 0 0 
z
" style="fill: #ffffff"/>
  </g>
  <g id="axes_1">
   <g id="patch_2">
    <path d="M 30.49 269.48 
L 450 269.48 
L 450 26.88 
L 30.49 26.88 
z
" style="fill: #ffffff"/>
   </g>
   <g id="matplotlib.axis_1">
    <g id="xtick_1">
     <g id="line2d_1">
      <defs>
       <path id="md4980a111d" d="M 0 0 
L 0 3.5 
" style="stroke: #000000; stroke-width: 0.8"/>
      </defs>
      <g>
       <use xlink:href="#md4980a111d" x="42.49985" y="269.48" style="stroke: #000000; stroke-width: 0.8"/>
      </g>
     </g>
     <g id="text_1">
      <!-- 2 -->
      <g transform="translate(39.3186 284.078438) scale(0.1 -0.1)">
       <defs>
        <path id="DejaVuSans-32" d="M 1228 531 
L 3431 531 
L 3431 0 
L 469 0 
L 469 531 
Q 828 903 1448 1529 
Q 2069 2156 2228 2338 
Q 2531 2678 2651 2914 
Q 2772 3150 2772 3378 
Q 2772 3750 2511 3984 
Q 2250 4219 1831 4219 
Q 1534 4219 1204 4116 
Q 875 4013 500 3803 
L 500 4441 
Q 881 4594 1212 4672 
Q 1544 4750 1819 4750 
Q 2544 4750 2975 4387 
Q 3406 4025 3406 3419 
Q 3406 3131 3298 2873 
Q 3191 2616 2906 2266 
Q 2828 2175 2409 1742 
Q 1991 1309 1228 531 
z
" transform="scale(0.015625)"/>
       </defs>
       <use xlink:href="#DejaVuSans-32"/>
      </g>
     </g>
    </g>
    <g id="xtick_2">
     <g id="line2d_2">
      <g>
       <use xlink:href="#md4980a111d" x="96.076192" y="269.48" style="stroke: #000000; stroke-width: 0.8"/>
      </g>
     </g>
     <g id="text_2">
      <!-- 4 -->
      <g transform="translate(92.894942 284.078438) scale(0.1 -0.1)">
       <defs>
        <path id="DejaVuSans-34" d="M 2419 4116 
L 825 1625 
L 2419 1625 
L 2419 4116 
z
M 2253 4666 
L 3047 4666 
L 3047 1625 
L 3713 1625 
L 3713 1100 
L 3047 1100 
L 3047 0 
L 2419 0 
L 2419 1100 
L 313 1100 
L 313 1709 
L 2253 4666 
z
" transform="scale(0.015625)"/>
       </defs>
       <use xlink:href="#DejaVuSans-34"/>
      </g>
     </g>
    </g>
    <g id="xtick_3">
     <g id="line2d_3">
      <g>
       <use xlink:href="#md4980a111d" x="149.652534" y="269.48" style="stroke: #000000; stroke-width: 0.8"/>
      </g>
     </g>
     <g id="text_3">
      <!-- 6 -->
      <g transform="translate(146.471284 284.078438) scale(0.1 -0.1)">
       <defs>
        <path id="DejaVuSans-36" d="M 2113 2584 
Q 1688 2584 1439 2293 
Q 1191 2003 1191 1497 
Q 1191 994 1439 701 
Q 1688 409 2113 409 
Q 2538 409 2786 701 
Q 3034 994 3034 1497 
Q 3034 2003 2786 2293 
Q 2538 2584 2113 2584 
z
M 3366 4563 
L 3366 3988 
Q 3128 4100 2886 4159 
Q 2644 4219 2406 4219 
Q 1781 4219 1451 3797 
Q 1122 3375 1075 2522 
Q 1259 2794 1537 2939 
Q 1816 3084 2150 3084 
Q 2853 3084 3261 2657 
Q 3669 2231 3669 1497 
Q 3669 778 3244 343 
Q 2819 -91 2113 -91 
Q 1303 -91 875 529 
Q 447 1150 447 2328 
Q 447 3434 972 4092 
Q 1497 4750 2381 4750 
Q 2619 4750 2861 4703 
Q 3103 4656 3366 4563 
z
" transform="scale(0.015625)"/>
       </defs>
       <use xlink:href="#DejaVuSans-36"/>
      </g>
     </g>
    </g>
    <g id="xtick_4">
     <g id="line2d_4">
      <g>
       <use xlink:href="#md4980a111d" x="203.228877" y="269.48" style="stroke: #000000; stroke-width: 0.8"/>
      </g>
     </g>
     <g id="text_4">
      <!-- 8 -->
      <g transform="translate(200.047627 284.078438) scale(0.1 -0.1)">
       <defs>
        <path id="DejaVuSans-38" d="M 2034 2216 
Q 1584 2216 1326 1975 
Q 1069 1734 1069 1313 
Q 1069 891 1326 650 
Q 1584 409 2034 409 
Q 2484 409 2743 651 
Q 3003 894 3003 1313 
Q 3003 1734 2745 1975 
Q 2488 2216 2034 2216 
z
M 1403 2484 
Q 997 2584 770 2862 
Q 544 3141 544 3541 
Q 544 4100 942 4425 
Q 1341 4750 2034 4750 
Q 2731 4750 3128 4425 
Q 3525 4100 3525 3541 
Q 3525 3141 3298 2862 
Q 3072 2584 2669 2484 
Q 3125 2378 3379 2068 
Q 3634 1759 3634 1313 
Q 3634 634 3220 271 
Q 2806 -91 2034 -91 
Q 1263 -91 848 271 
Q 434 634 434 1313 
Q 434 1759 690 2068 
Q 947 2378 1403 2484 
z
M 1172 3481 
Q 1172 3119 1398 2916 
Q 1625 2713 2034 2713 
Q 2441 2713 2670 2916 
Q 2900 3119 2900 3481 
Q 2900 3844 2670 4047 
Q 2441 4250 2034 4250 
Q 1625 4250 1398 4047 
Q 1172 3844 1172 3481 
z
" transform="scale(0.015625)"/>
       </defs>
       <use xlink:href="#DejaVuSans-38"/>
      </g>
     </g>
    </g>
    <g id="xtick_5">
     <g id="line2d_5">
      <g>
       <use xlink:href="#md4980a111d" x="256.805219" y="269.48" style="stroke: #000000; stroke-width: 0.8"/>
      </g>
     </g>
     <g id="text_5">
      <!-- 10 -->
      <g transform="translate(250.442719 284.078438) scale(0.1 -0.1)">
       <defs>
        <path id="DejaVuSans-31" d="M 794 531 
L 1825 531 
L 1825 4091 
L 703 3866 
L 703 4441 
L 1819 4666 
L 2450 4666 
L 2450 531 
L 3481 531 
L 3481 0 
L 794 0 
L 794 531 
z
" transform="scale(0.015625)"/>
        <path id="DejaVuSans-30" d="M 2034 4250 
Q 1547 4250 1301 3770 
Q 1056 3291 1056 2328 
Q 1056 1369 1301 889 
Q 1547 409 2034 409 
Q 2525 409 2770 889 
Q 3016 1369 3016 2328 
Q 3016 3291 2770 3770 
Q 2525 4250 2034 4250 
z
M 2034 4750 
Q 2819 4750 3233 4129 
Q 3647 3509 3647 2328 
Q 3647 1150 3233 529 
Q 2819 -91 2034 -91 
Q 1250 -91 836 529 
Q 422 1150 422 2328 
Q 422 3509 836 4129 
Q 1250 4750 2034 4750 
z
" transform="scale(0.015625)"/>
       </defs>
       <use xlink:href="#DejaVuSans-31"/>
       <use xlink:href="#DejaVuSans-30" x="63.623047"/>
      </g>
     </g>
    </g>
    <g id="xtick_6">
     <g id="line2d_6">
      <g>
       <use xlink:href="#md4980a111d" x="310.381561" y="269.48" style="stroke: #000000; stroke-width: 0.8"/>
      </g>
     </g>
     <g id="text_6">
      <!-- 12 -->
      <g transform="translate(304.019061 284.078438) scale(0.1 -0.1)">
       <use xlink:href="#DejaVuSans-31"/>
       <use xlink:href="#DejaVuSans-32" x="63.623047"/>
      </g>
     </g>
    </g>
    <g id="xtick_7">
     <g id="line2d_7">
      <g>
       <use xlink:href="#md4980a111d" x="363.957903" y="269.48" style="stroke: #000000; stroke-width: 0.8"/>
      </g>
     </g>
     <g id="text_7">
      <!-- 14 -->
      <g transform="translate(357.595403 284.078438) scale(0.1 -0.1)">
       <use xlink:href="#DejaVuSans-31"/>
       <use xlink:href="#DejaVuSans-34" x="63.623047"/>
      </g>
     </g>
    </g>
    <g id="xtick_8">
     <g id="line2d_8">
      <g>
       <use xlink:href="#md4980a111d" x="417.534245" y="269.48" style="stroke: #000000; stroke-width: 0.8"/>
      </g>
     </g>
     <g id="text_8">
      <!-- 16 -->
      <g transform="translate(411.171745 284.078438) scale(0.1 -0.1)">
       <use xlink:href="#DejaVuSans-31"/>
       <use xlink:href="#DejaVuSans-36" x="63.623047"/>
      </g>
     </g>
    </g>
   </g>
   <g id="matplotlib.axis_2">
    <g id="ytick_1">
     <g id="line2d_9">
      <defs>
       <path id="mfb7bb1e777" d="M 0 0 
L -3.5 0 
" style="stroke: #000000; stroke-width: 0.8"/>
      </defs>
      <g>
       <use xlink:href="#mfb7bb1e777" x="30.49" y="248.514933" style="stroke: #000000; stroke-width: 0.8"/>
      </g>
     </g>
     <g id="text_9">
      <!-- 0 -->
      <g transform="translate(17.1275 252.314151) scale(0.1 -0.1)">
       <use xlink:href="#DejaVuSans-30"/>
      </g>
     </g>
    </g>
    <g id="ytick_2">
     <g id="line2d_10">
      <g>
       <use xlink:href="#mfb7bb1e777" x="30.49" y="208.940408" style="stroke: #000000; stroke-width: 0.8"/>
      </g>
     </g>
     <g id="text_10">
      <!-- 1 -->
      <g transform="translate(17.1275 212.739627) scale(0.1 -0.1)">
       <use xlink:href="#DejaVuSans-31"/>
      </g>
     </g>
    </g>
    <g id="ytick_3">
     <g id="line2d_11">
      <g>
       <use xlink:href="#mfb7bb1e777" x="30.49" y="169.365883" style="stroke: #000000; stroke-width: 0.8"/>
      </g>
     </g>
     <g id="text_11">
      <!-- 2 -->
      <g transform="translate(17.1275 173.165102) scale(0.1 -0.1)">
       <use xlink:href="#DejaVuSans-32"/>
      </g>
     </g>
    </g>
    <g id="ytick_4">
     <g id="line2d_12">
      <g>
       <use xlink:href="#mfb7bb1e777" x="30.49" y="129.791358" style="stroke: #000000; stroke-width: 0.8"/>
      </g>
     </g>
     <g id="text_12">
      <!-- 3 -->
      <g transform="translate(17.1275 133.590577) scale(0.1 -0.1)">
       <defs>
        <path id="DejaVuSans-33" d="M 2597 2516 
Q 3050 2419 3304 2112 
Q 3559 1806 3559 1356 
Q 3559 666 3084 287 
Q 2609 -91 1734 -91 
Q 1441 -91 1130 -33 
Q 819 25 488 141 
L 488 750 
Q 750 597 1062 519 
Q 1375 441 1716 441 
Q 2309 441 2620 675 
Q 2931 909 2931 1356 
Q 2931 1769 2642 2001 
Q 2353 2234 1838 2234 
L 1294 2234 
L 1294 2753 
L 1863 2753 
Q 2328 2753 2575 2939 
Q 2822 3125 2822 3475 
Q 2822 3834 2567 4026 
Q 2313 4219 1838 4219 
Q 1578 4219 1281 4162 
Q 984 4106 628 3988 
L 628 4550 
Q 988 4650 1302 4700 
Q 1616 4750 1894 4750 
Q 2613 4750 3031 4423 
Q 3450 4097 3450 3541 
Q 3450 3153 3228 2886 
Q 3006 2619 2597 2516 
z
" transform="scale(0.015625)"/>
       </defs>
       <use xlink:href="#DejaVuSans-33"/>
      </g>
     </g>
    </g>
    <g id="ytick_5">
     <g id="line2d_13">
      <g>
       <use xlink:href="#mfb7bb1e777" x="30.49" y="90.216834" style="stroke: #000000; stroke-width: 0.8"/>
      </g>
     </g>
     <g id="text_13">
      <!-- 4 -->
      <g transform="translate(17.1275 94.016052) scale(0.1 -0.1)">
       <use xlink:href="#DejaVuSans-34"/>
      </g>
     </g>
    </g>
    <g id="ytick_6">
     <g id="line2d_14">
      <g>
       <use xlink:href="#mfb7bb1e777" x="30.49" y="50.642309" style="stroke: #000000; stroke-width: 0.8"/>
      </g>
     </g>
     <g id="text_14">
      <!-- 5 -->
      <g transform="translate(17.1275 54.441528) scale(0.1 -0.1)">
       <defs>
        <path id="DejaVuSans-35" d="M 691 4666 
L 3169 4666 
L 3169 4134 
L 1269 4134 
L 1269 2991 
Q 1406 3038 1543 3061 
Q 1681 3084 1819 3084 
Q 2600 3084 3056 2656 
Q 3513 2228 3513 1497 
Q 3513 744 3044 326 
Q 2575 -91 1722 -91 
Q 1428 -91 1123 -41 
Q 819 9 494 109 
L 494 744 
Q 775 591 1075 516 
Q 1375 441 1709 441 
Q 2250 441 2565 725 
Q 2881 1009 2881 1497 
Q 2881 1984 2565 2268 
Q 2250 2553 1709 2553 
Q 1456 2553 1204 2497 
Q 953 2441 691 2322 
L 691 4666 
z
" transform="scale(0.015625)"/>
       </defs>
       <use xlink:href="#DejaVuSans-35"/>
      </g>
     </g>
    </g>
   </g>
   <g id="line2d_15">
    <path d="M 42.49985 235.882098 
L 42.902075 235.648564 
L 43.3043 235.256456 
L 43.706525 235.823716 
L 44.108749 235.316056 
L 44.510974 235.266893 
L 44.913199 235.831242 
L 45.315424 235.951434 
L 45.717648 235.71618 
L 46.119873 236.122373 
L 46.522098 235.990459 
L 46.924323 235.737733 
L 47.326548 236.161372 
L 47.728772 235.814661 
L 48.130997 236.030968 
L 48.533222 235.966544 
L 48.935447 236.126526 
L 49.337672 235.987177 
L 49.739896 236.149863 
L 50.142121 235.860536 
L 50.544346 236.392283 
L 50.946571 236.314894 
L 51.348796 236.374484 
L 51.75102 236.236786 
L 52.153245 235.822495 
L 52.55547 236.291469 
L 53.35992 236.655932 
L 53.762144 236.253575 
L 54.164369 236.211369 
L 54.566594 236.33276 
L 54.968819 236.057483 
L 55.371043 236.148085 
L 55.773268 236.357342 
L 56.175493 236.227575 
L 56.577718 236.260949 
L 56.979943 236.813394 
L 57.382167 236.402339 
L 57.784392 235.76062 
L 58.588842 236.251841 
L 58.991067 235.834526 
L 59.393291 235.815861 
L 60.197741 236.156993 
L 60.599966 235.978428 
L 61.002191 236.391703 
L 62.61109 236.456832 
L 63.013314 235.62842 
L 63.415539 235.351438 
L 63.817764 235.6115 
L 64.622214 235.259229 
L 65.024438 235.5365 
L 65.426663 235.547196 
L 66.231113 236.253094 
L 66.633338 236.229135 
L 67.035562 235.378372 
L 67.437787 235.845099 
L 67.840012 234.779494 
L 68.242237 234.790993 
L 68.644462 234.953337 
L 69.046686 234.278615 
L 69.448911 233.857805 
L 70.253361 233.858909 
L 70.655586 234.67612 
L 71.05781 234.45883 
L 71.460035 235.125985 
L 71.86226 235.090831 
L 72.264485 234.565298 
L 72.666709 234.989726 
L 73.471159 235.089399 
L 73.873384 234.129398 
L 74.275609 233.932969 
L 74.677833 234.171251 
L 75.080058 233.950266 
L 76.688957 233.921002 
L 77.091182 234.685164 
L 77.895632 235.4658 
L 78.297857 235.337399 
L 78.700081 235.007236 
L 79.102306 234.918824 
L 79.504531 234.65291 
L 79.906756 234.531012 
L 80.30898 234.787512 
L 80.711205 234.911419 
L 81.11343 234.68 
L 81.515655 235.417892 
L 81.91788 235.168728 
L 82.320104 235.578786 
L 82.722329 235.708689 
L 83.124554 236.199935 
L 83.526779 236.381986 
L 83.929004 236.152466 
L 84.331228 236.385611 
L 84.733453 236.317301 
L 85.135678 236.56948 
L 85.537903 236.209367 
L 85.940128 236.528988 
L 86.342352 236.445083 
L 86.744577 236.896135 
L 87.146802 237.119095 
L 88.353476 238.343608 
L 89.157926 238.349275 
L 89.560151 238.657194 
L 89.962375 238.686903 
L 90.3646 238.315989 
L 90.766825 238.811445 
L 91.16905 238.946139 
L 91.571275 239.546385 
L 91.973499 239.691495 
L 92.375724 240.0921 
L 93.180174 240.370391 
L 93.582399 239.935578 
L 93.984623 240.3215 
L 94.789073 240.057589 
L 95.191298 240.653293 
L 95.593523 239.905306 
L 95.995747 240.626652 
L 96.397972 239.706466 
L 96.800197 239.655988 
L 97.202422 240.365085 
L 97.604646 240.235117 
L 98.006871 239.828278 
L 98.409096 239.667096 
L 98.811321 239.961765 
L 99.213546 239.652395 
L 99.61577 240.265803 
L 100.42022 239.396839 
L 101.22467 239.343754 
L 101.626894 239.1299 
L 102.431344 239.210491 
L 102.833569 239.065905 
L 103.235794 239.041329 
L 103.638018 239.377673 
L 104.040243 239.369544 
L 105.649142 237.843929 
L 106.051367 238.136966 
L 106.453592 237.650842 
L 106.855817 237.923701 
L 107.660266 237.670843 
L 108.062491 238.078495 
L 108.464716 237.196819 
L 108.866941 237.349612 
L 109.67139 237.364992 
L 110.073615 236.606025 
L 110.47584 237.116664 
L 110.878065 237.161738 
L 111.280289 237.492347 
L 112.084739 237.138524 
L 112.889189 238.201951 
L 113.291413 237.780869 
L 113.693638 237.932864 
L 114.095863 237.541665 
L 114.498088 238.091232 
L 114.900312 237.822467 
L 115.302537 237.357555 
L 115.704762 237.292469 
L 116.106987 236.799563 
L 116.509212 236.989334 
L 116.911436 236.663276 
L 117.313661 237.068448 
L 117.715886 236.933846 
L 118.118111 236.331844 
L 118.520336 236.765914 
L 118.92256 236.829414 
L 119.324785 236.441868 
L 119.72701 236.321952 
L 120.129235 235.794153 
L 120.53146 235.706402 
L 120.933684 235.206152 
L 121.335909 235.097251 
L 121.738134 235.165577 
L 122.140359 234.446764 
L 122.542584 234.575587 
L 122.944808 234.317901 
L 123.347033 234.462964 
L 123.749258 234.408989 
L 124.151483 233.820808 
L 124.553707 233.878066 
L 124.955932 233.702655 
L 125.760382 234.162191 
L 126.967056 233.573552 
L 127.369281 233.025368 
L 128.173731 232.859179 
L 128.575955 232.429544 
L 128.97818 232.749258 
L 129.380405 232.700673 
L 129.78263 232.338436 
L 130.184855 231.784428 
L 130.587079 231.868944 
L 132.195978 230.412425 
L 132.598203 230.303823 
L 133.000428 229.788561 
L 133.402653 229.592188 
L 133.804878 229.522947 
L 134.207102 228.816558 
L 134.609327 229.181786 
L 135.011552 228.800459 
L 135.413777 228.704229 
L 135.816002 228.287017 
L 136.218226 228.220053 
L 136.620451 228.312437 
L 137.424901 227.564267 
L 137.827126 226.802714 
L 138.631575 226.692286 
L 139.0338 226.618135 
L 139.838249 225.985648 
L 140.240474 225.981823 
L 140.642699 225.624789 
L 141.044924 225.698215 
L 141.447149 225.63401 
L 141.849373 225.116586 
L 142.653823 224.624434 
L 143.056048 224.809771 
L 143.458273 224.791649 
L 143.860497 224.929008 
L 144.262722 224.378972 
L 144.664947 224.46348 
L 145.067172 224.266418 
L 145.871621 224.616379 
L 146.273846 224.23277 
L 146.676071 224.334894 
L 147.078296 224.070416 
L 147.480521 224.072119 
L 148.28497 224.319096 
L 148.687195 224.133205 
L 149.491644 224.722297 
L 149.893869 224.591757 
L 150.296094 224.621406 
L 150.698319 224.271838 
L 151.100544 224.600156 
L 151.502768 224.693847 
L 151.904993 224.504115 
L 152.307218 224.663492 
L 152.709443 224.480831 
L 153.111668 224.432462 
L 153.513892 224.535029 
L 153.916117 224.961202 
L 154.318342 225.140936 
L 154.720567 224.771614 
L 155.525016 225.359311 
L 155.927241 226.029643 
L 156.329466 225.806989 
L 156.731691 225.409936 
L 157.133915 225.505373 
L 157.53614 225.381595 
L 157.938365 225.82553 
L 158.34059 225.640304 
L 159.547264 226.138689 
L 159.949489 226.03655 
L 160.351714 226.63702 
L 160.753939 226.468067 
L 161.156163 226.913799 
L 161.558388 226.915255 
L 161.960613 226.774087 
L 162.362838 227.091557 
L 162.765063 226.935285 
L 163.569512 227.267929 
L 163.971737 226.916868 
L 164.776187 227.610929 
L 165.580636 228.01665 
L 165.982861 228.302904 
L 166.385086 228.43004 
L 166.78731 228.375299 
L 167.189535 228.697893 
L 167.59176 228.472505 
L 167.993985 228.804759 
L 168.39621 228.887933 
L 168.798434 228.795868 
L 169.200659 229.338099 
L 169.602884 229.116144 
L 170.005109 229.131531 
L 170.407334 228.769885 
L 170.809558 228.949881 
L 171.211783 229.890431 
L 171.614008 230.044262 
L 172.016233 229.930439 
L 172.418458 230.287756 
L 172.820682 229.645839 
L 173.222907 229.95989 
L 173.625132 230.49099 
L 174.027357 230.78075 
L 174.429581 230.531047 
L 174.831806 230.437363 
L 176.038481 231.611525 
L 176.440705 231.63417 
L 178.049605 232.470279 
L 178.451829 232.40375 
L 178.854054 232.559215 
L 179.256279 232.871054 
L 179.658504 232.672605 
L 180.060729 233.292235 
L 180.462953 233.046321 
L 180.865178 233.59138 
L 181.267403 233.755747 
L 181.669628 234.381437 
L 182.071853 234.460976 
L 182.474077 234.675432 
L 183.278527 235.599296 
L 183.680752 235.859658 
L 184.082976 235.734279 
L 184.485201 236.03334 
L 184.887426 235.677941 
L 185.289651 236.366494 
L 185.691876 236.531715 
L 186.0941 237.051456 
L 186.496325 236.639208 
L 186.89855 237.383491 
L 187.300775 237.42005 
L 188.507449 238.061713 
L 189.311899 238.137345 
L 189.714124 238.253306 
L 190.116348 238.084737 
L 190.518573 237.649048 
L 190.920798 237.997828 
L 191.323023 238.531763 
L 191.725247 238.691919 
L 192.127472 238.701399 
L 192.529697 238.529925 
L 192.931922 238.957408 
L 193.736371 239.330726 
L 194.138596 239.136811 
L 194.540821 238.80256 
L 194.943046 238.201043 
L 195.345271 237.928512 
L 196.14972 238.258593 
L 197.356395 238.276727 
L 197.758619 238.063476 
L 198.160844 238.211695 
L 198.965294 238.040892 
L 200.574193 237.667162 
L 200.976418 236.995284 
L 201.378642 237.03335 
L 201.780867 237.564394 
L 202.183092 237.294143 
L 202.585317 237.451132 
L 203.389766 237.212014 
L 203.791991 237.348184 
L 204.596441 236.863052 
L 204.998666 236.909988 
L 205.40089 236.681427 
L 205.803115 236.314792 
L 207.00979 236.582398 
L 207.814239 236.385806 
L 209.020913 236.654511 
L 209.423138 236.912228 
L 209.825363 236.334318 
L 210.227588 236.381487 
L 210.629813 236.106381 
L 211.836487 237.411341 
L 212.238712 236.562087 
L 212.640937 236.05254 
L 213.043161 236.850491 
L 213.445386 236.823872 
L 213.847611 237.351512 
L 214.249836 237.383711 
L 214.652061 237.174642 
L 215.054285 237.167139 
L 215.45651 237.724891 
L 218.674308 238.918239 
L 219.076533 239.340973 
L 219.478758 239.540687 
L 219.880983 240.208465 
L 220.283208 240.461718 
L 221.087657 240.613343 
L 221.892107 241.329565 
L 222.294332 241.18086 
L 223.501006 242.131404 
L 223.903231 242.217644 
L 224.305456 242.984607 
L 224.70768 242.706282 
L 225.51213 243.260607 
L 226.718804 243.808178 
L 227.121029 243.812488 
L 227.925479 244.392234 
L 228.729928 244.874993 
L 229.132153 245.264475 
L 229.936603 244.728536 
L 230.338827 244.639167 
L 231.545502 246.505855 
L 231.947727 245.682524 
L 232.349951 245.751444 
L 232.752176 245.435355 
L 233.154401 246.293936 
L 233.556626 245.882938 
L 233.958851 246.039189 
L 234.7633 245.386682 
L 235.165525 245.590087 
L 236.774424 244.862714 
L 237.176649 245.413248 
L 237.578874 245.218417 
L 237.981098 245.289185 
L 238.785548 243.774277 
L 239.589998 243.608097 
L 239.992222 243.157197 
L 240.394447 243.441103 
L 240.796672 242.773143 
L 241.198897 242.795375 
L 242.003346 242.318879 
L 242.405571 241.688344 
L 243.210021 241.790556 
L 243.612245 241.28821 
L 244.01447 241.528253 
L 244.416695 241.329234 
L 244.81892 241.351405 
L 245.221145 241.708407 
L 245.623369 241.085467 
L 246.025594 241.007697 
L 246.427819 240.520077 
L 246.830044 240.684809 
L 247.232269 240.244253 
L 247.634493 240.748515 
L 248.438943 240.402985 
L 249.243393 240.884348 
L 249.645617 240.903066 
L 250.047842 241.380424 
L 250.450067 241.536205 
L 250.852292 241.489081 
L 251.254517 241.856783 
L 252.058966 241.175196 
L 252.461191 241.565005 
L 252.863416 241.514276 
L 253.667865 241.799024 
L 254.87454 241.035547 
L 255.276764 241.392174 
L 255.678989 241.569913 
L 256.081214 241.166464 
L 256.483439 241.551606 
L 256.885664 240.419273 
L 257.690113 241.960059 
L 258.092338 241.403932 
L 258.494563 241.43274 
L 258.896788 242.000666 
L 259.299012 241.617537 
L 259.701237 242.514767 
L 260.103462 243.034171 
L 260.505687 242.122296 
L 260.907911 242.098927 
L 261.310136 242.699598 
L 261.712361 241.943645 
L 262.114586 242.776408 
L 262.516811 243.044901 
L 262.919035 242.140915 
L 263.32126 242.97539 
L 263.723485 243.30849 
L 264.12571 242.830158 
L 264.527935 243.426044 
L 264.930159 243.532577 
L 265.332384 242.530672 
L 265.734609 242.621864 
L 266.136834 242.331228 
L 266.539059 242.28314 
L 266.941283 242.785872 
L 267.343508 242.344653 
L 267.745733 242.118346 
L 268.147958 242.81764 
L 268.550183 242.048164 
L 268.952407 241.790025 
L 269.354632 242.034292 
L 269.756857 241.120706 
L 270.159082 241.105267 
L 270.561306 241.479378 
L 270.963531 240.438551 
L 271.767981 240.626691 
L 272.170206 239.660321 
L 272.974655 240.070757 
L 273.37688 239.013701 
L 273.779105 239.412094 
L 274.18133 239.398901 
L 274.583554 238.537934 
L 274.985779 238.811293 
L 275.388004 238.913359 
L 275.790229 238.197711 
L 276.192454 238.693815 
L 276.594678 238.581138 
L 276.996903 237.816201 
L 277.399128 237.594667 
L 277.801353 237.881486 
L 278.203577 237.523099 
L 278.605802 237.386256 
L 279.008027 237.723592 
L 279.410252 237.238493 
L 279.812477 237.44629 
L 280.214701 237.811702 
L 280.616926 236.871664 
L 281.019151 236.966195 
L 281.421376 236.574152 
L 281.823601 236.697388 
L 282.225825 237.212009 
L 282.62805 237.124663 
L 283.030275 236.658173 
L 283.4325 237.006497 
L 283.834725 237.148169 
L 284.236949 237.029287 
L 284.639174 237.660028 
L 285.041399 237.568851 
L 285.443624 238.012143 
L 285.845848 238.273621 
L 286.248073 238.355331 
L 286.650298 238.832113 
L 287.052523 239.021651 
L 287.454748 238.585909 
L 288.259197 240.018485 
L 288.661422 239.973236 
L 289.063647 240.462049 
L 289.465872 241.31184 
L 289.868096 240.905224 
L 290.672546 241.774558 
L 291.074771 241.808713 
L 291.87922 242.167158 
L 292.281445 242.065185 
L 292.68367 242.20804 
L 293.085895 241.987923 
L 293.48812 242.289411 
L 293.890344 241.709992 
L 294.694794 241.490652 
L 295.097019 240.924229 
L 295.499243 241.278297 
L 295.901468 241.404555 
L 296.303693 241.218923 
L 296.705918 241.257045 
L 297.108143 241.430132 
L 297.510367 241.224555 
L 297.912592 241.263767 
L 298.314817 241.975106 
L 298.717042 241.277035 
L 299.119267 241.39651 
L 299.521491 241.998919 
L 299.923716 242.164345 
L 300.325941 242.45116 
L 300.728166 242.953215 
L 301.130391 242.273166 
L 301.532615 242.891032 
L 301.93484 243.152246 
L 302.337065 243.258991 
L 302.73929 243.559407 
L 303.141514 243.330576 
L 303.543739 243.488667 
L 303.945964 243.962644 
L 304.348189 243.815599 
L 304.750414 244.183145 
L 305.957088 244.735668 
L 306.359313 244.267836 
L 307.163762 244.776515 
L 307.565987 243.971215 
L 307.968212 244.993136 
L 308.370437 245.343153 
L 308.772662 244.186274 
L 309.174886 244.119544 
L 309.577111 244.698089 
L 309.979336 244.311804 
L 310.381561 244.652069 
L 310.783786 244.82633 
L 311.18601 243.557243 
L 311.588235 243.876199 
L 311.99046 244.040265 
L 312.392685 243.437005 
L 313.197134 244.53982 
L 313.599359 243.076891 
L 314.001584 243.571024 
L 314.403809 243.685466 
L 314.806033 242.675168 
L 315.208258 243.376981 
L 315.610483 243.544362 
L 316.012708 243.061834 
L 316.414933 243.2981 
L 316.817157 242.732968 
L 317.219382 242.666777 
L 317.621607 243.094329 
L 318.426057 242.62133 
L 318.828281 243.04882 
L 319.230506 242.080375 
L 319.632731 241.857949 
L 320.034956 242.307371 
L 320.43718 241.186594 
L 320.839405 241.143486 
L 321.24163 241.409883 
L 321.643855 240.358562 
L 322.04608 241.010296 
L 322.448304 241.349446 
L 322.850529 240.257137 
L 323.252754 240.27078 
L 323.654979 240.584959 
L 324.057204 239.546369 
L 324.861653 240.944714 
L 325.263878 239.514779 
L 326.068328 240.133132 
L 326.470552 239.364778 
L 326.872777 240.075017 
L 327.275002 240.49499 
L 327.677227 239.417531 
L 328.079452 240.130466 
L 328.481676 240.200967 
L 328.883901 239.746625 
L 329.286126 240.502831 
L 329.688351 239.98501 
L 330.090575 239.284887 
L 330.895025 240.431804 
L 331.29725 239.968787 
L 331.699475 240.008449 
L 332.503924 239.761062 
L 332.906149 241.039689 
L 333.308374 241.231485 
L 333.710599 240.777639 
L 334.112823 241.179987 
L 334.515048 241.140158 
L 334.917273 241.329536 
L 335.319498 242.052861 
L 335.721723 242.372676 
L 336.123947 241.958131 
L 336.526172 242.861813 
L 336.928397 241.784879 
L 337.330622 242.726383 
L 337.732846 243.32707 
L 338.135071 242.535913 
L 338.537296 243.801674 
L 338.939521 244.68172 
L 339.341746 244.255354 
L 339.74397 244.433694 
L 340.146195 244.979734 
L 340.54842 244.308287 
L 341.35287 246.320304 
L 341.755094 245.136794 
L 342.157319 245.470368 
L 342.559544 246.126764 
L 342.961769 245.462544 
L 343.363994 246.393441 
L 343.766218 246.57215 
L 344.168443 245.346014 
L 344.570668 245.899353 
L 344.972893 246.668464 
L 345.375118 245.437747 
L 345.777342 246.04853 
L 346.179567 246.146878 
L 346.581792 245.342679 
L 347.386241 246.125087 
L 347.788466 245.216906 
L 348.190691 245.234701 
L 348.592916 244.559178 
L 348.995141 243.527622 
L 349.79959 244.451803 
L 350.201815 243.981172 
L 350.60404 243.065747 
L 351.006265 241.596588 
L 351.408489 241.432579 
L 351.810714 241.708428 
L 352.212939 241.203341 
L 352.615164 241.283434 
L 353.419613 239.767618 
L 353.821838 240.136447 
L 354.224063 240.211649 
L 355.028512 239.969498 
L 355.832962 240.935239 
L 356.235187 241.426055 
L 357.039636 243.337392 
L 357.441861 245.410066 
L 357.844086 246.805705 
L 358.246311 242.092868 
L 358.648536 229.489734 
L 359.452985 123.013246 
L 359.85521 199.671317 
L 360.257435 214.551602 
L 360.65966 221.843999 
L 361.464109 228.004891 
L 361.866334 231.303773 
L 362.268559 233.236831 
L 362.670784 232.821738 
L 363.073008 234.277146 
L 363.475233 234.308688 
L 363.877458 234.108286 
L 364.681907 233.045867 
L 365.084132 232.027957 
L 365.486357 231.63742 
L 365.888582 230.786299 
L 366.693031 227.29077 
L 367.497481 225.4292 
L 367.899706 223.816382 
L 368.301931 222.972302 
L 368.704155 220.650398 
L 371.117504 211.216911 
L 371.519729 209.512404 
L 371.921954 208.881271 
L 372.324178 205.772143 
L 372.726403 204.846438 
L 373.128628 202.961143 
L 373.530853 200.188519 
L 374.335302 197.430312 
L 374.737527 194.193724 
L 375.139752 192.815706 
L 375.541977 192.047848 
L 375.944202 189.52669 
L 376.748651 186.76099 
L 377.150876 183.978674 
L 377.955326 182.778684 
L 378.35755 180.452371 
L 379.162 178.566645 
L 379.564225 176.527916 
L 379.96645 176.303511 
L 380.368674 175.853881 
L 380.770899 173.96879 
L 381.173124 173.652422 
L 381.575349 172.72289 
L 381.977573 170.989233 
L 382.379798 170.336163 
L 382.782023 168.412461 
L 383.988697 157.633715 
L 384.793147 146.243639 
L 385.195372 136.317875 
L 385.597597 121.04139 
L 385.999821 84.625132 
L 386.282456 -1 
M 388.647637 -1 
L 388.815395 54.368887 
L 389.21762 135.503796 
L 389.619844 160.463874 
L 390.022069 166.771441 
L 390.424294 175.493289 
L 390.826519 163.90228 
L 391.228744 145.82609 
L 391.630968 119.515432 
L 392.033193 102.915224 
L 392.435418 80.065891 
L 392.837643 78.845941 
L 393.239868 86.193792 
L 393.642092 103.858714 
L 394.044317 111.435031 
L 394.446542 124.121567 
L 394.848767 114.528441 
L 395.250992 108.133602 
L 395.653216 71.275018 
L 396.056509 -1 
M 397.99278 -1 
L 398.066565 48.12551 
L 398.214326 -1 
M 399.774625 -1 
L 400.077689 61.39752 
L 400.479914 102.935768 
L 400.882139 109.575975 
L 401.284363 106.207889 
L 401.686588 98.214741 
L 402.088813 85.607383 
L 403.563343 -1 
M 406.096715 -1 
L 406.513286 40.882972 
L 407.317735 98.942021 
L 408.122185 144.116971 
L 408.926634 175.727059 
L 409.731084 196.067473 
L 411.339983 225.88678 
L 411.742208 230.08265 
L 412.144433 226.73216 
L 412.546658 219.434768 
L 416.568905 98.886474 
L 416.97113 89.482506 
L 417.373355 85.007815 
L 417.77558 72.209603 
L 418.177805 65.273693 
L 418.580029 55.139674 
L 419.384479 57.687528 
L 419.786704 59.683236 
L 420.188929 63.995004 
L 420.591153 70.093137 
L 420.993378 74.481701 
L 421.395603 83.505876 
L 421.797828 86.149007 
L 423.406727 111.113863 
L 423.808952 118.701836 
L 425.015626 133.019869 
L 425.820076 135.978681 
L 426.2223 134.467829 
L 427.428975 119.632106 
L 429.440099 87.803395 
L 430.646773 72.365086 
L 433.462347 34.400491 
L 433.864571 25.430724 
L 434.266796 25.80448 
L 434.669021 29.291964 
L 435.071246 30.207787 
L 435.875695 33.758388 
L 436.27792 34.015795 
L 436.680145 37.301428 
L 437.08237 52.682412 
L 437.484595 60.453747 
L 437.886819 53.323825 
L 438.289044 66.0481 
L 438.691269 126.671275 
L 439.093494 204.667219 
L 439.495719 122.386774 
L 440.300168 230.004445 
L 441.104618 148.510287 
L 441.506842 124.252807 
L 441.909067 122.497268 
L 442.713517 131.796798 
L 443.115742 139.390753 
L 443.920191 189.057988 
L 444.322416 163.582102 
L 444.322416 163.582102 
" clip-path="url(#p5907f6e032)" style="fill: none; stroke: #1f77b4; stroke-width: 1.5; stroke-linecap: square"/>
   </g>
   <g id="patch_3">
    <path d="M 30.49 269.48 
L 30.49 26.88 
" style="fill: none; stroke: #000000; stroke-width: 0.8; stroke-linejoin: miter; stroke-linecap: square"/>
   </g>
   <g id="patch_4">
    <path d="M 450 269.48 
L 450 26.88 
" style="fill: none; stroke: #000000; stroke-width: 0.8; stroke-linejoin: miter; stroke-linecap: square"/>
   </g>
   <g id="patch_5">
    <path d="M 30.49 269.48 
L 450 269.48 
" style="fill: none; stroke: #000000; stroke-width: 0.8; stroke-linejoin: miter; stroke-linecap: square"/>
   </g>
   <g id="patch_6">
    <path d="M 30.49 26.88 
L 450 26.88 
" style="fill: none; stroke: #000000; stroke-width: 0.8; stroke-linejoin: miter; stroke-linecap: square"/>
   </g>
   <g id="text_15">
    <!-- residual error -->
    <g transform="translate(200.044062 20.88) scale(0.12 -0.12)">
     <defs>
      <path id="DejaVuSans-72" d="M 2631 2963 
Q 2534 3019 2420 3045 
Q 2306 3072 2169 3072 
Q 1681 3072 1420 2755 
Q 1159 2438 1159 1844 
L 1159 0 
L 581 0 
L 581 3500 
L 1159 3500 
L 1159 2956 
Q 1341 3275 1631 3429 
Q 1922 3584 2338 3584 
Q 2397 3584 2469 3576 
Q 2541 3569 2628 3553 
L 2631 2963 
z
" transform="scale(0.015625)"/>
      <path id="DejaVuSans-65" d="M 3597 1894 
L 3597 1613 
L 953 1613 
Q 991 1019 1311 708 
Q 1631 397 2203 397 
Q 2534 397 2845 478 
Q 3156 559 3463 722 
L 3463 178 
Q 3153 47 2828 -22 
Q 2503 -91 2169 -91 
Q 1331 -91 842 396 
Q 353 884 353 1716 
Q 353 2575 817 3079 
Q 1281 3584 2069 3584 
Q 2775 3584 3186 3129 
Q 3597 2675 3597 1894 
z
M 3022 2063 
Q 3016 2534 2758 2815 
Q 2500 3097 2075 3097 
Q 1594 3097 1305 2825 
Q 1016 2553 972 2059 
L 3022 2063 
z
" transform="scale(0.015625)"/>
      <path id="DejaVuSans-73" d="M 2834 3397 
L 2834 2853 
Q 2591 2978 2328 3040 
Q 2066 3103 1784 3103 
Q 1356 3103 1142 2972 
Q 928 2841 928 2578 
Q 928 2378 1081 2264 
Q 1234 2150 1697 2047 
L 1894 2003 
Q 2506 1872 2764 1633 
Q 3022 1394 3022 966 
Q 3022 478 2636 193 
Q 2250 -91 1575 -91 
Q 1294 -91 989 -36 
Q 684 19 347 128 
L 347 722 
Q 666 556 975 473 
Q 1284 391 1588 391 
Q 1994 391 2212 530 
Q 2431 669 2431 922 
Q 2431 1156 2273 1281 
Q 2116 1406 1581 1522 
L 1381 1569 
Q 847 1681 609 1914 
Q 372 2147 372 2553 
Q 372 3047 722 3315 
Q 1072 3584 1716 3584 
Q 2034 3584 2315 3537 
Q 2597 3491 2834 3397 
z
" transform="scale(0.015625)"/>
      <path id="DejaVuSans-69" d="M 603 3500 
L 1178 3500 
L 1178 0 
L 603 0 
L 603 3500 
z
M 603 4863 
L 1178 4863 
L 1178 4134 
L 603 4134 
L 603 4863 
z
" transform="scale(0.015625)"/>
      <path id="DejaVuSans-64" d="M 2906 2969 
L 2906 4863 
L 3481 4863 
L 3481 0 
L 2906 0 
L 2906 525 
Q 2725 213 2448 61 
Q 2172 -91 1784 -91 
Q 1150 -91 751 415 
Q 353 922 353 1747 
Q 353 2572 751 3078 
Q 1150 3584 1784 3584 
Q 2172 3584 2448 3432 
Q 2725 3281 2906 2969 
z
M 947 1747 
Q 947 1113 1208 752 
Q 1469 391 1925 391 
Q 2381 391 2643 752 
Q 2906 1113 2906 1747 
Q 2906 2381 2643 2742 
Q 2381 3103 1925 3103 
Q 1469 3103 1208 2742 
Q 947 2381 947 1747 
z
" transform="scale(0.015625)"/>
      <path id="DejaVuSans-75" d="M 544 1381 
L 544 3500 
L 1119 3500 
L 1119 1403 
Q 1119 906 1312 657 
Q 1506 409 1894 409 
Q 2359 409 2629 706 
Q 2900 1003 2900 1516 
L 2900 3500 
L 3475 3500 
L 3475 0 
L 2900 0 
L 2900 538 
Q 2691 219 2414 64 
Q 2138 -91 1772 -91 
Q 1169 -91 856 284 
Q 544 659 544 1381 
z
M 1991 3584 
L 1991 3584 
z
" transform="scale(0.015625)"/>
      <path id="DejaVuSans-61" d="M 2194 1759 
Q 1497 1759 1228 1600 
Q 959 1441 959 1056 
Q 959 750 1161 570 
Q 1363 391 1709 391 
Q 2188 391 2477 730 
Q 2766 1069 2766 1631 
L 2766 1759 
L 2194 1759 
z
M 3341 1997 
L 3341 0 
L 2766 0 
L 2766 531 
Q 2569 213 2275 61 
Q 1981 -91 1556 -91 
Q 1019 -91 701 211 
Q 384 513 384 1019 
Q 384 1609 779 1909 
Q 1175 2209 1959 2209 
L 2766 2209 
L 2766 2266 
Q 2766 2663 2505 2880 
Q 2244 3097 1772 3097 
Q 1472 3097 1187 3025 
Q 903 2953 641 2809 
L 641 3341 
Q 956 3463 1253 3523 
Q 1550 3584 1831 3584 
Q 2591 3584 2966 3190 
Q 3341 2797 3341 1997 
z
" transform="scale(0.015625)"/>
      <path id="DejaVuSans-6c" d="M 603 4863 
L 1178 4863 
L 1178 0 
L 603 0 
L 603 4863 
z
" transform="scale(0.015625)"/>
      <path id="DejaVuSans-20" transform="scale(0.015625)"/>
      <path id="DejaVuSans-6f" d="M 1959 3097 
Q 1497 3097 1228 2736 
Q 959 2375 959 1747 
Q 959 1119 1226 758 
Q 1494 397 1959 397 
Q 2419 397 2687 759 
Q 2956 1122 2956 1747 
Q 2956 2369 2687 2733 
Q 2419 3097 1959 3097 
z
M 1959 3584 
Q 2709 3584 3137 3096 
Q 3566 2609 3566 1747 
Q 3566 888 3137 398 
Q 2709 -91 1959 -91 
Q 1206 -91 779 398 
Q 353 888 353 1747 
Q 353 2609 779 3096 
Q 1206 3584 1959 3584 
z
" transform="scale(0.015625)"/>
     </defs>
     <use xlink:href="#DejaVuSans-72"/>
     <use xlink:href="#DejaVuSans-65" x="38.863281"/>
     <use xlink:href="#DejaVuSans-73" x="100.386719"/>
     <use xlink:href="#DejaVuSans-69" x="152.486328"/>
     <use xlink:href="#DejaVuSans-64" x="180.269531"/>
     <use xlink:href="#DejaVuSans-75" x="243.746094"/>
     <use xlink:href="#DejaVuSans-61" x="307.125"/>
     <use xlink:href="#DejaVuSans-6c" x="368.404297"/>
     <use xlink:href="#DejaVuSans-20" x="396.1875"/>
     <use xlink:href="#DejaVuSans-65" x="427.974609"/>
     <use xlink:href="#DejaVuSans-72" x="489.498047"/>
     <use xlink:href="#DejaVuSans-72" x="528.861328"/>
     <use xlink:href="#DejaVuSans-6f" x="567.724609"/>
     <use xlink:href="#DejaVuSans-72" x="628.90625"/>
    </g>
   </g>
  </g>
 </g>
 <defs>
  <clipPath id="p5907f6e032">
   <rect x="30.49" y="26.88" width="419.51" height="242.6"/>
  </clipPath>
 </defs>
</svg>
