<?xml version="1.0" encoding="UTF-8" standalone="no"?>
<svg
   width="455.76001pt"
   height="221.75999pt"
   viewBox="0 0 455.76002 221.76"
   version="1.1"
   id="svg6142"
   sodipodi:docname="residual_error.svg"
   inkscape:version="1.2.1 (9c6d41e410, 2022-07-14)"
   xmlns:inkscape="http://www.inkscape.org/namespaces/inkscape"
   xmlns:sodipodi="http://sodipodi.sourceforge.net/DTD/sodipodi-0.dtd"
   xmlns="http://www.w3.org/2000/svg"
   xmlns:svg="http://www.w3.org/2000/svg"
   xmlns:rdf="http://www.w3.org/1999/02/22-rdf-syntax-ns#"
   xmlns:cc="http://creativecommons.org/ns#"
   xmlns:dc="http://purl.org/dc/elements/1.1/">
  <sodipodi:namedview
     id="namedview6144"
     pagecolor="#ffffff"
     bordercolor="#000000"
     borderopacity="0.25"
     inkscape:showpageshadow="2"
     inkscape:pageopacity="0.0"
     inkscape:pagecheckerboard="0"
     inkscape:deskcolor="#d1d1d1"
     inkscape:document-units="pt"
     showgrid="false"
     inkscape:zoom="0.84179383"
     inkscape:cx="220.36275"
     inkscape:cy="84.343693"
     inkscape:window-width="1680"
     inkscape:window-height="979"
     inkscape:window-x="-8"
     inkscape:window-y="-8"
     inkscape:window-maximized="1"
     inkscape:current-layer="text_15" />
  <metadata
     id="metadata5873">
    <rdf:RDF>
      <cc:Work>
        <dc:type
           rdf:resource="http://purl.org/dc/dcmitype/StillImage" />
        <dc:date />
        <dc:format />
        <dc:creator>
          <cc:Agent>
            <dc:title />
          </cc:Agent>
        </dc:creator>
      </cc:Work>
    </rdf:RDF>
  </metadata>
  <defs
     id="defs5877">
    <style
       type="text/css"
       id="style5875">*{stroke-linejoin: round; stroke-linecap: butt}</style>
    <defs
       id="defs5886">
      <path
         id="md4980a111d"
         d="M 0,0 V 3.5"
         style="stroke:#000000;stroke-width:0.8" />
    </defs>
    <defs
       id="defs5894">
      <path
         id="DejaVuSans-32"
         d="M 1228,531 H 3431 V 0 H 469 v 531 q 359,372 979,998 621,627 780,809 303,340 423,576 121,236 121,464 0,372 -261,606 -261,235 -680,235 -297,0 -627,-103 -329,-103 -704,-313 v 638 q 381,153 712,231 332,78 607,78 725,0 1156,-363 431,-362 431,-968 0,-288 -108,-546 -107,-257 -392,-607 -78,-91 -497,-524 Q 1991,1309 1228,531 Z"
         transform="scale(0.015625)" />
    </defs>
    <defs
       id="defs5908">
      <path
         id="DejaVuSans-34"
         d="M 2419,4116 825,1625 h 1594 z m -166,550 h 794 V 1625 h 666 V 1100 H 3047 V 0 H 2419 V 1100 H 313 v 609 z"
         transform="scale(0.015625)" />
    </defs>
    <defs
       id="defs5922">
      <path
         id="DejaVuSans-36"
         d="m 2113,2584 q -425,0 -674,-291 -248,-290 -248,-796 0,-503 248,-796 249,-292 674,-292 425,0 673,292 248,293 248,796 0,506 -248,796 -248,291 -673,291 z m 1253,1979 v -575 q -238,112 -480,171 -242,60 -480,60 -625,0 -955,-422 -329,-422 -376,-1275 184,272 462,417 279,145 613,145 703,0 1111,-427 408,-426 408,-1160 0,-719 -425,-1154 -425,-434 -1131,-434 -810,0 -1238,620 -428,621 -428,1799 0,1106 525,1764 525,658 1409,658 238,0 480,-47 242,-47 505,-140 z"
         transform="scale(0.015625)" />
    </defs>
    <defs
       id="defs5936">
      <path
         id="DejaVuSans-38"
         d="m 2034,2216 q -450,0 -708,-241 -257,-241 -257,-662 0,-422 257,-663 258,-241 708,-241 450,0 709,242 260,243 260,662 0,421 -258,662 -257,241 -711,241 z m -631,268 q -406,100 -633,378 -226,279 -226,679 0,559 398,884 399,325 1092,325 697,0 1094,-325 397,-325 397,-884 0,-400 -227,-679 -226,-278 -629,-378 456,-106 710,-416 255,-309 255,-755 Q 3634,634 3220,271 2806,-91 2034,-91 1263,-91 848,271 434,634 434,1313 q 0,446 256,755 257,310 713,416 z m -231,997 q 0,-362 226,-565 227,-203 636,-203 407,0 636,203 230,203 230,565 0,363 -230,566 -229,203 -636,203 -409,0 -636,-203 -226,-203 -226,-566 z"
         transform="scale(0.015625)" />
    </defs>
    <defs
       id="defs5951">
      <path
         id="DejaVuSans-31"
         d="M 794,531 H 1825 V 4091 L 703,3866 v 575 l 1116,225 h 631 V 531 H 3481 V 0 H 794 Z"
         transform="scale(0.015625)" />
      <path
         id="DejaVuSans-30"
         d="m 2034,4250 q -487,0 -733,-480 -245,-479 -245,-1442 0,-959 245,-1439 246,-480 733,-480 491,0 736,480 246,480 246,1439 0,963 -246,1442 -245,480 -736,480 z m 0,500 q 785,0 1199,-621 414,-620 414,-1801 0,-1178 -414,-1799 -414,-620 -1199,-620 -784,0 -1198,620 -414,621 -414,1799 0,1181 414,1801 414,621 1198,621 z"
         transform="scale(0.015625)" />
    </defs>
    <defs
       id="defs6002">
      <path
         id="mfb7bb1e777"
         d="M 0,0 H -3.5"
         style="stroke:#000000;stroke-width:0.8" />
    </defs>
    <defs
       id="defs6043">
      <path
         id="DejaVuSans-33"
         d="m 2597,2516 q 453,-97 707,-404 255,-306 255,-756 0,-690 -475,-1069 -475,-378 -1350,-378 -293,0 -604,58 -311,58 -642,174 v 609 q 262,-153 574,-231 313,-78 654,-78 593,0 904,234 311,234 311,681 0,413 -289,645 -289,233 -804,233 h -544 v 519 h 569 q 465,0 712,186 247,186 247,536 0,359 -255,551 -254,193 -729,193 -260,0 -557,-57 -297,-56 -653,-174 v 562 q 360,100 674,150 314,50 592,50 719,0 1137,-327 419,-326 419,-882 0,-388 -222,-655 -222,-267 -631,-370 z"
         transform="scale(0.015625)" />
    </defs>
    <defs
       id="defs6068">
      <path
         id="DejaVuSans-35"
         d="M 691,4666 H 3169 V 4134 H 1269 V 2991 q 137,47 274,70 138,23 276,23 781,0 1237,-428 457,-428 457,-1159 Q 3513,744 3044,326 2575,-91 1722,-91 1428,-91 1123,-41 819,9 494,109 v 635 q 281,-153 581,-228 300,-75 634,-75 541,0 856,284 316,284 316,772 0,487 -316,771 -315,285 -856,285 -253,0 -505,-56 -251,-56 -513,-175 z"
         transform="scale(0.015625)" />
    </defs>
    <clipPath
       id="clipPath94">
      <rect
         x="30.49"
         y="26.879999"
         width="419.51001"
         height="242.60001"
         id="rect29" />
    </clipPath>
  </defs>
  <g
     id="figure_1"
     transform="matrix(1 0 0 0.762712 -3.78 -13.86)">
    <g
       id="axes_1">
      <path
         d="M 30.49,269.48 H 450 V 26.88 H 30.49 Z"
         style="stroke-linejoin:round;stroke-linecap:butt;fill:#ffffff;opacity:1;stroke-width:1.20228952453796px"
         id="path5882" />
      <path
         d="M 42.4999 269.48 L 42.4999 272.98"
         style="stroke-linejoin:round;stroke-linecap:butt;stroke:#000000;stroke-width:1.20228952453796;opacity:1"
         id="use5888"
         unlinked_clone="True" />
      <g
         id="text_1"
         mpl_comment="2"
         style="stroke-linejoin:round;stroke-linecap:butt;opacity:1;stroke-width:1.20228952453796px">
        <path
           d="M 41.2374 283.248 L 44.6795 283.248 L 44.6795 284.078 L 40.0514 284.078 L 40.0514 283.248 C 40.4254 282.861 40.9353 282.341 41.5811 281.689 C 42.228 281.036 42.6342 280.614 42.7999 280.425 C 43.1155 280.071 43.3358 279.771 43.4608 279.525 C 43.5868 279.279 43.6499 279.037 43.6499 278.8 C 43.6499 278.412 43.5139 278.097 43.242 277.853 C 42.9702 277.608 42.616 277.486 42.1795 277.486 C 41.8702 277.486 41.5436 277.539 41.1999 277.647 C 40.8571 277.754 40.4905 277.917 40.0999 278.136 L 40.0999 277.139 C 40.4967 276.98 40.8676 276.859 41.2124 276.778 C 41.5582 276.697 41.8743 276.656 42.1608 276.656 C 42.916 276.656 43.5181 276.845 43.967 277.223 C 44.416 277.6 44.6405 278.105 44.6405 278.736 C 44.6405 279.036 44.5842 279.32 44.4717 279.589 C 44.3603 279.857 44.1561 280.173 43.8592 280.537 C 43.778 280.632 43.5191 280.905 43.0827 281.356 C 42.6472 281.807 42.0321 282.438 41.2374 283.248 Z"
           id="use5896"
           style="stroke-linejoin:round;stroke-linecap:butt;opacity:1;stroke-width:1.20228952453796"
           unlinked_clone="True" />
      </g>
      <path
         d="M 96.0762 269.48 L 96.0762 272.98"
         style="stroke-linejoin:round;stroke-linecap:butt;stroke:#000000;stroke-width:1.20228952453796;opacity:1"
         id="use5902"
         unlinked_clone="True" />
      <g
         id="text_2"
         mpl_comment="4"
         style="stroke-linejoin:round;stroke-linecap:butt;opacity:1;stroke-width:1.20228952453796px">
        <path
           d="M 96.6746 277.647 L 94.184 281.539 L 96.6746 281.539 Z M 96.4152 276.787 L 97.6558 276.787 L 97.6558 281.539 L 98.6965 281.539 L 98.6965 282.359 L 97.6558 282.359 L 97.6558 284.078 L 96.6746 284.078 L 96.6746 282.359 L 93.384 282.359 L 93.384 281.408 Z"
           id="use5910"
           style="stroke-linejoin:round;stroke-linecap:butt;opacity:1;stroke-width:1.20228952453796"
           unlinked_clone="True" />
      </g>
      <path
         d="M 149.653 269.48 L 149.653 272.98"
         style="stroke-linejoin:round;stroke-linecap:butt;stroke:#000000;stroke-width:1.20228952453796;opacity:1"
         id="use5916"
         unlinked_clone="True" />
      <g
         id="text_3"
         mpl_comment="6"
         style="stroke-linejoin:round;stroke-linecap:butt;opacity:1;stroke-width:1.20228952453796px">
        <path
           d="M 149.773 280.04 C 149.33 280.04 148.979 280.192 148.719 280.495 C 148.461 280.797 148.332 281.212 148.332 281.739 C 148.332 282.263 148.461 282.677 148.719 282.983 C 148.979 283.287 149.33 283.439 149.773 283.439 C 150.215 283.439 150.566 283.287 150.824 282.983 C 151.082 282.677 151.212 282.263 151.212 281.739 C 151.212 281.212 151.082 280.797 150.824 280.495 C 150.566 280.192 150.215 280.04 149.773 280.04 Z M 151.73 276.948 L 151.73 277.847 C 151.482 277.73 151.232 277.641 150.98 277.58 C 150.728 277.517 150.478 277.486 150.23 277.486 C 149.579 277.486 149.082 277.706 148.738 278.145 C 148.395 278.585 148.2 279.249 148.151 280.137 C 148.342 279.854 148.583 279.637 148.873 279.486 C 149.163 279.335 149.482 279.259 149.83 279.259 C 150.563 279.259 151.141 279.482 151.566 279.926 C 151.991 280.37 152.204 280.974 152.204 281.739 C 152.204 282.488 151.982 283.089 151.54 283.542 C 151.097 283.994 150.508 284.22 149.773 284.22 C 148.929 284.22 148.284 283.897 147.838 283.251 C 147.392 282.605 147.169 281.668 147.169 280.44 C 147.169 279.288 147.443 278.37 147.99 277.684 C 148.537 276.999 149.27 276.656 150.191 276.656 C 150.439 276.656 150.689 276.681 150.941 276.73 C 151.193 276.779 151.456 276.851 151.73 276.948 Z"
           id="use5924"
           style="stroke-linejoin:round;stroke-linecap:butt;opacity:1;stroke-width:1.20228952453796"
           unlinked_clone="True" />
      </g>
      <path
         d="M 203.229 269.48 L 203.229 272.98"
         style="stroke-linejoin:round;stroke-linecap:butt;stroke:#000000;stroke-width:1.20228952453796;opacity:1"
         id="use5930"
         unlinked_clone="True" />
      <g
         id="text_4"
         mpl_comment="8"
         style="stroke-linejoin:round;stroke-linecap:butt;opacity:1;stroke-width:1.20228952453796px">
        <path
           d="M 203.226 280.615 C 202.757 280.615 202.389 280.741 202.12 280.992 C 201.852 281.243 201.718 281.588 201.718 282.026 C 201.718 282.466 201.852 282.811 202.12 283.062 C 202.389 283.313 202.757 283.439 203.226 283.439 C 203.695 283.439 204.064 283.313 204.334 283.061 C 204.605 282.808 204.74 282.463 204.74 282.026 C 204.74 281.588 204.606 281.243 204.337 280.992 C 204.069 280.741 203.699 280.615 203.226 280.615 Z M 202.24 280.197 C 201.817 280.093 201.488 279.896 201.251 279.606 C 201.016 279.315 200.898 278.962 200.898 278.545 C 200.898 277.963 201.105 277.502 201.52 277.164 C 201.935 276.825 202.504 276.656 203.226 276.656 C 203.952 276.656 204.522 276.825 204.935 277.164 C 205.349 277.502 205.556 277.963 205.556 278.545 C 205.556 278.962 205.438 279.315 205.201 279.606 C 204.966 279.896 204.638 280.093 204.218 280.197 C 204.693 280.307 205.063 280.524 205.328 280.847 C 205.593 281.169 205.726 281.562 205.726 282.026 C 205.726 282.734 205.511 283.276 205.079 283.655 C 204.648 284.032 204.03 284.22 203.226 284.22 C 202.423 284.22 201.805 284.032 201.373 283.655 C 200.942 283.276 200.726 282.734 200.726 282.026 C 200.726 281.562 200.859 281.169 201.126 280.847 C 201.394 280.524 201.765 280.307 202.24 280.197 Z M 201.879 278.639 C 201.879 279.016 201.997 279.31 202.232 279.522 C 202.469 279.733 202.8 279.839 203.226 279.839 C 203.65 279.839 203.981 279.733 204.22 279.522 C 204.459 279.31 204.579 279.016 204.579 278.639 C 204.579 278.261 204.459 277.966 204.22 277.755 C 203.981 277.543 203.65 277.437 203.226 277.437 C 202.8 277.437 202.469 277.543 202.232 277.755 C 201.997 277.966 201.879 278.261 201.879 278.639 Z"
           id="use5938"
           style="stroke-linejoin:round;stroke-linecap:butt;opacity:1;stroke-width:1.20228952453796"
           unlinked_clone="True" />
      </g>
      <path
         d="M 256.805 269.48 L 256.805 272.98"
         style="stroke-linejoin:round;stroke-linecap:butt;stroke:#000000;stroke-width:1.20228952453796;opacity:1"
         id="use5944"
         unlinked_clone="True" />
      <g
         id="text_5"
         mpl_comment="10"
         style="stroke-linejoin:round;stroke-linecap:butt;opacity:1;stroke-width:1.20228952453796px">
        <path
           d="M 251.684 283.248 L 253.295 283.248 L 253.295 277.686 L 251.541 278.037 L 251.541 277.139 L 253.285 276.787 L 254.271 276.787 L 254.271 283.248 L 255.882 283.248 L 255.882 284.078 L 251.684 284.078 Z"
           id="use5953"
           style="stroke-linejoin:round;stroke-linecap:butt;opacity:1;stroke-width:1.20228952453796"
           unlinked_clone="True" />
        <path
           d="M 259.983 277.437 C 259.476 277.437 259.094 277.687 258.838 278.187 C 258.583 278.686 258.455 279.437 258.455 280.44 C 258.455 281.439 258.583 282.189 258.838 282.689 C 259.094 283.189 259.476 283.439 259.983 283.439 C 260.495 283.439 260.878 283.189 261.133 282.689 C 261.389 282.189 261.517 281.439 261.517 280.44 C 261.517 279.437 261.389 278.686 261.133 278.187 C 260.878 277.687 260.495 277.437 259.983 277.437 Z M 259.983 276.656 C 260.801 276.656 261.425 276.98 261.857 277.626 C 262.288 278.272 262.503 279.21 262.503 280.44 C 262.503 281.668 262.288 282.605 261.857 283.251 C 261.425 283.897 260.801 284.22 259.983 284.22 C 259.166 284.22 258.543 283.897 258.111 283.251 C 257.68 282.605 257.464 281.668 257.464 280.44 C 257.464 279.21 257.68 278.272 258.111 277.626 C 258.543 276.98 259.166 276.656 259.983 276.656 Z"
           id="use5955"
           style="stroke-linejoin:round;stroke-linecap:butt;opacity:1;stroke-width:1.20228952453796"
           unlinked_clone="True" />
      </g>
      <path
         d="M 310.382 269.48 L 310.382 272.98"
         style="stroke-linejoin:round;stroke-linecap:butt;stroke:#000000;stroke-width:1.20228952453796;opacity:1"
         id="use5961"
         unlinked_clone="True" />
      <g
         id="text_6"
         mpl_comment="12"
         style="stroke-linejoin:round;stroke-linecap:butt;opacity:1;stroke-width:1.20228952453796px">
        <path
           d="M 305.26 283.248 L 306.871 283.248 L 306.871 277.686 L 305.117 278.037 L 305.117 277.139 L 306.861 276.787 L 307.847 276.787 L 307.847 283.248 L 309.458 283.248 L 309.458 284.078 L 305.26 284.078 Z"
           id="use5966"
           style="stroke-linejoin:round;stroke-linecap:butt;opacity:1;stroke-width:1.20228952453796"
           unlinked_clone="True" />
        <path
           d="M 312.3 283.248 L 315.742 283.248 L 315.742 284.078 L 311.114 284.078 L 311.114 283.248 C 311.488 282.861 311.998 282.341 312.643 281.689 C 313.29 281.036 313.697 280.614 313.862 280.425 C 314.178 280.071 314.398 279.771 314.523 279.525 C 314.649 279.279 314.712 279.037 314.712 278.8 C 314.712 278.412 314.576 278.097 314.304 277.853 C 314.033 277.608 313.678 277.486 313.242 277.486 C 312.933 277.486 312.606 277.539 312.262 277.647 C 311.92 277.754 311.553 277.917 311.162 278.136 L 311.162 277.139 C 311.559 276.98 311.93 276.859 312.275 276.778 C 312.621 276.697 312.937 276.656 313.223 276.656 C 313.978 276.656 314.58 276.845 315.029 277.223 C 315.478 277.6 315.703 278.105 315.703 278.736 C 315.703 279.036 315.647 279.32 315.534 279.589 C 315.423 279.857 315.218 280.173 314.922 280.537 C 314.84 280.632 314.582 280.905 314.145 281.356 C 313.71 281.807 313.095 282.438 312.3 283.248 Z"
           id="use5968"
           style="stroke-linejoin:round;stroke-linecap:butt;opacity:1;stroke-width:1.20228952453796"
           unlinked_clone="True" />
      </g>
      <path
         d="M 363.958 269.48 L 363.958 272.98"
         style="stroke-linejoin:round;stroke-linecap:butt;stroke:#000000;stroke-width:1.20228952453796;opacity:1"
         id="use5974"
         unlinked_clone="True" />
      <g
         id="text_7"
         mpl_comment="14"
         style="stroke-linejoin:round;stroke-linecap:butt;opacity:1;stroke-width:1.20228952453796px">
        <path
           d="M 358.836 283.248 L 360.447 283.248 L 360.447 277.686 L 358.693 278.037 L 358.693 277.139 L 360.437 276.787 L 361.423 276.787 L 361.423 283.248 L 363.034 283.248 L 363.034 284.078 L 358.836 284.078 Z"
           id="use5979"
           style="stroke-linejoin:round;stroke-linecap:butt;opacity:1;stroke-width:1.20228952453796"
           unlinked_clone="True" />
        <path
           d="M 367.738 277.647 L 365.247 281.539 L 367.738 281.539 Z M 367.478 276.787 L 368.719 276.787 L 368.719 281.539 L 369.76 281.539 L 369.76 282.359 L 368.719 282.359 L 368.719 284.078 L 367.738 284.078 L 367.738 282.359 L 364.447 282.359 L 364.447 281.408 Z"
           id="use5981"
           style="stroke-linejoin:round;stroke-linecap:butt;opacity:1;stroke-width:1.20228952453796"
           unlinked_clone="True" />
      </g>
      <path
         d="M 417.534 269.48 L 417.534 272.98"
         style="stroke-linejoin:round;stroke-linecap:butt;stroke:#000000;stroke-width:1.20228952453796;opacity:1"
         id="use5987"
         unlinked_clone="True" />
      <g
         id="text_8"
         mpl_comment="16"
         style="stroke-linejoin:round;stroke-linecap:butt;opacity:1;stroke-width:1.20228952453796px">
        <path
           d="M 412.413 283.248 L 414.024 283.248 L 414.024 277.686 L 412.27 278.037 L 412.27 277.139 L 414.014 276.787 L 415 276.787 L 415 283.248 L 416.611 283.248 L 416.611 284.078 L 412.413 284.078 Z"
           id="use5992"
           style="stroke-linejoin:round;stroke-linecap:butt;opacity:1;stroke-width:1.20228952453796"
           unlinked_clone="True" />
        <path
           d="M 420.836 280.04 C 420.393 280.04 420.042 280.192 419.782 280.495 C 419.524 280.797 419.395 281.212 419.395 281.739 C 419.395 282.263 419.524 282.677 419.782 282.983 C 420.042 283.287 420.393 283.439 420.836 283.439 C 421.278 283.439 421.629 283.287 421.887 282.983 C 422.145 282.677 422.275 282.263 422.275 281.739 C 422.275 281.212 422.145 280.797 421.887 280.495 C 421.629 280.192 421.278 280.04 420.836 280.04 Z M 422.793 276.948 L 422.793 277.847 C 422.545 277.73 422.295 277.641 422.043 277.58 C 421.791 277.517 421.541 277.486 421.293 277.486 C 420.642 277.486 420.145 277.706 419.801 278.145 C 419.458 278.585 419.263 279.249 419.214 280.137 C 419.405 279.854 419.646 279.637 419.936 279.486 C 420.226 279.335 420.545 279.259 420.893 279.259 C 421.626 279.259 422.204 279.482 422.629 279.926 C 423.054 280.37 423.267 280.974 423.267 281.739 C 423.267 282.488 423.045 283.089 422.603 283.542 C 422.16 283.994 421.571 284.22 420.836 284.22 C 419.992 284.22 419.347 283.897 418.901 283.251 C 418.455 282.605 418.232 281.668 418.232 280.44 C 418.232 279.288 418.506 278.37 419.053 277.684 C 419.6 276.999 420.333 276.656 421.254 276.656 C 421.502 276.656 421.752 276.681 422.004 276.73 C 422.256 276.779 422.519 276.851 422.793 276.948 Z"
           id="use5994"
           style="stroke-linejoin:round;stroke-linecap:butt;opacity:1;stroke-width:1.20228952453796"
           unlinked_clone="True" />
      </g>
      <path
         d="M 30.49 248.515 L 26.99 248.515"
         style="stroke-linejoin:round;stroke-linecap:butt;stroke:#000000;stroke-width:1.20228952453796;opacity:1"
         id="use6004"
         unlinked_clone="True" />
      <g
         id="text_9"
         mpl_comment="0"
         style="stroke-linejoin:round;stroke-linecap:butt;opacity:1;stroke-width:1.20228952453796px">
        <path
           d="M 20.3056 245.673 C 19.7983 245.673 19.4166 245.923 19.1603 246.423 C 18.9051 246.922 18.7775 247.673 18.7775 248.677 C 18.7775 249.675 18.9051 250.425 19.1603 250.925 C 19.4166 251.425 19.7983 251.675 20.3056 251.675 C 20.8171 251.675 21.2004 251.425 21.4556 250.925 C 21.7119 250.425 21.84 249.675 21.84 248.677 C 21.84 247.673 21.7119 246.922 21.4556 246.423 C 21.2004 245.923 20.8171 245.673 20.3056 245.673 Z M 20.3056 244.892 C 21.1233 244.892 21.7478 245.216 22.1791 245.862 C 22.6103 246.508 22.8259 247.446 22.8259 248.677 C 22.8259 249.904 22.6103 250.841 22.1791 251.487 C 21.7478 252.133 21.1233 252.456 20.3056 252.456 C 19.489 252.456 18.865 252.133 18.4337 251.487 C 18.0025 250.841 17.7869 249.904 17.7869 248.677 C 17.7869 247.446 18.0025 246.508 18.4337 245.862 C 18.865 245.216 19.489 244.892 20.3056 244.892 Z"
           id="use6009"
           style="stroke-linejoin:round;stroke-linecap:butt;opacity:1;stroke-width:1.20228952453796"
           unlinked_clone="True" />
      </g>
      <path
         d="M 30.49 208.94 L 26.99 208.94"
         style="stroke-linejoin:round;stroke-linecap:butt;stroke:#000000;stroke-width:1.20228952453796;opacity:1"
         id="use6015"
         unlinked_clone="True" />
      <g
         id="text_10"
         mpl_comment="1"
         style="stroke-linejoin:round;stroke-linecap:butt;opacity:1;stroke-width:1.20228952453796px">
        <path
           d="M 18.3681 211.91 L 19.9791 211.91 L 19.9791 206.348 L 18.2259 206.699 L 18.2259 205.801 L 19.9697 205.449 L 20.9556 205.449 L 20.9556 211.91 L 22.5666 211.91 L 22.5666 212.74 L 18.3681 212.74 Z"
           id="use6020"
           style="stroke-linejoin:round;stroke-linecap:butt;opacity:1;stroke-width:1.20228952453796"
           unlinked_clone="True" />
      </g>
      <path
         d="M 30.49 169.366 L 26.99 169.366"
         style="stroke-linejoin:round;stroke-linecap:butt;stroke:#000000;stroke-width:1.20228952453796;opacity:1"
         id="use6026"
         unlinked_clone="True" />
      <g
         id="text_11"
         mpl_comment="2"
         style="stroke-linejoin:round;stroke-linecap:butt;opacity:1;stroke-width:1.20228952453796px">
        <path
           d="M 19.0463 172.335 L 22.4884 172.335 L 22.4884 173.165 L 17.8603 173.165 L 17.8603 172.335 C 18.2343 171.948 18.7442 171.428 19.39 170.776 C 20.0369 170.123 20.4431 169.701 20.6088 169.512 C 20.9244 169.158 21.1447 168.858 21.2697 168.612 C 21.3957 168.366 21.4588 168.124 21.4588 167.887 C 21.4588 167.499 21.3228 167.184 21.0509 166.94 C 20.7791 166.695 20.4249 166.573 19.9884 166.573 C 19.6791 166.573 19.3525 166.626 19.0088 166.734 C 18.666 166.841 18.2994 167.004 17.9088 167.223 L 17.9088 166.226 C 18.3056 166.067 18.6765 165.946 19.0213 165.865 C 19.3671 165.784 19.6832 165.743 19.9697 165.743 C 20.7249 165.743 21.327 165.932 21.7759 166.31 C 22.2249 166.687 22.4494 167.192 22.4494 167.823 C 22.4494 168.123 22.3931 168.407 22.2806 168.676 C 22.1692 168.944 21.965 169.26 21.6681 169.624 C 21.5869 169.719 21.328 169.992 20.8916 170.443 C 20.4561 170.894 19.841 171.525 19.0463 172.335 Z"
           id="use6031"
           style="stroke-linejoin:round;stroke-linecap:butt;opacity:1;stroke-width:1.20228952453796"
           unlinked_clone="True" />
      </g>
      <path
         d="M 30.49 129.791 L 26.99 129.791"
         style="stroke-linejoin:round;stroke-linecap:butt;stroke:#000000;stroke-width:1.20228952453796;opacity:1"
         id="use6037"
         unlinked_clone="True" />
      <g
         id="text_12"
         mpl_comment="3"
         style="stroke-linejoin:round;stroke-linecap:butt;opacity:1;stroke-width:1.20228952453796px">
        <path
           d="M 21.1853 129.66 C 21.6572 129.761 22.0254 129.971 22.29 130.291 C 22.5556 130.61 22.6884 131.004 22.6884 131.472 C 22.6884 132.191 22.441 132.748 21.9463 133.143 C 21.4515 133.536 20.7483 133.733 19.8369 133.733 C 19.5317 133.733 19.2171 133.703 18.8931 133.643 C 18.5692 133.582 18.2348 133.492 17.89 133.371 L 17.89 132.419 C 18.1629 132.579 18.4619 132.699 18.7869 132.78 C 19.1129 132.861 19.4535 132.902 19.8088 132.902 C 20.4265 132.902 20.8973 132.78 21.2213 132.536 C 21.5452 132.293 21.7072 131.938 21.7072 131.472 C 21.7072 131.042 21.5567 130.706 21.2556 130.464 C 20.9546 130.222 20.5358 130.1 19.9994 130.1 L 19.1494 130.1 L 19.1494 129.289 L 20.0384 129.289 C 20.5228 129.289 20.8936 129.193 21.1509 128.999 C 21.4082 128.805 21.5369 128.526 21.5369 128.161 C 21.5369 127.787 21.4041 127.5 21.1384 127.3 C 20.8739 127.099 20.4942 126.999 19.9994 126.999 C 19.7285 126.999 19.4384 127.029 19.1291 127.088 C 18.8197 127.146 18.4796 127.237 18.1088 127.36 L 18.1088 126.482 C 18.4838 126.377 18.8348 126.299 19.1619 126.247 C 19.489 126.195 19.7973 126.169 20.0869 126.169 C 20.8358 126.169 21.428 126.339 21.8634 126.68 C 22.2999 127.02 22.5181 127.479 22.5181 128.058 C 22.5181 128.462 22.4025 128.804 22.1713 129.082 C 21.94 129.36 21.6114 129.552 21.1853 129.66 Z"
           id="use6045"
           style="stroke-linejoin:round;stroke-linecap:butt;opacity:1;stroke-width:1.20228952453796"
           unlinked_clone="True" />
      </g>
      <path
         d="M 30.49 90.2168 L 26.99 90.2168"
         style="stroke-linejoin:round;stroke-linecap:butt;stroke:#000000;stroke-width:1.20228952453796;opacity:1"
         id="use6051"
         unlinked_clone="True" />
      <g
         id="text_13"
         mpl_comment="4"
         style="stroke-linejoin:round;stroke-linecap:butt;opacity:1;stroke-width:1.20228952453796px">
        <path
           d="M 20.9072 87.5848 L 18.4166 91.477 L 20.9072 91.477 Z M 20.6478 86.7255 L 21.8884 86.7255 L 21.8884 91.477 L 22.9291 91.477 L 22.9291 92.2973 L 21.8884 92.2973 L 21.8884 94.0161 L 20.9072 94.0161 L 20.9072 92.2973 L 17.6166 92.2973 L 17.6166 91.3458 Z"
           id="use6056"
           style="stroke-linejoin:round;stroke-linecap:butt;opacity:1;stroke-width:1.20228952453796"
           unlinked_clone="True" />
      </g>
      <path
         d="M 30.49 50.6423 L 26.99 50.6423"
         style="stroke-linejoin:round;stroke-linecap:butt;stroke:#000000;stroke-width:1.20228942995787;opacity:1"
         id="use6062"
         unlinked_clone="True" />
      <g
         id="text_14"
         mpl_comment="5"
         style="stroke-linejoin:round;stroke-linecap:butt;opacity:1;stroke-width:1.20228942995787px">
        <path
           d="M 18.2072 47.1509 L 22.0791 47.1509 L 22.0791 47.9821 L 19.1103 47.9821 L 19.1103 49.7681 C 19.253 49.7191 19.3957 49.6826 19.5384 49.6587 C 19.6822 49.6347 19.8259 49.6227 19.9697 49.6227 C 20.7832 49.6227 21.4275 49.8457 21.9025 50.2915 C 22.3785 50.7373 22.6166 51.341 22.6166 52.1024 C 22.6166 52.8868 22.3723 53.4967 21.8838 53.9321 C 21.3952 54.3665 20.7067 54.5837 19.8181 54.5837 C 19.5119 54.5837 19.1999 54.5576 18.8822 54.5056 C 18.5655 54.4535 18.2379 54.3754 17.8994 54.2712 L 17.8994 53.279 C 18.1921 53.4384 18.4947 53.5571 18.8072 53.6352 C 19.1197 53.7134 19.4499 53.7524 19.7978 53.7524 C 20.3614 53.7524 20.8072 53.6045 21.1353 53.3087 C 21.4645 53.0129 21.6291 52.6108 21.6291 52.1024 C 21.6291 51.5951 21.4645 51.1936 21.1353 50.8977 C 20.8072 50.6009 20.3614 50.4524 19.7978 50.4524 C 19.5343 50.4524 19.2713 50.4816 19.0088 50.5399 C 18.7473 50.5983 18.4801 50.6894 18.2072 50.8134 Z"
           id="use6070"
           style="stroke-linejoin:round;stroke-linecap:butt;opacity:1;stroke-width:1.20228942995787"
           unlinked_clone="True" />
      </g>
      <path
         d="m 42.49985,235.8821 0.402225,-0.23354 0.402225,-0.3921 0.402225,0.56726 0.402224,-0.50766 0.402225,-0.0492 0.402225,0.56435 0.402225,0.12019 0.402224,-0.23525 0.402225,0.40619 0.402225,-0.13191 0.402225,-0.25273 0.402225,0.42364 0.402224,-0.34671 0.402225,0.21631 0.402225,-0.0644 0.402225,0.15999 0.402225,-0.13935 0.402224,0.16268 0.402225,-0.28932 0.402225,0.53174 0.402225,-0.0774 0.402225,0.0596 0.402224,-0.13769 0.402225,-0.4143 0.402225,0.46898 0.80445,0.36446 0.402224,-0.40236 0.402225,-0.0422 0.402225,0.12139 0.402225,-0.27528 0.402224,0.0906 0.402225,0.20926 0.402225,-0.12977 0.402225,0.0334 0.402225,0.55244 0.402224,-0.41105 0.402225,-0.64172 0.80445,0.49122 0.402225,-0.41731 0.402224,-0.0187 0.80445,0.34113 0.402225,-0.17856 0.402225,0.41327 1.608899,0.0651 0.402224,-0.82841 0.402225,-0.27698 0.402225,0.26006 0.80445,-0.35227 0.402224,0.27727 0.402225,0.0107 0.80445,0.70589 0.402225,-0.0239 0.402224,-0.85077 0.402225,0.46673 0.402225,-1.06561 0.402225,0.0115 0.402225,0.16235 0.402224,-0.67473 0.402225,-0.4208 0.80445,0.001 0.402225,0.81721 0.402224,-0.21729 0.402225,0.66715 0.402225,-0.0351 0.402225,-0.52553 0.402224,0.42443 0.80445,0.0997 0.402225,-0.96 0.402225,-0.19643 0.402224,0.23828 0.402225,-0.22098 1.608899,-0.0293 0.402225,0.76416 0.80445,0.78064 0.402225,-0.1284 0.402224,-0.33016 0.402225,-0.0884 0.402225,-0.26591 0.402225,-0.1219 0.402224,0.2565 0.402225,0.12391 0.402225,-0.23142 0.402225,0.73789 0.402225,-0.24916 0.402224,0.41006 0.402225,0.1299 0.402225,0.49124 0.402225,0.18206 0.402225,-0.22952 0.402224,0.23314 0.402225,-0.0683 0.402225,0.25218 0.402225,-0.36011 0.402225,0.31962 0.402224,-0.0839 0.402225,0.45105 0.402225,0.22296 1.206674,1.22452 0.80445,0.006 0.402225,0.30792 0.402224,0.0297 0.402225,-0.37091 0.402225,0.49545 0.402225,0.1347 0.402225,0.60024 0.402224,0.14511 0.402225,0.40061 0.80445,0.27829 0.402225,-0.43481 0.402224,0.38592 0.80445,-0.26391 0.402225,0.5957 0.402225,-0.74798 0.402224,0.72134 0.402225,-0.92018 0.402225,-0.0505 0.402225,0.70909 0.402224,-0.12996 0.402225,-0.40684 0.402225,-0.16118 0.402225,0.29467 0.402225,-0.30937 0.402224,0.6134 0.80445,-0.86896 0.80445,-0.0531 0.40222,-0.21385 0.80445,0.0806 0.40223,-0.14459 0.40222,-0.0246 0.40223,0.33634 0.40222,-0.008 1.6089,-1.52561 0.40223,0.29304 0.40222,-0.48613 0.40223,0.27286 0.80445,-0.25286 0.40222,0.40765 0.40223,-0.88167 0.40222,0.15279 0.80445,0.0154 0.40223,-0.75897 0.40222,0.51064 0.40223,0.0451 0.40222,0.33061 0.80445,-0.35383 0.80445,1.06343 0.40222,-0.42108 0.40223,0.15199 0.40222,-0.3912 0.40223,0.54957 0.40222,-0.26876 0.40223,-0.46492 0.40222,-0.0651 0.40223,-0.49291 0.40222,0.18977 0.40223,-0.32605 0.40222,0.40517 0.40223,-0.1346 0.40222,-0.60201 0.40223,0.43407 0.40222,0.0635 0.40223,-0.38754 0.40222,-0.11992 0.40222,-0.5278 0.40223,-0.0877 0.40222,-0.50025 0.40223,-0.1089 0.40222,0.0683 0.40223,-0.71882 0.40222,0.12883 0.40223,-0.25769 0.40222,0.14506 0.40223,-0.054 0.40222,-0.58818 0.40223,0.0573 0.40222,-0.17542 0.80445,0.45954 1.20668,-0.58864 0.40222,-0.54818 0.80445,-0.16619 0.40222,-0.42964 0.40223,0.31972 0.40222,-0.0486 0.40223,-0.36223 0.40222,-0.55401 0.40223,0.0845 1.6089,-1.45651 0.40222,-0.10861 0.40223,-0.51526 0.40222,-0.19637 0.40223,-0.0692 0.40222,-0.70639 0.40223,0.36523 0.40222,-0.38133 0.40223,-0.0962 0.40222,-0.41721 0.40223,-0.067 0.40222,0.0924 0.80445,-0.74817 0.40223,-0.76156 0.80444,-0.11042 0.40223,-0.0742 0.80445,-0.63248 0.40222,-0.004 0.40223,-0.35703 0.40222,0.0734 0.40223,-0.0642 0.40222,-0.51742 0.80445,-0.49216 0.40223,0.18534 0.40222,-0.0181 0.40223,0.13736 0.40222,-0.55004 0.40223,0.0845 0.40222,-0.19706 0.80445,0.34996 0.40223,-0.38361 0.40222,0.10212 0.40223,-0.26447 0.40222,0.002 0.80445,0.24698 0.40222,-0.1859 0.80445,0.5891 0.40223,-0.13054 0.40222,0.0297 0.40223,-0.34957 0.40222,0.32832 0.40223,0.0937 0.40222,-0.18973 0.40223,0.15937 0.40222,-0.18266 0.40223,-0.0484 0.40222,0.10257 0.40223,0.42617 0.40222,0.17974 0.40223,-0.36933 0.80445,0.5877 0.40222,0.67033 0.40223,-0.22265 0.40222,-0.39705 0.40222,0.0954 0.40223,-0.12378 0.40222,0.44394 0.40223,-0.18523 1.20667,0.49839 0.40223,-0.10214 0.40222,0.60047 0.40223,-0.16895 0.40222,0.44573 0.40223,0.001 0.40222,-0.14116 0.40223,0.31747 0.40222,-0.15628 0.80445,0.33265 0.40223,-0.35106 0.80445,0.69406 0.80445,0.40572 0.40222,0.28625 0.40223,0.12714 0.40222,-0.0547 0.40222,0.32259 0.40223,-0.22539 0.40222,0.33226 0.40223,0.0832 0.40222,-0.0921 0.40223,0.54223 0.40222,-0.22196 0.40223,0.0154 0.40222,-0.36165 0.40223,0.18 0.40222,0.94055 0.40223,0.15383 0.40222,-0.11382 0.40223,0.35732 0.40222,-0.64192 0.40223,0.31405 0.40222,0.5311 0.40223,0.28976 0.40222,-0.2497 0.40223,-0.0937 1.20667,1.17416 0.40222,0.0226 1.60891,0.83611 0.40222,-0.0665 0.40222,0.15546 0.40223,0.31184 0.40222,-0.19845 0.40223,0.61963 0.40222,-0.24591 0.40223,0.54506 0.40222,0.16437 0.40223,0.62569 0.40222,0.0795 0.40223,0.21445 0.80445,0.92387 0.40222,0.26036 0.40223,-0.12538 0.40222,0.29906 0.40223,-0.3554 0.40222,0.68855 0.40223,0.16522 0.40222,0.51975 0.40223,-0.41225 0.40222,0.74428 0.40222,0.0366 1.20668,0.64166 0.80445,0.0756 0.40222,0.11597 0.40223,-0.16857 0.40222,-0.43569 0.40223,0.34878 0.40222,0.53393 0.40223,0.16016 0.40222,0.009 0.40223,-0.17148 0.40222,0.42749 0.80445,0.37332 0.40223,-0.19392 0.40222,-0.33425 0.40223,-0.60152 0.40222,-0.27253 0.80445,0.33008 1.20667,0.0181 0.40223,-0.21325 0.40222,0.14821 0.80445,-0.1708 1.6089,-0.37373 0.40223,-0.67188 0.40222,0.0381 0.40223,0.53104 0.40222,-0.27025 0.40223,0.15699 0.80445,-0.23912 0.40222,0.13617 0.80445,-0.48513 0.40223,0.0469 0.40222,-0.22856 0.40222,-0.36664 1.20668,0.26761 0.80445,-0.19659 1.20667,0.2687 0.40223,0.25772 0.40222,-0.57791 0.40223,0.0472 0.40222,-0.27511 1.20668,1.30496 0.40222,-0.84925 0.40223,-0.50955 0.40222,0.79795 0.40223,-0.0266 0.40222,0.52764 0.40223,0.0322 0.40222,-0.20907 0.40222,-0.008 0.40223,0.55775 3.2178,1.19335 0.40222,0.42273 0.40223,0.19972 0.40222,0.66777 0.40223,0.25326 0.80445,0.15162 0.80445,0.71622 0.40222,-0.1487 1.20668,0.95054 0.40222,0.0862 0.40223,0.76697 0.40222,-0.27833 0.80445,0.55433 1.20667,0.54757 0.40223,0.004 0.80445,0.57974 0.80445,0.48276 0.40222,0.38948 0.80445,-0.53593 0.40223,-0.0894 1.20667,1.86668 0.40223,-0.82333 0.40222,0.0689 0.40223,-0.31609 0.40222,0.85859 0.40223,-0.411 0.40222,0.15625 0.80445,-0.65251 0.40222,0.20341 1.6089,-0.72738 0.40223,0.55054 0.40222,-0.19483 0.40223,0.0708 0.80445,-1.5149 0.80445,-0.16618 0.40222,-0.4509 0.40223,0.2839 0.40222,-0.66796 0.40223,0.0222 0.80445,-0.47649 0.40222,-0.63054 0.80445,0.10222 0.40222,-0.50235 0.40223,0.24004 0.40222,-0.19902 0.40223,0.0222 0.40222,0.35701 0.40223,-0.62294 0.40222,-0.0778 0.40223,-0.48762 0.40222,0.16473 0.40223,-0.44056 0.40222,0.50426 0.80445,-0.34553 0.80445,0.48137 0.40223,0.0187 0.40222,0.47735 0.40223,0.15578 0.40222,-0.0471 0.40223,0.3677 0.80445,-0.68158 0.40222,0.38981 0.40223,-0.0507 0.80444,0.28474 1.20668,-0.76347 0.40222,0.35662 0.40223,0.17774 0.40222,-0.40345 0.40223,0.38515 0.40222,-1.13234 0.80445,1.54079 0.40223,-0.55613 0.40222,0.0288 0.40223,0.56793 0.40222,-0.38313 0.40223,0.89723 0.40222,0.5194 0.40223,-0.91187 0.40222,-0.0234 0.40223,0.60067 0.40222,-0.75596 0.40223,0.83277 0.40222,0.26849 0.40222,-0.90399 0.40223,0.83448 0.40222,0.3331 0.40223,-0.47833 0.40223,0.59588 0.40222,0.10654 0.40222,-1.00191 0.40223,0.0912 0.40222,-0.29063 0.40223,-0.0481 0.40222,0.50273 0.40223,-0.44122 0.40222,-0.2263 0.40223,0.69929 0.40222,-0.76948 0.40223,-0.25813 0.40222,0.24426 0.40223,-0.91358 0.40222,-0.0154 0.40223,0.37411 0.40222,-1.04083 0.80445,0.18814 0.40223,-0.96637 0.80444,0.41044 0.40223,-1.05706 0.40223,0.39839 0.40222,-0.0132 0.40222,-0.86097 0.40223,0.27336 0.40222,0.10207 0.40223,-0.71565 0.40222,0.4961 0.40223,-0.11267 0.40222,-0.76494 0.40223,-0.22153 0.40222,0.28682 0.40223,-0.35839 0.40222,-0.13684 0.40223,0.33733 0.40222,-0.4851 0.40223,0.2078 0.40222,0.36541 0.40223,-0.94004 0.40222,0.0945 0.40223,-0.39204 0.40222,0.12324 0.40222,0.51462 0.40223,-0.0873 0.40223,-0.46649 0.40222,0.34833 0.40222,0.14167 0.40223,-0.11888 0.40222,0.63074 0.40223,-0.0912 0.40222,0.44329 0.40223,0.26148 0.40222,0.0817 0.40223,0.47678 0.40222,0.18954 0.40223,-0.43574 0.80445,1.43257 0.40222,-0.0452 0.40223,0.48881 0.40222,0.84979 0.40223,-0.40662 0.80445,0.86934 0.40222,0.0341 0.80445,0.35845 0.40223,-0.10197 0.40222,0.14285 0.40222,-0.22012 0.40223,0.30149 0.40222,-0.57942 0.80445,-0.21934 0.40223,-0.56642 0.40222,0.35407 0.40223,0.12625 0.40222,-0.18563 0.40223,0.0381 0.40222,0.17309 0.40223,-0.20558 0.40222,0.0392 0.40223,0.71134 0.40222,-0.69808 0.40223,0.11948 0.40222,0.60241 0.40223,0.16542 0.40222,0.28682 0.40223,0.50205 0.40222,-0.68004 0.40223,0.61786 0.40222,0.26122 0.40222,0.10674 0.40223,0.30042 0.40222,-0.22883 0.40223,0.15809 0.40222,0.47397 0.40223,-0.14704 0.40222,0.36754 1.20668,0.55253 0.40222,-0.46783 0.80445,0.50867 0.40223,-0.8053 0.40222,1.02193 0.40223,0.35001 0.40222,-1.15688 0.40223,-0.0667 0.40222,0.57855 0.40223,-0.38629 0.40222,0.34027 0.40223,0.17426 0.40222,-1.26909 0.40222,0.31896 0.40223,0.16406 0.40222,-0.60326 0.80445,1.10282 0.40223,-1.46293 0.40222,0.49413 0.40223,0.11445 0.40222,-1.0103 0.40223,0.70181 0.40222,0.16738 0.40223,-0.48253 0.40222,0.23627 0.40223,-0.56513 0.40222,-0.0662 0.40223,0.42755 0.80445,-0.473 0.40222,0.42749 0.40223,-0.96845 0.40222,-0.22242 0.40223,0.44942 0.40222,-1.12078 0.40222,-0.0431 0.40223,0.26639 0.40222,-1.05132 0.40223,0.65174 0.40222,0.33915 0.40223,-1.09231 0.40222,0.0136 0.40223,0.31418 0.40222,-1.03859 0.80445,1.39834 0.40223,-1.42993 0.80445,0.61835 0.40222,-0.76835 0.40223,0.71024 0.40222,0.41997 0.40223,-1.07746 0.40222,0.71294 0.40223,0.0705 0.40222,-0.45435 0.40223,0.75621 0.40222,-0.51782 0.40222,-0.70012 0.80445,1.14691 0.40223,-0.46301 0.40222,0.0397 0.80445,-0.24739 0.40223,1.27863 0.40222,0.19179 0.40223,-0.45384 0.40222,0.40235 0.40223,-0.0398 0.40222,0.18938 0.40223,0.72332 0.40222,0.31982 0.40223,-0.41455 0.40222,0.90368 0.40223,-1.07693 0.40222,0.9415 0.40223,0.60069 0.40222,-0.79116 0.40223,1.26576 0.40222,0.88005 0.40223,-0.42637 0.40222,0.17834 0.40222,0.54604 0.40223,-0.67144 0.80445,2.01201 0.40222,-1.18351 0.40223,0.33358 0.40222,0.65639 0.40223,-0.66422 0.40222,0.9309 0.40223,0.17871 0.40222,-1.22614 0.40223,0.55334 0.40222,0.76911 0.40223,-1.23071 0.40222,0.61078 0.40223,0.0984 0.40222,-0.8042 0.80445,0.78241 0.40223,-0.90818 0.40222,0.0178 0.40223,-0.67552 0.40222,-1.03156 0.80445,0.92418 0.40222,-0.47063 0.40223,-0.91542 0.40222,-1.46916 0.40223,-0.16401 0.40222,0.27585 0.40223,-0.50509 0.40222,0.0801 0.80445,-1.51581 0.40223,0.36883 0.40222,0.0752 0.80445,-0.24215 0.80445,0.96574 0.40223,0.49081 0.80445,1.91134 0.40222,2.07268 0.40223,1.39563 0.40222,-4.71283 0.40223,-12.60314 0.80444,-106.47648 0.40223,76.65807 0.40222,14.88028 0.40223,7.2924 0.80445,6.16089 0.40222,3.29888 0.40223,1.93306 0.40222,-0.41509 0.40223,1.45541 0.40222,0.0315 0.40223,-0.2004 0.80445,-1.06242 0.40222,-1.01791 0.40223,-0.39054 0.40222,-0.85112 0.80445,-3.49553 0.80445,-1.86157 0.40223,-1.61282 0.40222,-0.84408 0.40223,-2.3219 2.41334,-9.43349 0.40223,-1.70451 0.40222,-0.63113 0.40223,-3.10913 0.40222,-0.9257 0.40223,-1.8853 0.40222,-2.77262 0.80445,-2.75821 0.40223,-3.23659 0.40222,-1.37801 0.40223,-0.76786 0.40222,-2.52116 0.80445,-2.7657 0.40223,-2.78232 0.80445,-1.19999 0.40222,-2.32631 0.80445,-1.88573 0.40223,-2.03872 0.40222,-0.22441 0.40222,-0.44963 0.40223,-1.88509 0.40222,-0.31637 0.40223,-0.92953 0.40222,-1.73366 0.40223,-0.65307 0.40222,-1.9237 1.20668,-10.77875 0.80445,-11.39007 0.40222,-9.92577 0.40223,-15.27648 0.40222,-36.416258 L 386.28246,-1 m 2.36518,0 0.16776,55.368887 0.40222,81.134913 0.40222,24.96007 0.40223,6.30757 0.40222,8.72185 0.40223,-11.59101 0.40222,-18.07619 0.40223,-26.31066 0.40222,-16.60021 0.40223,-22.849329 0.40222,-1.21995 0.40223,7.347851 0.40222,17.664918 0.40223,7.57632 0.40222,12.68654 0.40223,-9.59313 0.40222,-6.39484 0.40223,-36.858582 L 396.05651,-1 m 1.93627,0 0.0738,49.12551 L 398.21433,-1 m 1.5603,0 0.30306,62.39752 0.40222,41.53825 0.40223,6.64021 0.40222,-3.36809 0.40223,-7.993149 0.40222,-12.607358 L 403.56334,-1 m 2.53338,0 0.41657,41.882972 0.80445,58.059049 0.80444,45.174949 0.80445,31.61009 0.80445,20.34041 1.6089,29.81931 0.40223,4.19587 0.40222,-3.35049 0.40223,-7.29739 4.02224,-120.548296 0.40223,-9.403968 0.40222,-4.474691 0.40223,-12.798212 0.40222,-6.93591 0.40223,-10.134019 0.80445,2.547854 0.40222,1.995708 0.40223,4.311768 0.40222,6.098133 0.40223,4.388564 0.40222,9.024175 0.40223,2.643131 1.6089,24.964853 0.40222,7.58798 1.20668,14.31803 0.80445,2.95881 0.40222,-1.51085 1.20667,-14.83572 2.01113,-31.828715 1.20667,-15.438309 2.81558,-37.964595 0.40222,-8.969767 0.40223,0.373756 0.40222,3.487484 0.40223,0.915823 0.80444,3.550601 0.40223,0.257407 0.40222,3.285633 0.40223,15.380984 0.40223,7.771335 0.40222,-7.129922 0.40222,12.724275 0.40223,60.62317 0.40222,77.99595 0.40223,-82.28045 0.80445,107.61767 0.80445,-81.49415 0.40222,-24.25748 0.40223,-1.75554 0.80445,9.29953 0.40222,7.59395 0.80445,49.66724 0.40223,-25.47589 v 0"
         clip-path="url(#clipPath94)"
         style="stroke-linejoin:round;stroke-linecap:square;fill:none;stroke:#1f77b4;stroke-width:1.20228942995787px;opacity:1"
         id="path6077" />
      <path
         d="M 30.49,269.48 V 26.88"
         style="stroke-linejoin:miter;stroke-linecap:square;fill:none;stroke:#000000;stroke-width:1.20228942995787px;opacity:1"
         id="path6080" />
      <path
         d="M 450,269.48 V 26.88"
         style="stroke-linejoin:miter;stroke-linecap:square;fill:none;stroke:#000000;stroke-width:1.20228942995787px;opacity:1"
         id="path6083" />
      <path
         d="M 30.49,269.48 H 450"
         style="stroke-linejoin:miter;stroke-linecap:square;fill:none;stroke:#000000;stroke-width:1.20228942995787px;opacity:1"
         id="path6086" />
      <path
         d="M 30.49,26.88 H 450"
         style="stroke-linejoin:miter;stroke-linecap:square;fill:none;stroke:#000000;stroke-width:1.20228942995787px;opacity:1"
         id="path6089" />
      <g
         id="text_15">
        <!-- residual error -->
        <text
           xml:space="preserve"
           style="font-size:13.7404px;font-family:'Times New Roman';text-align:center;text-anchor:middle;fill:#000000;stroke:#000000;stroke-width:0.121374;stroke-linecap:butt;stroke-linejoin:bevel"
           x="278.75198"
           y="262.98016"
           id="text2058"
           transform="scale(0.87333483,1.1450362)"><tspan
             id="tspan2056"
             style="font-size:13.7404px;font-family:'Times New Roman';text-align:center;text-anchor:middle;stroke-width:0.121374"
             x="278.75198"
             y="262.98016"
             sodipodi:role="line">[GHz]</tspan></text>
      </g>
    </g>
  </g>
  <defs
     id="defs6140">
    <clipPath
       id="p5907f6e032">
      <rect
         x="30.49"
         y="26.879999"
         width="419.51001"
         height="242.60001"
         id="rect6137" />
    </clipPath>
  </defs>
</svg>
